<?xml version="1.0" encoding="utf-8"?>
<!-- Generator: Adobe Illustrator 16.0.0, SVG Export Plug-In . SVG Version: 6.00 Build 0)  -->
<!DOCTYPE svg PUBLIC "-//W3C//DTD SVG 1.1//EN" "http://www.w3.org/Graphics/SVG/1.1/DTD/svg11.dtd">
<svg version="1.1" id="Layer_1" xmlns="http://www.w3.org/2000/svg" xmlns:xlink="http://www.w3.org/1999/xlink" x="0px" y="0px"
	 width="512px" height="512px" viewBox="0 0 512 512" enable-background="new 0 0 512 512" xml:space="preserve">
<g>
	<g>
		<path fill="#FFFFFF" d="M173.784,306.356c50.73-11.648,103.889-16.052,157.153-15.819c-52.502-9.139-106.326-13.911-160.909-10.8
			c-27.272,1.606-54.727,5.205-82.042,11.839c-5.149,1.259-10.288,2.666-15.42,4.158c-0.102,0.415-0.187,0.839-0.289,1.264
			c-0.547,2.152-1.021,4.302-1.492,6.459c-0.293,6.02-0.301,12.038-0.14,18.049c0.717,7.363,1.437,14.726,2.208,22.084
			c8.872-4.989,18.172-9.57,27.772-13.721C123.779,319.874,148.47,312.198,173.784,306.356z"/>
		<path fill="#FFFFFF" d="M367.624,303.152c-1.085-0.458-2.166-0.924-3.251-1.399c-15.234,25.534-29.031,52.281-40.663,80.538
			c-6.358,15.496-12.063,31.434-16.857,47.948h48.118c-0.424-13.318-0.216-26.856,0.599-40.484
			C357.299,361.071,361.528,332.057,367.624,303.152z"/>
		<path fill="#FFFFFF" d="M385.473,309.917c-3.072-1.034-6.124-2.137-9.159-3.28l29.442,100.54
			c3.399-2.082,6.765-4.234,10.062-6.481c4.111-3.628,8.062-7.436,11.806-11.458c1.141-1.818,2.229-3.658,3.281-5.532
			c0.437-1.466,0.848-2.949,1.225-4.437c0.068-2.913,0.042-5.83-0.081-8.746L385.473,309.917z"/>
		<path fill="#FFFFFF" d="M344.357,291.292c-18.588,0.009-37.331,1.916-55.816,5.553c-27.828,5.442-55.071,14.472-81.3,25.865
			c-26.251,11.419-51.519,25.183-75.769,40.675c-12.124,7.758-24,15.946-35.623,24.599c-4.251,3.165-8.46,6.426-12.658,9.735
			c0.323,1.009,0.598,2.026,0.929,3.026c1.446,2.747,2.989,5.435,4.625,8.079c1.157,1.205,2.344,2.392,3.552,3.545
			c2.942,1.817,5.935,3.526,8.999,5.133c8.024,2.692,16.188,4.904,24.5,6.71c3.112,0.678,6.142,1.534,9.076,2.56
			c8.24-8.905,16.79-17.595,25.636-26c19.257-18.278,39.87-35.293,61.903-50.399c22.045-15.082,45.542-28.281,70.576-38.395
			c11.593-4.68,23.555-8.647,35.779-11.81c-2.615,1.127-4.311,1.853-4.311,1.853l8.8-1.039c-9.287,3.388-18.426,7.401-27.307,12.09
			c-21.108,11.093-40.692,25.717-58.114,42.752c-17.438,17.031-32.765,36.399-45.965,57.216c-3.561,5.624-6.956,11.363-10.215,17.2
			h54.027c6.845-18.87,15.577-37.204,26.51-54.354c11.635-18.273,25.806-35.202,42.6-49.75
			c12.356-10.732,26.179-20.075,41.091-27.823l0.928-0.11C352.529,296.073,348.371,293.763,344.357,291.292z"/>
	</g>
	<g>
		<path fill="#FFFFFF" d="M416.695,240.45c8.186-8.191,7.584-22.059,7.584-22.059s-13.869-0.597-22.05,7.592
			c-1.437,1.429-2.59,3.036-3.53,4.709l-0.145-12.992c4.727-0.43,12.687-1.986,18.141-7.437c8.186-8.19,7.584-22.063,7.584-22.063
			s-13.869-0.592-22.05,7.589c-1.599,1.59-2.84,3.391-3.841,5.265l-0.063-6.513c2.921-3.826,6.48-9.88,6.48-16.713
			c0-11.578-10.236-20.961-10.236-20.961s-10.223,9.383-10.223,20.961c0,6.998,3.729,13.185,6.688,16.989l0.06,5.773
			c-0.958-1.699-2.124-3.34-3.587-4.8c-8.185-8.181-22.049-7.589-22.049-7.589s-0.603,13.873,7.583,22.063
			c5.49,5.484,13.522,7.021,18.227,7.441l0.136,13.66c-1-1.92-2.271-3.76-3.896-5.382c-8.185-8.189-22.049-7.592-22.049-7.592
			s-0.603,13.868,7.583,22.059c5.608,5.61,13.869,7.091,18.535,7.467l0.149,14.239c-1.051-2.129-2.421-4.197-4.219-5.986
			c-8.185-8.188-22.049-7.596-22.049-7.596s-0.603,13.878,7.583,22.067c5.736,5.73,14.246,7.155,18.846,7.489l0.263,25.361
			l7.286-0.068l-0.263-25.411c4.778-0.513,12.298-2.153,17.522-7.371c8.186-8.189,7.584-22.067,7.584-22.067
			s-13.869-0.591-22.05,7.596c-1.281,1.28-2.348,2.7-3.239,4.179l-0.131-12.49C403.619,247.389,411.36,245.782,416.695,240.45z"/>
		<rect x="366.684" y="142.083" fill="#FFFFFF" width="7.29" height="31.585"/>
		<rect x="390.576" y="117.786" fill="#FFFFFF" width="7.288" height="31.587"/>
		<rect x="414.471" y="142.083" fill="#FFFFFF" width="7.286" height="31.585"/>
	</g>
	<g>
		<path fill="#FFFFFF" d="M301.72,203.99c8.181-8.189,7.579-22.054,7.579-22.054s-13.865-0.596-22.047,7.589
			c-1.437,1.431-2.594,3.033-3.53,4.713l-0.145-12.994c4.727-0.435,12.687-1.986,18.143-7.437
			c8.181-8.191,7.579-22.063,7.579-22.063s-13.865-0.591-22.047,7.589c-1.598,1.59-2.844,3.394-3.84,5.265l-0.072-6.515
			c2.925-3.828,6.49-9.876,6.49-16.714c0-11.578-10.237-20.963-10.237-20.963s-10.229,9.385-10.229,20.963
			c0,7.002,3.738,13.183,6.689,16.989l0.055,5.775c-0.949-1.706-2.124-3.343-3.573-4.801c-8.194-8.181-22.063-7.589-22.063-7.589
			s-0.593,13.872,7.596,22.063c5.477,5.48,13.513,7.02,18.227,7.443l0.132,13.655c-1.005-1.917-2.272-3.757-3.892-5.381
			c-8.194-8.185-22.063-7.589-22.063-7.589s-0.593,13.865,7.596,22.054c5.6,5.612,13.869,7.094,18.527,7.473l0.148,14.236
			c-1.043-2.132-2.42-4.196-4.209-5.988c-8.194-8.189-22.063-7.591-22.063-7.591s-0.593,13.874,7.596,22.061
			c5.73,5.735,14.242,7.155,18.846,7.494l0.25,25.362l7.295-0.076l-0.268-25.407c4.777-0.509,12.302-2.151,17.528-7.374
			c8.181-8.188,7.579-22.061,7.579-22.061s-13.865-0.598-22.047,7.591c-1.288,1.283-2.353,2.701-3.238,4.18l-0.131-12.492
			C288.646,210.931,296.378,209.326,301.72,203.99z"/>
		<rect x="251.706" y="105.622" fill="#FFFFFF" width="7.29" height="31.588"/>
		<rect x="275.6" y="81.328" fill="#FFFFFF" width="7.291" height="31.59"/>
		<rect x="299.494" y="105.622" fill="#FFFFFF" width="7.282" height="31.588"/>
	</g>
	<g>
		<path fill="#FFFFFF" d="M169.91,195.581c8.193-8.191,7.587-22.059,7.587-22.059s-13.865-0.597-22.054,7.592
			c-1.432,1.431-2.59,3.037-3.531,4.709l-0.14-12.99c4.722-0.435,12.688-1.99,18.138-7.441c8.193-8.185,7.587-22.063,7.587-22.063
			s-13.865-0.589-22.054,7.596c-1.594,1.584-2.844,3.391-3.845,5.263l-0.059-6.513c2.92-3.83,6.485-9.881,6.485-16.718
			c0-11.579-10.241-20.961-10.241-20.961s-10.224,9.382-10.224,20.961c0,7,3.734,13.185,6.685,16.995l0.064,5.769
			c-0.954-1.704-2.124-3.34-3.586-4.796c-8.181-8.185-22.05-7.596-22.05-7.596s-0.598,13.878,7.587,22.063
			c5.489,5.485,13.521,7.024,18.227,7.445l0.135,13.656c-1-1.918-2.268-3.758-3.899-5.379c-8.181-8.189-22.05-7.592-22.05-7.592
			s-0.598,13.868,7.587,22.059c5.607,5.607,13.877,7.089,18.532,7.468l0.148,14.236c-1.051-2.129-2.42-4.194-4.217-5.985
			c-8.181-8.187-22.05-7.591-22.05-7.591s-0.598,13.871,7.587,22.061c5.73,5.734,14.25,7.153,18.845,7.492l0.259,25.358l7.291-0.067
			l-0.267-25.412c4.777-0.509,12.301-2.151,17.523-7.371c8.193-8.19,7.587-22.061,7.587-22.061s-13.865-0.595-22.054,7.591
			c-1.284,1.281-2.348,2.698-3.234,4.178l-0.127-12.49C156.837,202.519,164.573,200.912,169.91,195.581z"/>
		<rect x="119.905" y="97.213" fill="#FFFFFF" width="7.291" height="31.587"/>
		<rect x="143.795" y="72.916" fill="#FFFFFF" width="7.291" height="31.585"/>
		<rect x="167.685" y="97.213" fill="#FFFFFF" width="7.29" height="31.587"/>
	</g>
</g>
<g>
</g>
<g>
</g>
<g>
</g>
<g>
</g>
<g>
</g>
<g>
</g>
<g>
</g>
<g>
</g>
<g>
</g>
<g>
</g>
<g>
</g>
<g>
</g>
<g>
</g>
<g>
</g>
<g>
</g>
</svg>
