<svg xmlns="http://www.w3.org/2000/svg" width="512" height="512"><g fill="#fff"><path d="M357.813 123.067c13.7 16.438 27.365 32.927 41.093 49.365 10.939 13.095 18.911 26.648 18.911 44.311 0 33.139-26.865 60.006-60.004 60.006-33.148 0-60.022-26.867-60.022-60.006 0-17.662 7.99-31.215 18.929-44.311 13.718-16.438 27.384-32.927 41.093-49.365zM264.947 226.792c18.223 21.849 36.383 43.759 54.615 65.592 14.522 17.41 25.122 35.409 25.122 58.878 0 44.038-35.695 79.738-79.737 79.738-44.036 0-79.735-35.7-79.735-79.738 0-23.469 10.595-41.468 25.136-58.878 18.231-21.833 36.387-43.743 54.599-65.592zM168.083 81c16.865 20.236 33.689 40.539 50.584 60.779 13.468 16.12 23.286 32.804 23.286 54.55 0 40.8-33.077 73.881-73.871 73.881-40.816 0-73.901-33.081-73.901-73.881 0-21.747 9.831-38.43 23.294-54.55 16.902-20.24 33.722-40.543 50.608-60.779z"/></g></svg>