<svg xmlns="http://www.w3.org/2000/svg" width="512" height="512"><g fill="#fff"><path d="M169.949 225.899c15.816 32.095 11.42 66.591-9.812 77.054-21.219 10.457-51.252-7.073-67.077-39.181-15.816-32.084-11.412-66.596 9.803-77.049 21.237-10.462 51.269 7.077 67.086 39.176zM365.679 168.99c-9.152 38.957-37.813 65.547-64.022 59.397-26.19-6.146-40.029-42.693-30.895-81.658 9.135-38.957 37.805-65.551 63.996-59.406 26.208 6.154 40.037 42.711 30.921 81.667zM253.62 142.316c10.135 39.66-1.723 76.941-26.458 83.258-24.731 6.312-52.988-20.731-63.108-60.391-10.128-39.668 1.719-76.955 26.441-83.267 24.736-6.321 53.019 20.735 63.125 60.4zM426.043 278.164c-8.106 33.436-34.411 55.731-58.756 49.832-24.362-5.903-37.523-37.773-29.426-71.194 8.088-33.426 34.402-55.74 58.764-49.832 24.345 5.9 37.523 37.775 29.418 71.194zM142.422 364.939s45.59-103.98 111.181-103.98c0 0 86.386-3.198 109.579 130.364 3.499 20.134-9.469 37.919-29.69 39.502-23.992 1.881-46.455-12.001-70.026-13.909-33.503-2.707-100.391 35.273-122.7-8.018-5.694-11.051-4.112-33.207 1.656-43.959z"/></g></svg>