<svg xmlns="http://www.w3.org/2000/svg" width="512" height="512"><g fill="#fff"><path d="M103.067 280.092c39.829-17.153 89.962-16.238 132.586-7.148 58.19 12.425 122.636 22.18 170.177-7.177 2.368-1.465 3.681-3.862 3.681-6.357v-30.944c0-8.541-8.157-15.468-18.213-15.468h-64.998v-17.309l30.398.05c1.088.025 1.873-.886 1.515-1.764l-16.152-32.912c-.22-.553-.047-1.165.449-1.577l5.622-4.617c.977-.81 1.287-2.043.771-3.117l-33.819-70.242c-.314-.669-1.421-.68-1.775-.025l-40.472 77.766c-.246.474-.293.987-.207 1.49l12.829 10.815-6.79-2.238-11.329 24.436c-.408.871.326 1.822 1.436 1.844l25.148.043 3.508-4.834 2.899-4.006c.17-.228.59-.091.528.173l-1.985 8.671-1.442 6.338v11.014h-91.268v-9.998l19.117.022c.73.018 1.258-.59 1.023-1.179l-9.607-21.956c-.148-.373-.033-.781.296-1.056l3.76-3.084c.655-.546.861-1.371.517-2.086l-22.606-46.956c-.217-.448-.951-.459-1.19-.015l-27.054 51.978c-.167.322-.195.669-.137 1.001l8.577 7.229-4.545-1.494-7.564 16.333c-.271.582.209 1.215.958 1.24l15.577.011 3.572-4.921 1.692-2.329c.167-.231.586-.094.524.17l-1.62 7.08-.597 2.604v7.405h-69.652c-10.056 0-18.206 6.928-18.206 15.468v49.483c.001 1.78 2.192 2.955 4.068 2.145zm264.681-53.561c5.344 0 9.68 3.677 9.68 8.219 0 4.545-4.336 8.222-9.68 8.222-5.348 0-9.684-3.677-9.684-8.222 0-4.542 4.336-8.219 9.684-8.219zm-29.636 26.316c2.882 0 5.214 1.985 5.214 4.434 0 2.44-2.332 4.422-5.214 4.422-2.874 0-5.214-1.981-5.214-4.422 0-2.449 2.34-4.434 5.214-4.434zm-56.262-14.135c6.339 0 11.47 4.361 11.47 9.741 0 5.391-5.131 9.749-11.47 9.749s-11.477-4.357-11.477-9.749c0-5.38 5.138-9.741 11.477-9.741zm-56.856 11.477c3.453 0 6.259 2.379 6.259 5.312 0 2.939-2.806 5.318-6.259 5.318-3.457 0-6.259-2.379-6.259-5.318 0-2.933 2.802-5.312 6.259-5.312zm-62.167-24.226c5.72 0 10.345 3.934 10.345 8.787s-4.625 8.79-10.345 8.79c-5.706 0-10.338-3.938-10.338-8.79s4.632-8.787 10.338-8.787zm-37.522 15.635c4.466 0 8.074 3.074 8.074 6.856 0 3.793-3.608 6.866-8.074 6.866-4.458 0-8.074-3.073-8.074-6.866-.001-3.783 3.616-6.856 8.074-6.856zM339.117 318.398c3.2-.188 7.528-4.144 7.528-4.144s2.546-3.298 8.483.185c0 0-4.047-.749-4.527.48-.561 1.129.383 4.704 3.023 6.404 2.632 1.598 6.219-2.644 8.096-2.832l.094-.036c3.616 1.45 7.701 2.174 11.82 2.181-.282.344-2.209 2.77-2.209 4.169 0 1.605 3.673-.658 4.241-1.319.401-.401 1.935-2.174 2.791-3.171 6.277-.879 12.226-3.515 16.229-8.042.383-.369-.091-1.03-.091-1.03l-4.144 2.075s1.595-1.229 3.67-3.207c0-1.602-9.228-6.027-9.228-6.027l-.094-.091c-3.862-1.981-8.668-2.831-12.901-2.831-2.694-.112-4.553.083-6.271.517-2.838-3.808-8.54-3.793-12.004.427-.662.943-.662 2.538-.065 3.927-4.903.85-7.091-1.948-7.091-1.948s-4.339-2.824-6.975-2.734c-2.73 0-2.452 1.512-2.264 3.11.191 1.887 1.691 5.839 1.691 5.839s-1.691 3.956-1.88 4.899c.003 1.131-1.129 3.677 2.078 3.199zM149.961 365.357c.398-.401 1.935-2.173 2.792-3.171 6.277-.879 12.222-3.515 16.224-8.038.387-.372-.086-1.034-.086-1.034l-4.144 2.076s1.595-1.229 3.67-3.208c0-1.598-9.228-6.027-9.228-6.027l-.098-.091c-3.858-1.981-8.664-2.827-12.901-2.827-2.694-.112-4.552.079-6.266.517-2.838-3.811-8.544-3.796-12.008.427-.658.94-.658 2.535-.062 3.924-4.907.85-7.094-1.949-7.094-1.949s-4.335-2.824-6.975-2.729c-2.73 0-2.448 1.508-2.263 3.105.191 1.888 1.696 5.84 1.696 5.84s-1.696 3.956-1.88 4.899c0 1.132-1.132 3.677 2.072 3.2 3.2-.188 7.528-4.144 7.528-4.144s2.545-3.298 8.486.184c0 0-4.05-.748-4.531.481-.557 1.128.387 4.708 3.023 6.403 2.636 1.599 6.219-2.643 8.1-2.827l.098-.04c3.616 1.45 7.698 2.173 11.813 2.181-.268.332-2.209 2.766-2.209 4.169-.002 1.605 3.672-.658 4.243-1.321zM177.688 313.966h.347c14.069.372 18.039 16.285 36.585 16.285h.618c18.405 0 22.748-15.913 36.56-16.285h.872c14.424 0 18.394 16.285 37.568 16.285 20.498 0 37.425-17.16 37.425-38.18 0-.495 0-1.255-.384-1.742-2.477 13.063-18.383 23.637-37.785 23.637-17.437 0-32.475-8.96-36.824-20.903v-2.733c-.25.487-.25 1.247-.622 2.118-.25-.871-.625-1.631-.625-2.118v3.734c-4.972 11.427-19.406 19.642-36.556 19.902-16.904-.261-31.592-8.476-36.191-19.902v-3.734c-.361.487-.361 1.247-.64 2.118-.347-.871-.615-1.631-.977-2.118v2.733c-3.981 11.943-19.02 20.903-36.82 20.903-19.023 0-35.066-10.573-38.172-23.637v1.742c0 21.02 17.165 38.18 37.807 38.18 18.777 0 22.881-16.285 37.547-16.285h.267zM217.972 371.526c19.038 0 23.12-16.286 37.55-16.286h.886c13.791.637 18.148 16.286 36.556 16.286h.615c18.419 0 22.508-15.649 36.32-16.286h.872c14.677 0 18.784 16.286 37.435 16.286 20.636 0 37.559-16.907 37.559-37.782v-2.241c-2.864 13.414-18.774 23.737-37.83 23.737-17.764 0-32.817-8.692-37.163-20.636v-3.101c0 .976-.253 1.608-.872 2.477 0-.868 0-1.501-.748-2.477v4.339c-4.35 11.313-19.034 19.398-35.812 19.398-17.284 0-31.588-8.085-36.567-19.398v-4.339c0 .976-.365 1.608-.619 2.477-.376-.868-.633-1.501-.633-2.477v3.101c-4.335 11.943-19.778 20.636-37.185 20.636-19.009 0-35.063-10.323-37.786-23.737v2.241c.002 20.875 16.779 37.782 37.422 37.782zM408.882 383.973c-40.276 17.345-90.975 16.423-134.076 7.234-58.844-12.572-124.013-22.436-172.085 7.254-2.394 1.482-3.721 3.909-3.721 6.422v22.097c0 2.216 2.123 4.021 4.733 4.021h304.527c2.618 0 4.74-1.805 4.74-4.021v-40.834c0-1.801-2.224-2.988-4.118-2.173z"/></g></svg>