<svg xmlns="http://www.w3.org/2000/svg" width="512" height="512"><path fill-rule="evenodd" clip-rule="evenodd" fill="#fff" d="M256.052 81c4.215 0 8.04 2.35 10.689 6.177l21.683 37.572 21.775 37.665c1.861 4.124 2.058 8.635-.101 12.267-2.153 3.727-6.081 5.785-10.593 6.177h-8.043l7.65 13.343 28.841 49.931c2.551 5.493 2.747 11.474-.096 16.376-2.851 4.908-8.047 7.758-14.128 8.247h-9.616l5.593 9.712 35.999 62.39c3.242 6.862 3.435 14.316-.097 20.401-3.531 6.078-10.008 9.609-17.559 10.298h-50.812l4.413 59.444h-51.204l4.316-59.443h-50.716c-7.554-.688-14.125-4.22-17.659-10.298-3.527-6.085-3.334-13.539-.096-20.401l36.003-62.39 5.589-9.712h-9.612c-5.985-.489-11.281-3.339-14.128-8.247-2.843-4.902-2.65-10.884-.096-16.376l28.937-49.931 7.651-13.343h-8.043c-4.608-.392-8.536-2.45-10.689-6.177-2.062-3.631-1.965-8.143 0-12.267l21.675-37.665 21.779-37.572c2.552-3.828 6.376-6.178 10.695-6.178z"/></svg>