<svg xmlns="http://www.w3.org/2000/svg" width="512" height="512"><path fill-rule="evenodd" clip-rule="evenodd" fill="#fff" d="M429.5 353.337l-21.685-37.581-3.367-5.85h5.792c3.662-.295 6.796-2.01 8.511-4.966 1.711-2.948 1.591-6.556.059-9.86l-17.372-30.08-4.608-8.035h4.841c2.72-.237 5.086-1.478 6.382-3.72 1.299-2.188 1.183-4.907.062-7.39l-13.115-22.686-13.062-22.631c-1.598-2.304-3.898-3.724-6.439-3.724-2.599 0-4.903 1.42-6.443 3.724l-13.115 22.631-13.058 22.686c-1.183 2.483-1.241 5.202 0 7.39 1.3 2.242 3.666 3.483 6.439 3.72h4.845l-4.609 8.035-17.429 30.08c-1.54 3.305-1.656 6.912.058 9.86 1.711 2.956 4.903 4.671 8.508 4.966h5.791l-3.367 5.85-8.79 15.229c-.189-.488-.372-.978-.602-1.458l-31.192-54.061-4.845-8.418h8.332c5.269-.419 9.771-2.887 12.239-7.14 2.463-4.248 2.292-9.435.085-14.19l-24.989-43.265-6.63-11.56h6.967c3.91-.342 7.312-2.126 9.179-5.354 1.87-3.146 1.703-7.056.089-10.629l-18.868-32.636-18.787-32.554c-2.296-3.316-5.609-5.353-9.263-5.353-3.74 0-7.053 2.037-9.268 5.353l-18.868 32.554-18.783 32.636c-1.703 3.573-1.785 7.483 0 10.629 1.87 3.228 5.272 5.012 9.264 5.354h6.971l-6.629 11.56-25.075 43.265c-2.211 4.756-2.378 9.942.085 14.19 2.463 4.253 7.056 6.721 12.239 7.14h8.329l-4.841 8.418-31.196 54.061c-.225.48-.407.97-.602 1.45l-8.782-15.222-3.367-5.85h5.792c3.662-.295 6.792-2.01 8.507-4.966 1.714-2.948 1.594-6.556.062-9.86l-17.379-30.079-4.608-8.035h4.845c2.715-.237 5.082-1.478 6.377-3.72 1.304-2.188 1.188-4.907.062-7.39l-13.116-22.686-13.061-22.631c-1.595-2.304-3.899-3.724-6.439-3.724-2.599 0-4.899 1.42-6.439 3.724l-13.12 22.631-13.057 22.686c-1.184 2.483-1.238 5.202 0 7.39 1.303 2.242 3.666 3.483 6.439 3.72h4.849l-4.608 8.035-17.433 30.08c-1.536 3.305-1.652 6.912.058 9.86 1.715 2.956 4.907 4.671 8.511 4.966h5.788l-3.363 5.85-21.688 37.581c-1.951 4.136-2.063 8.628.058 12.29 2.13 3.662 6.086 5.787 10.637 6.198h30.549l-2.599 35.806h30.839l-2.653-35.806h30.603c4.55-.411 8.453-2.536 10.579-6.198 1.707-2.94 1.909-6.417.935-9.814.725.132 1.458.24 2.207.311h43.943l-3.739 51.508h44.366l-3.821-51.508h44.025c.721-.062 1.428-.171 2.125-.295-.97 3.39-.768 6.858.939 9.799 2.126 3.662 6.086 5.787 10.637 6.198h30.545l-2.6 35.806h30.844l-2.657-35.806h30.606c4.547-.411 8.449-2.536 10.575-6.198s2.008-8.155.057-12.291z"/></svg>