<?xml version="1.0" encoding="utf-8"?>
<!-- Generator: Adobe Illustrator 18.0.0, SVG Export Plug-In . SVG Version: 6.00 Build 0)  -->
<!DOCTYPE svg PUBLIC "-//W3C//DTD SVG 1.1//EN" "http://www.w3.org/Graphics/SVG/1.1/DTD/svg11.dtd">
<svg version="1.1" id="Capa_1" xmlns="http://www.w3.org/2000/svg" xmlns:xlink="http://www.w3.org/1999/xlink" x="0px" y="0px"
	 viewBox="0 0 512 512" enable-background="new 0 0 512 512" xml:space="preserve">
<g>
	<g>
		<path fill="#FFFFFF" d="M211.8,247.8l4.9,22.4c2-2,3.4-4.6,4-7.5c0-0.2,4.3-20,11.6-40.1c2.8-7.7,5.5-13.9,8-18.8v232
			c0,13,10.5,23.5,23.5,23.5c13,0,23.5-10.5,23.5-23.5V315.7h8.8v120.1c0,13,10.5,23.5,23.5,23.5c13,0,23.5-10.5,23.5-23.5V202
			c8.5,17.7,16.1,53.3,12.2,120.2c-0.5,7.8,5.1,14.6,12.6,15.9v8.5h-13.2v76.7h34.9v-76.7h-13.2V337c5.1-2.2,8.8-7.1,9.2-13.1
			c4.7-80.4-5.4-132.8-29.9-155.8c-10.7-10-21.1-11.8-26.5-11.9c-0.3,0-0.6,0-0.9,0h-71.4c-1.2-0.3-2.4-0.4-3.6-0.4
			c-17.4,0-32.1,14.4-44.8,43.8l13.5,31.6L211.8,247.8z M291.8,294.5l-18.1-22.8l10.4-76.7c2.5,0.9,5.1,1.4,7.7,1.4h0h0
			c2.6,0,5.2-0.5,7.6-1.4l10.4,76.7L291.8,294.5z M284.6,171.8h7.2h7.2l3.6,14.3l-0.5,0.9c-3,2.5-6.6,3.7-10.3,3.7
			c-3.7,0-7.3-1.2-10.3-3.7L281,186L284.6,171.8z"/>
		<path fill="#FFFFFF" d="M167.8,212c-3.5,0.4-6.8,2.1-9.4,4.9c-5.6,6.2-5.1,15.9,1.1,21.5l24.9,22.4l1.2-16.9l2-6l2.2,5.3l-7,99.2
			l43-10.6L207.4,247l10.2-16.2l-15.4-36.3L135.9,52.7l-13.7,5.9l28.9,54.4l-14.9,6.3l13.1,30.7l-6.7,2.9L167.8,212z M160.6,117.4
			l21.8,51.1l-3.5,1.5l-21.8-51.1L160.6,117.4z"/>
	</g>
	<g>
		<path fill="#FFFFFF" d="M291.8,59.8c-23.6,0-42.8,19.2-42.8,42.8c0,23.6,19.2,42.8,42.8,42.8c23.6,0,42.8-19.2,42.8-42.8
			C334.6,78.9,315.5,59.8,291.8,59.8z M297.1,125.8v7.8h-10.8v-7.1c-4.1-0.4-8.4-1.5-11.3-3.1l-1.3-0.7l3.1-12.2l2.1,1.2
			c2,1.1,6.1,2.9,11.1,2.9c2.5,0,5.1-0.8,5.1-2.6c0-1.2-0.8-2.6-6.4-4.5c-6.6-2.2-14.2-5.9-14.2-15c0-7,4.6-12.3,12.2-14.3v-7.3
			h10.8v6.5c4.5,0.4,7.5,1.5,9.4,2.4l1.4,0.7l-2.6,9.7l-0.7,2.2l-2.1-1c-1.8-0.9-4.8-2.3-9.5-2.3c-1.6,0-4.3,0.3-4.3,2.2
			c0,1.5,3.9,3.1,7.4,4.3c9.3,3.3,13.3,7.8,13.3,15.3C309.9,118.4,305,123.9,297.1,125.8z"/>
	</g>
</g>
</svg>
