<svg xmlns="http://www.w3.org/2000/svg" width="512" height="512"><path fill="#fff" d="M257.823 135.782c17.237 0 31.218 13.978 31.218 31.214s-13.98 31.214-31.218 31.214c-17.237 0-31.214-13.978-31.214-31.214s13.977-31.214 31.214-31.214zm-129.007 154.482v52.608h-14.478v-45.045h-3.113v45.045h-14.811v-91.613h-2.248v29.635h-13.166v-40.413c0-7.132 5.834-12.966 12.966-12.966h29.406c-.455 1.834-.703 3.752-.703 5.726v57.023h6.147zm-15.914-106.693c11.421 0 20.684 9.26 20.684 20.681 0 4.628-1.519 8.898-4.09 12.346-.707.722-1.368 1.489-1.985 2.293-3.737 3.733-8.902 6.045-14.609 6.045-11.417 0-20.681-9.263-20.681-20.684s9.264-20.681 20.681-20.681zm270.283 106.693v52.608h14.478v-45.045h3.116v45.045h14.812v-91.613h2.248v29.635h13.161v-40.413c0-7.132-5.835-12.966-12.966-12.966h-29.406c.458 1.834.703 3.752.703 5.726v57.023h-6.146zm15.913-106.693c-11.421 0-20.681 9.26-20.681 20.681 0 4.628 1.519 8.898 4.087 12.346.71.722 1.372 1.489 1.984 2.293 3.741 3.733 8.906 6.045 14.609 6.045 11.417 0 20.681-9.263 20.681-20.684s-9.263-20.681-20.68-20.681zm-83.876 113.339v65.545h18.03v-56.12h3.884v56.12h18.454v-114.136h2.801v36.921h16.398v-50.353c0-8.883-7.267-16.15-16.153-16.15h-36.632c.567 2.286.872 4.673.872 7.131v71.042h-7.654zm-29.993-14.237v-44.726h-3.392v138.271h-21.85v-67.992h-4.699v67.992h-22.357v-138.271h-3.391v44.726h-19.869v-61c0-10.763 8.809-19.567 19.568-19.567h56.707c10.764 0 19.567 8.804 19.567 19.567v61h-20.284zm-87.124 14.237v65.545h-18.03v-56.12h-3.88v56.12h-18.458v-114.136h-2.801v36.921h-16.398v-50.353c0-8.883 7.267-16.15 16.154-16.15h36.631c-.567 2.286-.872 4.673-.872 7.131v71.042h7.654zm-19.819-132.921c14.226 0 25.767 11.538 25.767 25.767 0 5.763-1.895 11.086-5.098 15.379-.88.898-1.707 1.854-2.474 2.857-4.662 4.65-11.09 7.53-18.196 7.53-14.229 0-25.767-11.538-25.767-25.767.001-14.229 11.539-25.766 25.768-25.766zm156.755 0c-14.226 0-25.763 11.538-25.763 25.767 0 5.763 1.895 11.086 5.094 15.379.88.898 1.707 1.854 2.474 2.857 4.658 4.65 11.09 7.53 18.195 7.53 14.229 0 25.768-11.538 25.768-25.767s-11.538-25.766-25.768-25.766z"/></svg>