<?xml version="1.0" encoding="utf-8"?>
<!-- Generator: Adobe Illustrator 18.0.0, SVG Export Plug-In . SVG Version: 6.00 Build 0)  -->
<!DOCTYPE svg PUBLIC "-//W3C//DTD SVG 1.1//EN" "http://www.w3.org/Graphics/SVG/1.1/DTD/svg11.dtd">
<svg version="1.1" id="Capa_1" xmlns="http://www.w3.org/2000/svg" xmlns:xlink="http://www.w3.org/1999/xlink" x="0px" y="0px"
	 viewBox="0 0 512 512" enable-background="new 0 0 512 512" xml:space="preserve">
<g>
	<g>
		<polygon fill="#FFFFFF" points="122,272 96.4,281.2 74.2,297.8 68.1,316.5 73,318.2 81,310 97.4,296.9 120.9,289.3 362.6,370.8 
			380.3,405.8 380.3,419.7 392.1,423.6 397.6,406.9 375.3,355.7 		"/>
		<path fill="#FFFFFF" d="M355.4,373.8l-0.5-0.3L126.5,298c-11.2-3.7-21.8-0.4-28.2,8.7c-6.7,9.5-7.2,22.5-1.2,30.2
			c2.5,3.3,15.2,19.1,37.7,47c3,3.7,6.9,6.4,11.4,7.9l140.2,46.3c4.5,1.5,9.2,1.6,13.7,0.5c0.6-0.2,61.3-17.3,66.9-34.2
			C372.4,388.4,361.7,377.4,355.4,373.8z M356.2,400.9c-2.4,5.8-34.9,20.6-58.9,26.8c-2.4,0.6-4.9,0.5-7.2-0.3L149.8,381
			c-2.4-0.8-4.5-2.2-6.1-4.2c-22.4-27.9-35.1-43.6-37.6-46.9c-2.8-3.7-2.1-11.4,1.5-16.6c2.5-3.5,7.2-7.2,15.3-4.5L350.2,384
			C352.2,385.3,359.5,390.9,356.2,400.9z"/>
		<path fill="#FFFFFF" d="M305.8,274.6c0,0-7.4-2.9-17.8-6.8c0.2-0.3,0.3-0.6,0.4-1c1.6-4.7-1-9.8-5.7-11.4L251,245
			c-4.7-1.6-9.8,1-11.4,5.7c0,0,0,0,0,0.1c-9.1-2.8-16.2-4.6-18.4-4.1c-8.3,1.9-28.6,42.1-28.6,42.1l138.1,45.6L305.8,274.6z"/>
		<polygon fill="#FFFFFF" points="436.9,334.4 438.5,329.4 403.8,317.9 402.2,322.9 320.7,296 327.1,311.1 398.3,334.7 396.6,339.7 
			431.3,351.1 433,346.2 440,348.5 443.9,336.7 		"/>
		<path fill="#FFFFFF" d="M139.5,272.4l36.8,12.2c4.2,1.4,8.8-0.9,10.2-5.1c1.4-4.2-0.9-8.8-5.1-10.2l-36.8-12.2
			c-4.2-1.4-8.8,0.9-10.2,5.1S135.3,271.1,139.5,272.4z"/>
		<circle fill="#FFFFFF" cx="339" cy="395.4" r="10.2"/>
		<circle fill="#FFFFFF" cx="124.6" cy="324.5" r="10.2"/>
		<circle fill="#FFFFFF" cx="161.3" cy="357.1" r="20.6"/>
		<circle fill="#FFFFFF" cx="205.1" cy="371.6" r="20.6"/>
		<circle fill="#FFFFFF" cx="249" cy="386.1" r="20.6"/>
		<circle fill="#FFFFFF" cx="292.9" cy="400.6" r="20.6"/>
	</g>
	<g>
		<path fill="#FFFFFF" d="M226.7,94.3c5.3,7.7,8.6,21.8,2.1,30.1c-22.1-47.5-56.4-51.9-56.4-51.9c8.4,25-4.3,56.3-17.7,80.3
			c-2.4-10.1-4.3-17.1-11.5-25.9c2.1,18.8-9.4,36.5-9.9,55.9c-0.7,26.2,11.7,43,49.9,56.4c-14.9-20.7-11.5-34.7-5.3-48.5
			c6.8-15,6.8-28.7,6.8-28.7s8.9,8.1,8.6,23.2c10.2-16.4,8.6-39.4,5.1-47.7c32.4,15,52.4,56.3,41.7,91.5
			C319.2,163.4,239.7,100.6,226.7,94.3z"/>
	</g>
	<g>
		<path fill="#FFFFFF" d="M432,243l-26-8.6l14.6-29.1l-25.4,5.3l-3.8-28l-20.2,22.3L356,177.7l-10.6,29.5l-27.3-7l16.7,27l-29.8,8.1
			l31.1,15L319.2,280l31.3-12l2.8,32.7l23.7-25.8l13.5,22.2l3.5-27.5l26.9,9.3l-14.2-24.5L432,243z M402.8,245.8l-9.5,4.3l5.3,9.1
			l1.5,2.6l-3.2-1.1l-10.8-3.7l-1.4,11.4l-0.1,1.1l-6.1-10l-8.3,9.1l-9.4,10.2l-1-11.4l-1.1-12.5l-11.6,4.4l-6.8,2.6l3.9-6.8l5-8.8
			l-9.1-4.4l-8.3-4l5.5-1.5l12-3.3l-6.6-10.7l-4.5-7.2l5,1.3l8.1,2.1l2.9-8l3.7-10.3l5.2,9.4l6.3,11.3l8.7-9.5l6.8-7.5l1.1,8
			l1.4,10.1l9.8-2l6.3-1.3l-5.8,11.6l-4.9,9.8l10.4,3.4l2.9,1L402.8,245.8z"/>
	</g>
</g>
</svg>
