<svg xmlns="http://www.w3.org/2000/svg" width="512" height="512"><g fill="#fff"><path d="M316.771 333.002c16.041 16.901 22.409 69.563-52.323 83.973-11.106 2.143 0 12.172 62.567 12.168 82.01 0 96.127-13.638 70.765-17.457-8.049-1.093-54.233-5.293-51.714-20.517 7.365-44.536-9.913-59.933-27.396-62.945l-1.166 3.165c-.212.559-.462 1.095-.733 1.613zM211.23 148.674c17.655 8.789 39.091 1.607 47.88-16.048 8.786-17.655 1.602-39.088-16.056-47.876-17.651-8.789-39.088-1.6-47.873 16.052-8.788 17.651-1.603 39.091 16.049 47.872zM193.889 163.732l.031.007.176.024c.405.067.8.166 1.191.265 7.964 1.998 13.187 9.828 11.791 18.053-.617 3.594-2.403 6.713-4.919 9.025-.723.666-1.501 1.261-2.34 1.779l4.384 1.625.06-.049c2.492-2.051 5.92-2.696 9.071-1.536.719.275 1.378.641 2.002 1.071l.482.317c1.826 1.431 3.031 3.514 3.411 5.762l38.151 14.117c2.496-2.09 5.961-2.752 9.14-1.579.898.334 1.729.8 2.48 1.388 1.829 1.427 3.034 3.503 3.418 5.754l19.541 7.235c-.015-6.42-4.878-11.921-11.396-12.591-24.557-2.593-39.509-14.388-49.281-25.979-4.821-5.786-8.154-11.488-10.23-15.646-1.036-2.075-1.759-3.763-2.196-4.87-.226-.553-.374-.962-.461-1.201l-.081-.226c-.987-3.031-3.013-5.424-5.55-6.942-1.304-1.36-2.794-2.53-4.521-3.422-9.712-5.025-24.587-4.503-36.896 5.935l1.061-.014c9.915.014 18.326 1.191 21.481 1.698zM179.849 194.066c-2.217-.162-4.757-.289-7.421-.289-4.275 0-8.147.332-11.03.931-1.356.257-2.449.603-3.231.902.434 1.413 1.356 3.683 3.161 6.639 1.684 2.812 4.57 6.992 9.409 12.633l5.836-15.766c.728-1.97 1.87-3.668 3.276-5.05zM135.997 422.659c20.527-18.66 34.405-37.175 43.112-55.083 5.793-11.869 9.243-23.445 10.9-34.334 2.925 4.623 5.617 9.423 7.939 14.328 5.793 12.21 9.292 24.911 9.285 37.618-.007 6.607-.923 13.265-3.03 20.146-3.21 10.477 2.678 21.574 13.151 24.787 1.938.593 3.897.878 5.825.878 8.489 0 16.344-5.49 18.966-14.029h-.003c3.298-10.733 4.775-21.446 4.771-31.782-.007-20.326-5.617-39.038-13.486-55.396-2.033-4.215-4.225-8.278-6.519-12.207-.652-.296-1.272-.642-1.833-1.082-1.829-1.431-3.034-3.506-3.415-5.762l-38.15-14.117c-2.495 2.09-5.959 2.753-9.134 1.575-.902-.331-1.737-.796-2.488-1.385-1.029-.807-1.833-1.829-2.431-2.964-.462-.874-.811-1.811-.977-2.787l-9.772-3.619c-1.353-.5-2.615-1.202-3.742-2.086-4.786-3.743-6.583-10.086-4.476-15.784l8.003-21.623c-.8-.571-1.564-1.208-2.266-1.931l-.543-.571c-7.14-7.407-12.87-14.152-17.331-20.418-2.421 9.409-4.183 19.653-5.604 31.712-.542 13.148 3.394 21.331 9.247 26.624 1.019 1.67 2.149 3.704 3.256 6.064 3.256 6.929 6.293 16.433 6.293 27.85-.024 9.417-1.98 20.26-8.123 32.939-6.156 12.654-16.651 27.184-34.123 43.08-8.108 7.368-8.704 19.921-1.332 28.026 7.376 8.11 19.925 8.705 28.03 1.333zM236.289 294.281c16.045 5.906 33.822-2.267 39.777-18.286 5.913-16.045-2.259-33.819-18.284-39.782-16.044-5.902-33.816 2.263-39.782 18.293-5.907 16.037 2.265 33.812 18.289 39.775zm1.254-3.386c-.377-.142-.744-.289-1.11-.447l7.802-18.551.292.127c2.611.966 5.42.324 7.354-1.427l13.512 14.902c-7.319 6.611-17.955 9.039-27.85 5.396zm17.853-51.68c.377.116.754.247 1.131.384 9.886 3.679 16.384 12.447 17.625 22.229l-19.958 2.516c-.328-2.587-2.037-4.901-4.655-5.871l-.303-.095 6.16-19.163zm-6.798 21.8c2.34.863 3.538 3.461 2.668 5.801-.863 2.336-3.457 3.53-5.797 2.664-2.34-.863-3.535-3.461-2.671-5.797.867-2.344 3.467-3.536 5.8-2.668zm-27.212-5.258c1.889-5.067 5.117-9.247 9.127-12.281l12.158 16.02c-1.057.803-1.914 1.902-2.41 3.245-.497 1.339-.564 2.731-.286 4.031l-19.653 4.247c-1.072-4.919-.804-10.188 1.064-15.262zM188.761 195.06l-.205-.035-.913-.134c-.737-.106-1.812-.247-3.112-.395-2.224 1.198-4.039 3.165-4.986 5.72l-6.431 17.38c1.748 1.956 3.697 4.056 5.899 6.322 6.093 6.276 5.941 16.341-.342 22.437-2.978 2.893-6.9 4.482-11.051 4.482l-.306-.01c-2.111-.042-4.145-.483-6.019-1.301l-7.823 21.151c-2.058 5.557.779 11.734 6.336 13.789l11.756 4.352c-.232 1.953.515 3.888 1.945 5.191.561.515 1.212.934 1.966 1.216 2.686.993 5.614-.043 7.143-2.319l37.478 13.871 4.645 1.723c-.317 2.721 1.23 5.413 3.915 6.41 2.685.994 5.614-.046 7.143-2.318l42.127 15.59c-.32 2.724 1.227 5.412 3.912 6.41 2.686.99 5.613-.046 7.143-2.319l11.753 4.353c5.398 1.998 11.361-.631 13.592-5.867l.197-.473.923-2.488 25.158-67.97c2.062-5.564-.782-11.735-6.34-13.793l-11.752-4.352c.316-2.724-1.227-5.417-3.912-6.41-2.688-.99-5.617.042-7.146 2.319l-19.914-7.372-22.208-8.218c.321-2.728-1.229-5.417-3.915-6.41s-5.61.042-7.142 2.319l-42.125-15.594c.247-2.097-.627-4.169-2.263-5.469-.486-.384-1.036-.712-1.652-.941-2.203-.814-4.55-.247-6.174 1.227-.356.328-.69.68-.969 1.092l-9.451-3.499c-1.339.366-2.749.56-4.197.56-.893-.001-1.795-.079-2.683-.227zm70.81 36.315c4.636 1.716 8.71 4.282 12.11 7.46 10.321 9.638 14.435 24.876 9.229 38.95-6.932 18.705-27.704 28.259-46.413 21.334-18.705-6.925-28.262-27.698-21.337-46.407 4.845-13.088 16.471-21.687 29.418-23.308 5.562-.694 11.369-.109 16.993 1.971zM159.646 244.836c.86.698 1.787 1.258 2.756 1.695 1.656.747 3.436 1.131 5.223 1.131 3.182 0 6.371-1.188 8.838-3.583 5.036-4.884 5.152-12.919.271-17.951-1.751-1.801-3.344-3.513-4.86-5.18-.832-.913-1.628-1.804-2.393-2.678-4.969-5.681-8.545-10.505-10.861-14.364-3.39-5.54-4.01-8.993-3.95-9.853l.003-.169.042-.035c.437-.444 2.682-1.607 6.037-2.249 3.323-.69 7.559-1.001 11.675-.994 4.289 0 8.439.31 11.551.638l.405.042c1.572.169 2.854.338 3.711.461l.958.141.236.042c2.234.381 4.426.148 6.414-.567 1.822-.659 3.475-1.716 4.821-3.097 1.734-1.78 2.971-4.081 3.425-6.713 1.152-6.762-3.273-13.172-9.931-14.554l-.451-.106h-.003c-.419-.06-9.73-1.67-21.137-1.685-1.473.011-2.989.049-4.521.113-6.628.265-13.722 1.142-20.689 3.887-4.267 1.727-8.669 4.317-12.242 8.612-3.598 4.24-5.779 10.283-5.705 16.231.063 7.731 2.865 15.047 7.601 22.973.79 1.308 1.66 2.646 2.576 3.993 4.627 6.851 10.84 14.308 19.061 22.793.364.371.744.709 1.139 1.026z"/></g></svg>