<svg xmlns="http://www.w3.org/2000/svg" width="512" height="512"><g fill="#fff"><path d="M207.25 219.772c-11.517 5.283-43.373 11.791-58.49 11.791-.773 0-1.518-.019-2.21-.051-3.718-.175-7.986-.62-12.378-1.197-.259.431-.518.861-.773 1.299-49.716 85.491-51.354 110.602-47.991 134.77 2.306 16.544 9.697 31.728 25.814 42.796 17.193 13.378 44.627 15.921 70.047 15.921 17.029 0 34.055-2.028 51.088-6.071 13.706-3.611 32.415-16.686 40.244-40.482 16.984-57.59-26.423-97.073-65.351-158.776zm-62.471 126.661c1.521-7.445 3.002-14.862 4.462-22.282 8.624.912 17.313 1.492 26.033 1.686-.295 8.007-.602 16.044-.923 24.121-.098 2.396 1.926 3.725 6.082 3.765h.04c3.991.021 5.943-1.27 5.881-3.655-.102-4.195-.189-8.361-.292-12.524-.058-2.645-1.426-5.271-3.94-7.935-2.448-2.598-10.678-9.39-21.454-19.889-5.016-5.685-6.694-10.536-5.896-15.02.642-3.652 1.28-7.3 1.904-10.948 1.777-9.857 7.311-16.803 16.187-19.671.233-3.706.445-7.407.66-11.11 2.838-.27 5.673-.405 8.504-.401 2.616.004 5.228.124 7.851.373.201 3.699.409 7.4.624 11.113 7.942 2.842 12.838 9.08 14.253 17.828.879 5.677 1.777 11.354 2.711 17.029-7.391-.014-14.815-.021-22.243-.025-.142-6.365-.259-12.721-.379-19.047-.047-2.057-1.105-3.107-3.174-3.107-2.433.007-3.695 2.018-3.809 5.997.08 2.226.168 4.454.263 6.69-.08 3.787 2.353 8.333 8.121 13.597 11.707 10.291 20.645 16.325 23.782 19.2 3.203 2.911 5.29 6.169 6.06 9.988.821 4.159 1.66 8.321 2.514 12.487 2.236 10.226-4.312 18.938-20.889 22.914.307 3.965.613 7.938.912 11.929-5.436.577-10.89.872-16.358.883-5.961.015-11.922-.32-17.861-.981.317-4.082.649-8.153.959-12.217-16.013-4.459-22.42-12.343-20.585-20.788zm38.951 66.483c-15.056 0-30.111-1.788-45.163-5.363-5.771-1.521-11.481-4.601-16.756-8.7-2.634-2.055-5.162-4.36-7.53-6.862-9.31-9.475-14.235-21.097-15.96-33.398-.573-4.104-.788-8.277-.649-12.451.117-22.253 11.82-41.274 19.952-61.886 2.178-4.01 4.345-7.938 6.508-11.766-8.785 23.596-19.025 48.473-20.353 75.505.081 3.611.394 7.172.992 10.642 1.788 10.415 6.14 20.031 14.472 27.802 2.338 2.4 4.939 4.611 7.803 6.625 20.039 14.147 53.029 19.014 101.826 14.49-15.045 3.574-30.086 5.362-45.142 5.362zM221.331 157.536c-.025-3.915-2.688-7.475-6.818-9.113-24.252-9.62-40.56-9.981-46.258-16.814 4.746-.193 9.573-.234 14.348-.121 6.041.146 11.575-3.389 13.979-8.931 1.831-4.221 3.837-8.755 6.023-13.633 12.757-28.528-23.315-22.188-27.208-19.47-7.687-1.795-33.843.127-24.898 19.619 2.273 5.191 4.356 9.97 6.253 14.403-21.991-.562-28.039 18.872-46.006 27.098-12.841 5.881-23.519 5.808-29.746 5.968v57.271h22.917s27.405 6.06 43.15 6.807c13.228.606 48.188-6.683 56.505-11.181 1.718-.927 3.101-2.204 4.064-3.743 11.141-17.706 13.695-29.27 13.695-48.16zM396.204 151.539c.788.361-44.193-36.809-54.736-36.692-1.846.022-3.531 1.04-4.406 2.663-.876 1.62-.803 3.597.197 5.147 4.728 7.358 15.891 19.236 14.548 20.218-4.436 3.229-23.537.792-40.1 1.094-18.401.336-22.144-.565-40.866 10.043-5.355 3.889-10.28 9.226-12.084 15.643-1.656 5.902-.945 11.987 4.934 15.128l54.831 20.272c34.525 10.083 51.643 11.058 89.561 4.677l22.917 5.05v-55.59s-30.411-5.647-34.796-7.653z"/></g></svg>