<?xml version="1.0" encoding="utf-8"?>
<!-- Generator: Adobe Illustrator 18.0.0, SVG Export Plug-In . SVG Version: 6.00 Build 0)  -->
<!DOCTYPE svg PUBLIC "-//W3C//DTD SVG 1.1//EN" "http://www.w3.org/Graphics/SVG/1.1/DTD/svg11.dtd">
<svg version="1.1" id="Capa_1" xmlns="http://www.w3.org/2000/svg" xmlns:xlink="http://www.w3.org/1999/xlink" x="0px" y="0px"
	 viewBox="0 0 512 512" enable-background="new 0 0 512 512" xml:space="preserve">
<g>
	<rect x="229" y="58.9" fill="#FFFFFF" width="57.2" height="393"/>
	<g>
		<path fill-rule="evenodd" clip-rule="evenodd" fill="#FFFFFF" d="M176.1,250.5c-0.5-3.4-0.9-6.9-0.9-10.1
			c0.1-4.8,1.4-9.3,0.9-13.9c-0.5-4.5-2.9-10.2-5.4-12.5c-3.6-3.4-12.6-5-15.2-9.2c-0.5-0.9-0.5-2.1-0.9-3.1
			c-1.2-2.8-3.3-5.6-4.5-8.1c-2.7-1.8-5.6-2.6-8.9-3.8c-0.2-0.1-0.3-0.1-0.5-0.2V58.9H83.5v128.1c-0.3,0-0.6,0.1-0.9,0.1
			c-10.4,0.7-23.4-0.2-30.2,4c-6.7,4.1-9.5,13.4-7.2,23c0.7,3,1.8,6.5,1.3,9.8c-0.5,3.6-2.9,5.7-4.5,8.3c-1.1,1.8-2.3,4-2.9,6.3
			c-1.5,6.2,1.1,13.4,4.5,17c2.9,3.1,6.5,4.3,7.8,8.1c1.2,3.4-0.2,6.6-0.4,9.6c-0.4,4.3,0,8.4,1.8,11.6c1.6,2.9,5,4.3,6.7,8.1
			c2,4.3,0.8,9.9,3.4,14.5c0.2,0.4,0.8,1.1,1.1,1.6c1.3,1.5,3.4,2,5.1,3.8c1.3,1.3,2,3.3,2.9,4.9c2.8,4.7,6.1,9.9,10.7,13
			c0.2,0.1,0.4,0.3,0.7,0.4v120.8h57.2V320.4c0.9-0.3,1.9-0.6,2.7-0.9c4.9-2,8.6-6.3,11.9-10.1c1.3-1.5,3.4-3.6,4-5.6
			c0.9-2.7,0.6-6,0-8.3c-0.5-2-2.1-3.6-2.5-5.6c-0.5-3.4,0.4-5.8,2.2-8.5c10.5,1.1,19.7-2,20.1-11.4
			C179.6,263.8,177.1,256.9,176.1,250.5z M158.3,270c-0.2,1.5-0.9,3.2-1.1,4.7c-0.1,1,0.2,1.9,0,2.7c-1,4.9-4.7,9.2-10.5,9.8
			c-0.3,0-0.7,0-1,0c-0.6,0-1.1,0-1.7,0c-0.2,0-0.4,0-0.6,0c-5,0.2-10,1.5-15,1.8c-15.5,0.9-29.5-2.9-41.2-7.2
			c-1.8,4.5,6.2,4.1,8.5,5.8c-1.4,0.4-3.9-0.2-5.6-0.2c0.7,1.5,2,0.9,3.8,1.1c-0.3,0.6-2,0.5-1.3,1.3c2.7-0.2,4.2-1.5,7.8-0.9
			c3.9,0.6,7.8,2,12.3,2.5c2.4,0.2,5.2,0.3,7.6,0.4c7,0.3,14.1-1.5,20.5-1.8v0c0.6,0,1.2,0,1.9,0c0,0,0.1,0,0.1,0c0.1,0,0.1,0,0.2,0
			c7.9,0.1,13.7,3.3,12.5,12.5c-0.4,2.9-2.9,5.3-5.1,7.2c-1.4,1.2-2.2,2.8-2.9,3.4c-3.3,2.5-8.9,4.4-14.1,5.1
			c-10.9,1.6-24.5,1.1-36-0.2c-1.7-0.2-3.7-1.2-5.1,0c2.3,1.2,5.2,1.2,7.8,1.6c4.1,0.5,7.7,1.2,12.7,1.3c-4.5,2.2-12.6,1.2-17.4,1.3
			c2.3,1.8,6.2,1.6,9.6,1.8c4.2,0.3,9.4-0.7,13.2-1.6c-5.2,3.7-13.1,2.4-20.1,2c2.6,1.8,7.9,2,12.7,2.2c-3.9,2.3-10.1,0.3-14.1,0.2
			c-0.4,1.4,2,1.4,3.1,1.6c2.1,0.4,4.1,0.8,7.2,0.7c-6.6,1.9-13.7-0.5-18.1-2.2c2.2,2.2,7.2,3.5,11.9,4c-7.6,0.5-12.9-1.8-17-5.4
			v0.2c-3.7-3.2-6.4-7.4-8.9-11.5c0.1,0,0.2,0.1,0.3,0.2c0-0.1-0.1-0.1-0.1-0.2c1,0.3,1.7,1.6,2.7,1.7c0.1,0,0.3,0,0.4-0.1
			c-0.6-2.4-4.5-3.4-6-5.6c0.2,0,0.5,0,0.7,0c1.5,0,2.9,1.4,4.6,1.7c-2.7-3.4-7-2.9-9.6-5.1c-1.8-1.5-3.4-5-3.8-8.3
			c-0.4-3.7,0.2-7-2-9.4c0.2-0.1,0.4-0.2,0.6-0.1c0.8-0.2,1.3,1,2.3,1c0.1-2.2-2.8-1.5-3.8-2.7c-0.6,0-0.4-0.3,0-0.2c0,0,0,0,0,0
			c0.1,0,0.1,0,0.2,0c2.1,0.7,4.1,1,6.2,1.1c1.2,0,2.5-0.1,3.9-0.4c-0.6-0.6-1.4-0.8-2.2-0.8c-0.6,0-1.3,0.1-1.9,0.1
			c-0.2,0-0.4,0-0.6,0c-2.6-0.2-6.5-0.8-8.3-2c-2.9-2.1-4.6-7.7-3.6-11.9c1-4,5.4-5.6,7.3-8.4c-1.5,0.4-3.3,2-4.8,2.8
			c0,0,0-0.1,0-0.2c-0.1,0.1-0.2,0.1-0.3,0.2c0.3-1.3,0.9-4,0.1-5.4c-0.7,1.3-0.5,3.4-1,4.9c0-0.2-0.1-0.4-0.1-0.5
			c0,0.2-0.1,0.4-0.1,0.5c-0.7-3.2-1.1-8-3.8-9.8c0.2-0.1,0.3-0.1,0.4,0c0.9-0.1,1.4,1.4,2.4,1.7c-0.9-3.7-5.5-4.6-8.3-7.1
			c-2.3-2-5-6.2-4.2-11.4c1-7,6.5-9.8,9.6-15.2c-0.1-0.1-0.2-0.1-0.3-0.1c-0.8,0.2-1.5,1.8-2.1,1.6c-0.1,0-0.2,0-0.3,0
			c1.8-3.1,2.8-6.3,2.2-10.7c-0.5-3.6-3.2-6.2-2.9-11c0.2-3.4,1.5-8.3,4.3-10.3c1.8-1.3,4.8-1.4,7.4-2c2.6-0.6,5.2-1.6,7.6-1.8
			c0.3,0,0.6,0,0.9,0c0.3,0,0.5,0,0.8,0c0.2,0,0.3,0,0.5,0c4,0,8.1,0.9,12.1,1.1c0.5,0,0.9,0,1.4,0.1v0c1.2,0,2.4,0,3.6-0.2
			c-0.2-1.2-1.8-0.9-3.1-0.9c6.2-2.5,14.2-1.3,20.8-0.9c-0.5-1.6-2.4-1.7-4.5-1.8c2.3-1.2,9.8-0.7,14.1-0.4
			c8.4,0.4,17.9,1.6,24.6,4.7c2.6,1.2,5.4,1.8,6.9,2.9c1.4,1,4.5,3.8,4.7,5.6c0.3,2.1-1.5,4.4-2,6c-1,3.1-0.9,6.4-2.2,8.3
			c-1.3,1.9-6.7,4.5-9.4,4.9c-2.4,0.4-5-0.3-7.6-0.2c-10.6,0.3-22.1,1-33.1,0.2c-4-0.3-8.1-1.4-11.9-2.5c-0.3-0.1-0.6-0.2-0.9-0.3
			v0.1c-3.1-1-5.9-2.7-8.7-2.8c-0.4,0-0.8,0-1.1,0.1c2.9,3,9.6,4.1,14.8,5.6c-3.7,0.8-8.7,1.9-11.9,4c0.2,0.1,0.5,0.1,0.7,0.1
			c2-0.1,3.9-1.6,6.2-2.2v0.1c0.7-0.2,1.5-0.4,2.3-0.4c-3.8,1.4-7.9,2.4-10.1,5.4c0.1,0,0.2,0,0.3,0c0.9-0.1,1.7-0.9,2.6-1.4
			c1.4-0.7,3.1-1.6,4.9-2.3v0.1c1.6-0.6,3.2-1.1,4.9-1.4c6.9-1.1,13.1,1.4,21.2,1.3c2.9,0,6.8,0.4,10.3,0.4c7.7,0,19.9-2.4,25.1,0.9
			c1.1,0.7,4.3,4.8,4.9,6c0.5,1.2,1.1,4.3,1.3,6c0.3,2.5,0.4,7.4-0.4,9.8c-0.4,1.2-2.3,4-3.6,4.9c-1.1,0.8-3.2,1.2-4.9,1.8
			c-6.6,2.3-15.2,3.8-24.4,4.3c-6.4,0.3-13.8,0.4-19.2-0.4c-5.5-0.8-10.5-2.3-15.2-3.5v0.1c-2-0.5-4-0.9-6-1.2
			c-0.4,3,2.7,2.6,4.9,3.1c3,0.7,7.2,2.7,10.7,2.9c-3.4,0.5-7.6,0.3-10.1,1.8c2.9,0.1,7.5-0.9,10.3-0.9c0.2,0,0.4,0,0.6,0
			c0.4-0.1,0.8-0.1,1.1-0.1c0,0,0,0,0.1,0c0.1,0,0.2,0,0.3,0c-0.1,0-0.2,0-0.3,0c0,0,0,0-0.1,0c-0.3,0-0.6,0.1-1.1,0.1
			c-2.2,0.3-6,1.6-7.1,2c2.4,0.5,4.9-0.7,7.2-0.9c8.8-0.7,17.8,0.9,27.5,0c6-0.6,13-1.8,19.2-3.3v-0.1c1.1-0.3,2.2-0.6,3.2-0.9
			c2.2-0.6,4.8-1.7,6.6-1.6c0.3,0,0.6,0,0.9,0.1c0.7,0.2,3.9,3.2,4.5,4C157.7,262,158.7,265.1,158.3,270z M157.6,255.2
			c0.6-1,0.6-2.5,0.9-3.8c-1.4,0.1-1.3,1.7-1.6,2.9c-2.1-1.2,0.4-4.1,0-5.6c-0.8,0.7-1,2-1.3,3.1c-2.2-3.3,0.2-7,2.2-8.7
			c-1.5,0.4-2.2,1.7-3.1,2.7c-0.7-1.6,0.3-5.6,0-8.7c-0.1-1-0.6-2.1-0.4-2.9c0.5-2.1,2.4-2,4.2-2.5c0.5-0.9-0.3-2.9-1.1-2.5
			c-0.7,0.4,0.4,1,0.2,1.6c-1.3-0.6-2.5,0.5-3.8,0.7c1-2.5,2.2-5.5,5.1-7.2c-2.9-0.8-5.5,2.4-6.5,4.9c-1.8-5.7,1.5-11.4,4.5-14.5
			c-2.3-2.5-5,1.5-6,3.1c0.1-2.3,2.7-4.2,3.6-6.5c4.9,1.5,10.2,2.6,14.1,5.1c3,4.4,4.8,10.2,3.8,17.7c-0.5,4-4.3,6.6-3.6,11.2
			c1.1-2.1,1.5-4.9,2.7-6.9c0,2.7,0.4,6.4,0.9,9.2c-7.5-4.6-12.9,4.5-11.6,12.7C159.6,258.7,158.6,257,157.6,255.2z M161.6,271.8
			c0.4,1.9,1.9,3.8,1.8,5.6C160.9,277,161,274.2,161.6,271.8z M173.4,274.5c-1.6,1.5-4.8,1.9-7.2,2.2c-3.1-2.8-4-11.3-4-18.1
			c0-3.8,1-8.5,3.1-9.6c2.4-1.2,5.9,0.2,7.2,2.2C172.6,256.6,178.4,270.1,173.4,274.5z"/>
		<path fill-rule="evenodd" clip-rule="evenodd" fill="#FFFFFF" d="M83.5,288.4c0.1-0.1,0.2-0.2,0.2-0.3c-0.1,0-0.2,0-0.2,0V288.4z"
			/>
	</g>
	<g>
		<path fill-rule="evenodd" clip-rule="evenodd" fill="#FFFFFF" d="M330.6,270c0.5,9.4,9.7,12.5,20.1,11.4c1.9,2.7,2.8,5.1,2.2,8.5
			c-0.3,2-1.9,3.6-2.5,5.6c-0.6,2.3-0.9,5.5,0,8.3c0.6,2,2.7,4.1,4,5.6c3.2,3.8,6.9,8.1,11.9,10.1c0.9,0.4,1.8,0.7,2.7,0.9v131.5
			h57.2V331c0.2-0.1,0.5-0.2,0.7-0.4c4.7-3,8-8.3,10.7-13c0.9-1.6,1.6-3.6,2.9-4.9c1.8-1.8,3.9-2.3,5.1-3.8c0.4-0.4,0.9-1.1,1.1-1.6
			c2.6-4.6,1.4-10.2,3.4-14.5c1.7-3.8,5.1-5.2,6.7-8.1c1.8-3.3,2.1-7.3,1.8-11.6c-0.2-3-1.7-6.2-0.4-9.6c1.3-3.8,5-5,7.8-8.1
			c3.4-3.6,6-10.8,4.5-17c-0.6-2.3-1.8-4.5-2.9-6.3c-1.6-2.6-3.9-4.7-4.5-8.3c-0.5-3.3,0.6-6.8,1.3-9.8c2.4-9.6-0.4-18.9-7.2-23
			c-6.8-4.2-19.8-3.3-30.2-4c-0.3,0-0.6-0.1-0.9-0.1V58.9h-57.2v130.9c-0.2,0.1-0.3,0.2-0.5,0.2c-3.4,1.2-6.2,2-8.9,3.8
			c-1.1,2.4-3.3,5.2-4.5,8.1c-0.4,1-0.4,2.2-0.9,3.1c-2.6,4.2-11.6,5.7-15.2,9.2c-2.4,2.3-4.9,8.1-5.4,12.5
			c-0.5,4.6,0.8,9.1,0.9,13.9c0,3.2-0.4,6.7-0.9,10.1C332.8,256.9,330.3,263.8,330.6,270z M354.1,259.5c0.6-0.8,3.8-3.8,4.5-4
			c0.3-0.1,0.5-0.1,0.9-0.1c1.7-0.1,4.3,1,6.6,1.6c1,0.3,2.1,0.6,3.2,0.9v0.1c6.1,1.5,13.1,2.8,19.2,3.3c9.7,0.9,18.8-0.7,27.5,0
			c2.2,0.2,4.8,1.3,7.2,0.9c-1-0.4-4.9-1.7-7.1-2c-0.5,0-0.8-0.1-1.1-0.1c0,0,0,0-0.1,0c-0.1,0-0.2,0-0.3,0c0.1,0,0.2,0,0.3,0
			c0,0,0,0,0.1,0c0.3,0,0.6,0,1.1,0.1c0.2,0,0.4,0,0.6,0c2.8,0,7.3,1,10.3,0.9c-2.5-1.5-6.6-1.3-10.1-1.8c3.5-0.2,7.8-2.2,10.7-2.9
			c2.2-0.5,5.3-0.1,4.9-3.1c-2,0.3-4,0.8-6,1.2v-0.1c-4.8,1.1-9.8,2.6-15.2,3.5c-5.4,0.8-12.9,0.7-19.2,0.4
			c-9.1-0.4-17.8-2-24.4-4.3c-1.7-0.6-3.8-1-4.9-1.8c-1.2-0.9-3.2-3.7-3.6-4.9c-0.8-2.4-0.7-7.4-0.4-9.8c0.2-1.8,0.8-4.9,1.3-6
			c0.6-1.3,3.8-5.3,4.9-6c5.1-3.2,17.4-0.9,25.1-0.9c3.5,0,7.4-0.5,10.3-0.4c8.1,0,14.3-2.5,21.2-1.3c1.7,0.3,3.4,0.8,4.9,1.4v-0.1
			c1.8,0.7,3.5,1.5,4.9,2.3c0.8,0.4,1.6,1.3,2.6,1.4c0.1,0,0.2,0,0.3,0c-2.2-3-6.3-4-10.1-5.4c0.8,0,1.5,0.2,2.3,0.4v-0.1
			c2.3,0.7,4.2,2.2,6.2,2.2c0.2,0,0.5,0,0.7-0.1c-3.1-2.1-8.1-3.2-11.9-4c5.1-1.5,11.9-2.6,14.8-5.6c-0.4-0.1-0.8-0.1-1.1-0.1
			c-2.8,0.1-5.6,1.8-8.7,2.8v-0.1c-0.3,0.1-0.6,0.2-0.9,0.3c-3.7,1-7.8,2.2-11.9,2.5c-11,0.7-22.5,0.1-33.1-0.2
			c-2.6-0.1-5.2,0.6-7.6,0.2c-2.7-0.4-8.1-3.1-9.4-4.9c-1.4-1.9-1.2-5.2-2.2-8.3c-0.5-1.6-2.3-3.9-2-6c0.2-1.8,3.2-4.6,4.7-5.6
			c1.6-1.1,4.4-1.7,6.9-2.9c6.7-3.1,16.2-4.3,24.6-4.7c4.3-0.2,11.8-0.7,14.1,0.4c-2,0-4,0.2-4.5,1.8c6.6-0.4,14.6-1.6,20.8,0.9
			c-1.3,0-3-0.3-3.1,0.9c1.2,0.2,2.4,0.2,3.6,0.2v0c0.5,0,0.9,0,1.4-0.1c4.1-0.2,8.1-1.2,12.1-1.1c0.2,0,0.3,0,0.5,0
			c0.3,0,0.5,0,0.8,0c0.3,0,0.6,0,0.9,0c2.5,0.2,5,1.2,7.6,1.8c2.6,0.6,5.6,0.7,7.4,2c2.7,1.9,4,6.9,4.3,10.3
			c0.3,4.8-2.4,7.4-2.9,11c-0.6,4.4,0.4,7.6,2.2,10.7c-0.1,0-0.2,0-0.3,0c-0.6,0.2-1.3-1.4-2.1-1.6c-0.1,0-0.2,0-0.3,0.1
			c3.1,5.4,8.7,8.2,9.6,15.2c0.7,5.2-2,9.4-4.2,11.4c-2.8,2.5-7.3,3.4-8.3,7.1c1-0.4,1.6-1.8,2.4-1.7c0.1,0,0.3,0,0.4,0
			c-2.7,1.8-3.1,6.7-3.8,9.8c-0.1-0.2-0.1-0.3-0.1-0.5c0,0.2-0.1,0.4-0.1,0.5c-0.5-1.5-0.3-3.6-1-4.9c-0.8,1.3-0.2,4.1,0.1,5.4
			c-0.1,0-0.2-0.1-0.3-0.2c0,0.1,0,0.1,0,0.2c-1.6-0.8-3.4-2.4-4.8-2.8c1.9,2.8,6.3,4.4,7.3,8.4c1,4.1-0.7,9.7-3.6,11.9
			c-1.7,1.3-5.6,1.8-8.3,2c-0.2,0-0.4,0-0.6,0c-0.6,0-1.3-0.1-1.9-0.1c-0.8,0-1.5,0.2-2.2,0.8c1.4,0.2,2.6,0.4,3.9,0.4
			c2.1,0,4.1-0.3,6.2-1.1c0.1,0,0.1,0,0.2,0c0,0,0,0,0,0c0.4-0.1,0.6,0.3,0,0.2c-1,1.2-3.9,0.4-3.8,2.7c1-0.1,1.5-1.2,2.3-1
			c0.2,0,0.4,0,0.6,0.1c-2.2,2.4-1.6,5.7-2,9.4c-0.4,3.3-2,6.7-3.8,8.3c-2.6,2.2-6.8,1.7-9.6,5.1c1.7-0.3,3.1-1.7,4.6-1.7
			c0.2,0,0.5,0,0.7,0c-1.6,2.2-5.4,3.2-6,5.6c0.1,0.1,0.3,0.1,0.4,0.1c1-0.1,1.7-1.4,2.7-1.7c0,0.1-0.1,0.1-0.1,0.2
			c0.1-0.1,0.2-0.1,0.3-0.2c-2.5,4.2-5.2,8.4-8.9,11.5v-0.2c-4.1,3.6-9.4,6-17,5.4c4.6-0.5,9.7-1.8,11.9-4
			c-4.4,1.8-11.5,4.2-18.1,2.2c3.1,0.2,5-0.3,7.2-0.7c1.1-0.2,3.6-0.1,3.1-1.6c-4,0.1-10.1,2-14.1-0.2c4.8-0.2,10.1-0.4,12.7-2.2
			c-7.1,0.4-14.9,1.7-20.1-2c3.7,0.8,9,1.9,13.2,1.6c3.4-0.2,7.3,0,9.6-1.8c-4.9-0.2-12.9,0.9-17.4-1.3c5-0.1,8.6-0.8,12.7-1.3
			c2.6-0.3,5.5-0.4,7.8-1.6c-1.4-1.2-3.5-0.2-5.1,0c-11.5,1.4-25.1,1.9-36,0.2c-5.2-0.8-10.8-2.6-14.1-5.1c-0.7-0.5-1.5-2.2-2.9-3.4
			c-2.3-1.9-4.8-4.2-5.1-7.2c-1.2-9.2,4.7-12.4,12.5-12.5c0.1,0,0.1,0,0.2,0c0,0,0.1,0,0.1,0c0.6,0,1.2,0,1.9,0v0
			c6.4,0.3,13.5,2.1,20.5,1.8c2.4-0.1,5.2-0.2,7.6-0.4c4.5-0.4,8.4-1.8,12.3-2.5c3.6-0.6,5.1,0.7,7.8,0.9c0.6-0.8-1.1-0.7-1.3-1.3
			c1.8-0.2,3.1,0.3,3.8-1.1c-1.7,0.1-4.2,0.6-5.6,0.2c2.3-1.8,10.3-1.3,8.5-5.8c-11.7,4.3-25.6,8-41.2,7.2c-5-0.3-10-1.6-15-1.8
			c-0.2,0-0.4,0-0.6,0c-0.6,0-1.2,0.1-1.7,0c-0.3,0-0.7,0-1,0c-5.8-0.7-9.5-4.9-10.5-9.8c-0.2-0.7,0.1-1.7,0-2.7
			c-0.2-1.5-1-3.2-1.1-4.7C351.1,265.1,352.2,262,354.1,259.5z M349.2,260.4c1.3-8.3-4.1-17.3-11.6-12.7c0.5-2.8,0.9-6.5,0.9-9.2
			c1.2,2,1.6,4.8,2.7,6.9c0.7-4.5-3-7.2-3.6-11.2c-1-7.5,0.8-13.2,3.8-17.7c3.9-2.5,9.2-3.6,14.1-5.1c0.9,2.3,3.5,4.1,3.6,6.5
			c-1-1.6-3.8-5.6-6-3.1c3,3.1,6.3,8.9,4.5,14.5c-1-2.5-3.6-5.8-6.5-4.9c2.9,1.7,4.1,4.6,5.1,7.2c-1.3-0.2-2.5-1.2-3.8-0.7
			c-0.1-0.6,0.9-1.1,0.2-1.6c-0.8-0.4-1.6,1.5-1.1,2.5c1.8,0.4,3.8,0.3,4.2,2.5c0.2,0.8-0.4,1.9-0.4,2.9c-0.3,3.2,0.7,7.1,0,8.7
			c-1-1-1.6-2.3-3.1-2.7c2,1.7,4.5,5.4,2.2,8.7c-0.4-1.1-0.6-2.4-1.3-3.1c-0.4,1.5,2.1,4.4,0,5.6c-0.3-1.2-0.2-2.8-1.6-2.9
			c0.3,1.3,0.3,2.8,0.9,3.8C351.3,257,350.2,258.7,349.2,260.4z M346.5,277.4c-0.2-1.7,1.4-3.6,1.8-5.6
			C348.8,274.2,348.9,277,346.5,277.4z M337.3,251.2c1.2-2.1,4.8-3.4,7.2-2.2c2.1,1.1,3.1,5.8,3.1,9.6c0,6.9-0.9,15.3-4,18.1
			c-2.4-0.4-5.5-0.8-7.2-2.2C331.5,270.1,337.3,256.6,337.3,251.2z"/>
		<path fill-rule="evenodd" clip-rule="evenodd" fill="#FFFFFF" d="M426.3,288.4c-0.1-0.1-0.2-0.2-0.2-0.3c0.1,0,0.2,0,0.2,0V288.4z
			"/>
	</g>
</g>
</svg>
