<svg xmlns="http://www.w3.org/2000/svg" width="512" height="512"><g fill="#fff"><path d="M277.52 319.075c-3.742 7.144-10.444 30.48-11.369 43.209-.922 12.732-39.062 51.717-35.884 56.639 3.174 4.923 36.819 12.077 78.819 12.077 15.97 0 32.836-1.878 47.271-4.113 21.284-3.297 34.944-3.826 37.274-7.379 2.326-3.552-36.444-85.175-35.172-99.585.869-9.853-71.337-19.179-80.939-.848zm-37.717 92.806s20.131-4.782 35.382-51.012c5.778-17.525.848 43.224-35.382 51.012zm78.431-81.871c-18.856-1.356-33.922-5.861-33.652-10.062.273-4.204 15.777-6.51 34.637-5.15 18.853 1.353 33.918 5.861 33.648 10.062s-15.776 6.505-34.633 5.15zM170.629 206.468c15.384 3.581 30.754-5.984 34.338-21.368 3.581-15.381-5.988-30.758-21.365-34.335-15.384-3.584-30.758 5.98-34.342 21.365-3.58 15.381 5.988 30.758 21.369 34.338zM122.984 415.251c17.097-14.056 28.4-28.876 35.267-43.308 6.885-14.42 9.257-28.315 9.243-40.102-.007-1.692-.056-3.339-.144-4.939 5.003 3.542 9.568 8.02 12.98 13.727 3.679 6.226 6.268 13.969 6.303 25.026 0 8.615-1.678 19.27-6.146 32.299-2.848 8.304 1.573 17.34 9.876 20.188 1.707.585 3.448.862 5.154.862 6.604.003 12.771-4.145 15.034-10.738 5.392-15.728 7.862-29.861 7.862-42.61.042-16.839-4.457-31.214-11.453-42.394-5.953-9.537-13.384-16.677-20.885-22.041l-4.092-.529c-4.015-.519-7.172-3.321-8.356-6.934-1.479-.735-2.933-1.419-4.337-2.042-1.16-.509-2.288-.971-3.395-1.412.024-1.595.077-3.195.161-4.8-6.797-3.396-12.36-7.613-16.617-12.641-8.577-10.06-9.796-21.241-9.761-27.015.049-7.298 1.727-14.817 4.727-21.176l.091-.192.024-.06.035-.07c1.5-2.967 4.043-5.133 7.053-6.208 1.356-.483 2.799-.771 4.295-.771 2.004 0 3.935.462 5.732 1.37 3.03 1.535 5.283 4.152 6.341 7.379 1.058 3.227.799 6.674-.732 9.705l-.165.389c-.15.357-.459 1.131-.788 2.193-.393 1.265-1.016 3.651-1.153 6.338-.021.364-.031.739-.031 1.114.052 4.334 1.17 7.505 3.745 10.584.27.319.561.634.862.946.357-1.92.725-3.791 1.089-5.638 2.046 2.369 4.271 4.779 6.685 7.186 1.727-4.113 6.037-6.754 10.665-6.155l15.804 2.036c-9.778-7.011-17.437-15.423-22.889-22.721-3.524-4.709-6.131-8.924-7.823-11.902-.848-1.489-1.465-2.67-1.86-3.447l-.42-.855-.084-.179v-.003c-.932-2.046-2.463-3.63-4.285-4.653-1.535-1.184-3.272-2.067-5.207-2.551-10.854-2.705-26.585 3.188-32.986 21.799-8.65 25.649-10.511 42.343-7.221 70.585 2.165 11.145 7.312 16.838 13.433 19.693.648 3.286 1.107 7.088 1.093 11.257-.011 7.659-1.451 16.54-6.152 26.431-4.72 9.877-12.774 20.906-26.768 32.437-6.779 5.577-7.75 15.595-2.176 22.37 5.579 6.776 15.596 7.75 22.372 2.172zM264.776 286.446c23.254 3.675 42.012 7.217 41.903 7.911-.108.693-19.046-1.724-42.299-5.399-15.083-2.386-28.271-4.712-35.646-6.243l-.89 6.888 1.009.13 6.454 4.691 6.447-2.516 5.599 4.067 6.446-2.516 5.599 4.068 6.447-2.516 5.599 4.067 6.446-2.516 5.599 4.067 6.446-2.516 5.596 4.071 6.45-2.519 5.595 4.071 7.438-2.905.385.05c3.89.501 7.264-.816 7.54-2.939l.267-2.099c-9.719-3.592-19.687-8.328-27.902-13.377l-3.528 1.377-5.599-4.067-6.45 2.516-5.596-4.068-6.446 2.516-5.599-4.067-6.446 2.516-5.599-4.067-6.446 2.516-5.599-4.068-7.435 2.901-1.006-.13-.648 5.042c7.484.82 20.762 2.674 35.869 5.063zM298.38 281.446c2.053 1.209 4.207 2.403 6.436 3.563 5.928 3.09 12.364 5.945 18.716 8.313.82.306 1.637.6 2.449.887 20.02 7.088 38.438 8.935 36.504-2.677-5.936-35.594 76.111-176.515 45.764-179.675-30.345-3.16-26.869-48.812-48.734-22.969-21.862 25.842-79.987 175.744-79.987 175.744 1.714 4.555 7.8 9.904 15.945 15.041.886.557 1.797 1.114 2.726 1.664l.181.109zm-7.936-21.273c-3.815-2.703 51.698-139.84 69.496-161.874 17.799-22.038-28.816 69.335-35.6 84.166-6.778 14.831-30.08 80.413-33.896 77.708zM318.868 317.855c-11.54-1.068-21.095.141-21.333 2.705-.238 2.568 8.927 5.515 20.472 6.587 11.544 1.075 21.099-.137 21.337-2.701.237-2.565-8.928-5.514-20.476-6.591zM179.496 260.884c-.087.33-.161.662-.207 1.006l-.213 1.664c1.779.788 3.721 1.518 5.83 2.187 1.773.561 3.661 1.079 5.669 1.549 4.758 1.106 8.261 4.778 9.407 9.211.498 1.923.561 3.99.081 6.054-1.353 5.788-6.443 9.827-12.378 9.827-.974 0-1.952-.115-2.897-.34-3.181-.735-6.191-1.594-9.053-2.558l-.018.147c-.319 2.48.599 4.831 2.267 6.446.855.831 1.906 1.465 3.097 1.822.396.119.802.217 1.226.27l33.624 4.334c4.18.536 8.002-2.41 8.538-6.59l.533-4.113.326-2.522.911-7.099.137-1.051.659-5.112.326-2.522.687-5.318c.536-4.18-2.414-8.002-6.59-8.542l-12.76-1.641-20.864-2.691c-3.835-.495-7.364 1.954-8.338 5.582zM185.368 289.571c.774.179 1.556.267 2.319.267 4.622 0 8.801-3.168 9.898-7.858.651-2.8.077-5.592-1.37-7.831-1.38-2.134-3.553-3.763-6.222-4.39l-.06-.015c-4.442-1.044-8.122-2.267-11.194-3.58-.848-.361-1.661-.729-2.417-1.104-3.048-1.51-5.371-3.107-7.151-4.685-.883-.777-1.633-1.55-2.267-2.3-3.381-4.043-4.292-8.037-4.337-12.21-.007-1.43.133-2.834.347-4.148.249-1.521.596-2.918.949-4.061.33-1.065.652-1.91.873-2.435l.238-.543c2.533-5.014.525-11.134-4.488-13.664-2.929-1.485-6.229-1.405-8.979-.091-1.955.935-3.63 2.491-4.684 4.572-.347.799-4.523 8.836-4.601 20.37-.045 7.624 2.155 17.138 9.155 25.354 3.731 4.404 8.646 8.279 14.837 11.506 2.292 1.191 4.754 2.298 7.407 3.304.799.301 1.615.596 2.445.883 2.898.995 5.988 1.889 9.302 2.659z"/></g></svg>