<?xml version="1.0" encoding="utf-8"?>
<!-- Generator: Adobe Illustrator 18.0.0, SVG Export Plug-In . SVG Version: 6.00 Build 0)  -->
<!DOCTYPE svg PUBLIC "-//W3C//DTD SVG 1.1//EN" "http://www.w3.org/Graphics/SVG/1.1/DTD/svg11.dtd">
<svg version="1.1" id="Capa_1" xmlns="http://www.w3.org/2000/svg" xmlns:xlink="http://www.w3.org/1999/xlink" x="0px" y="0px"
	 viewBox="0 0 512 512" enable-background="new 0 0 512 512" xml:space="preserve">
<g>
	<g>
		<path fill="#FFFFFF" d="M267.5,150.7c-18.8,0-34,15.2-34,34c0,18.8,15.2,34,34,34c18.8,0,34-15.2,34-34
			C301.5,165.9,286.3,150.7,267.5,150.7z M285.1,206c0,0-20.6-5.4-34.3,1.9C250.9,208,266.3,181,285.1,206z"/>
		<path fill="#FFFFFF" d="M173.5,134.2l-19.7,30.3c-3.2-1-6.7-0.7-9.8,1.1c-5.7,3.4-7.6,10.9-4.2,16.6c0.4,0.7,0.8,1.3,1.2,1.9
			L51.8,321.4l7.6,4.9l87-133.9c23.1,32.8,55.3,52.7,80.2,57.8v186.7c0,10.3,8.4,18.7,18.7,18.7c10.3,0,18.7-8.4,18.7-18.7v-82.8h7
			v82.8c0,10.3,8.4,18.7,18.7,18.7c10.3,0,18.7-8.4,18.7-18.7V263.7c6.8,14.1,12.8,42.4,9.7,95.5c-0.4,6.7,4.7,12.4,11.4,12.8
			c0.2,0,0.5,0,0.7,0c6.4,0,11.7-5,12.1-11.4c3.7-63.9-4.3-105.5-23.7-123.8c-8.5-8-16.8-9.3-21-9.4c-0.2,0-0.5,0-0.7,0h-58.4
			c-0.2,0-0.3,0-0.4,0c-18.4-0.5-53.7-18.3-77-57l20.2-31L173.5,134.2z"/>
	</g>
	<path fill="#FFFFFF" d="M180.3,139.4l111.4-36.2c17.2,11.6,41.7,22.7,30.6,57.5c-11.8,37.1,30.1,91.7,30.1,91.7
		c10.5,4.6,70.8,5.4,106.2-25.6c-51-28.3-33.8-55.2-29.7-77.1c3.7-19.7-28.8-69.8-35.4-79.7l18.7-6.1l-2.8-8.6l-231.7,75.4
		L180.3,139.4z"/>
	<g>
		<path fill="#FFFFFF" d="M185.6,147.2c-0.3,0.3-0.5,0.7-0.5,1.1c0,0.3,0.1,0.6,0.3,0.8l9.4,12.1c0.5,0.6,1.3,0.7,1.9,0.2
			c0.6-0.5,0.7-1.3,0.2-1.9l-9.4-12.1C187.1,146.9,186.2,146.8,185.6,147.2L185.6,147.2z M185.6,147.2"/>
		<path fill="#FFFFFF" d="M188.9,138.4c-0.7,0.1-1.1,0.7-1.1,1.4c0,0.1,0,0.2,0,0.3c0.1,0.7,0.9,1.2,1.6,1.1l13.4-2.5
			c0.7-0.1,1.2-0.9,1.1-1.6c-0.1-0.7-0.9-1.2-1.6-1.1L188.9,138.4z M188.9,138.4"/>
		<path fill="#FFFFFF" d="M178.7,148.1c-0.7-0.2-1.5,0.2-1.7,0.9l-4.1,13c0,0.1-0.1,0.3-0.1,0.4c0,0.6,0.4,1.1,1,1.3
			c0.7,0.2,1.5-0.2,1.7-0.9l4.1-13C179.8,149.1,179.4,148.4,178.7,148.1L178.7,148.1z M178.7,148.1"/>
		<path fill="#FFFFFF" d="M188.1,144.1c0,0.1,0,0.2,0,0.2c0,0.7,0.5,1.2,1.1,1.4l8.8,1.6c0.8,0.1,1.5-0.4,1.6-1.1
			c0.1-0.7-0.4-1.5-1.1-1.6l-8.8-1.6C188.9,142.8,188.2,143.3,188.1,144.1L188.1,144.1z M188.1,144.1"/>
		<path fill="#FFFFFF" d="M180.8,159.2C180.8,159.3,180.8,159.3,180.8,159.2c0,0.8,0.6,1.4,1.3,1.5c0.8,0.1,1.4-0.5,1.5-1.3l0.6-8.9
			c0.1-0.8-0.5-1.4-1.3-1.5c-0.8-0.1-1.4,0.5-1.5,1.3L180.8,159.2z M180.8,159.2"/>
		<path fill="#FFFFFF" d="M169.7,126.3c0.6-0.5,0.7-1.3,0.2-1.9l-9.4-12.1c-0.5-0.6-1.3-0.7-1.9-0.2c-0.4,0.3-0.5,0.7-0.5,1.1
			c0,0.3,0.1,0.6,0.3,0.8l9.4,12.1C168.3,126.7,169.2,126.8,169.7,126.3L169.7,126.3z M169.7,126.3"/>
		<path fill="#FFFFFF" d="M166.5,135.2c0.7-0.1,1.2-0.8,1.1-1.6c-0.1-0.7-0.9-1.2-1.6-1.1l-13.4,2.5c-0.7,0.1-1.1,0.7-1.1,1.3
			c0,0.1,0,0.2,0,0.3c0.1,0.7,0.9,1.2,1.6,1.1L166.5,135.2z M166.5,135.2"/>
		<path fill="#FFFFFF" d="M175.7,124.1c0,0.6,0.4,1.1,1,1.3c0.7,0.2,1.5-0.2,1.7-0.9l4.1-13c0.2-0.7-0.2-1.5-0.9-1.7
			c-0.7-0.2-1.5,0.2-1.7,0.9l-4.1,13C175.7,123.8,175.7,124,175.7,124.1L175.7,124.1z M175.7,124.1"/>
		<path fill="#FFFFFF" d="M167.3,129.5c0.1-0.7-0.4-1.5-1.1-1.6l-8.8-1.6c-0.8-0.1-1.5,0.4-1.6,1.1c0,0.1,0,0.2,0,0.2
			c0,0.6,0.5,1.2,1.1,1.3l8.8,1.6C166.5,130.7,167.2,130.3,167.3,129.5L167.3,129.5z M167.3,129.5"/>
		<path fill="#FFFFFF" d="M174.6,114.3c0.1-0.7-0.5-1.4-1.3-1.5c-0.8-0.1-1.4,0.5-1.5,1.3l-0.6,9c0,0,0,0.1,0,0.1
			c0,0.7,0.6,1.3,1.3,1.4c0.8,0.1,1.4-0.5,1.4-1.3L174.6,114.3z M174.6,114.3"/>
	</g>
</g>
</svg>
