<svg xmlns="http://www.w3.org/2000/svg" width="512" height="512"><path fill="#fff" d="M429.61 331.377l-40.39-8.247c-3.5-.716-7.114-.72-10.622-.022l-37.858 7.584c2.901-9.861 4.076-19.385 3.788-28.435-.341-2.019-.705-4.022-1.129-5.996-1.417-6.592-3.318-12.929-6.008-18.642-2.637-5.731-6.092-10.773-10.281-14.804-1.175-1.126-2.417-2.163-3.705-3.133l3.243-5.876 4.121-7.447 23.297-42.166 45.89-25.1c5.062-2.769 6.918-9.122 4.152-14.187-2.773-5.064-9.122-6.921-14.19-4.151l-24.01 13.137 9.781-28.57c1.871-5.462-1.038-11.406-6.5-13.277-5.463-1.872-11.402 1.038-13.274 6.5l-10.228 29.873-9.13-21.191c-2.28-5.303-8.432-7.758-13.728-5.47-5.304 2.284-7.751 8.432-5.471 13.736l17.403 40.416-22.896 41.431-.606 1.095-7.152 12.937-.478-.103c-3.007-.595-6.174-1.076-9.272-1.265-.652-.049-1.395-.095-2.137-.121-.75-.015-1.493-.023-2.235 0-1.492.03-2.985.163-4.492.307-3.008.326-6.023.958-9.047 1.792-3.651 1.026-7.28 2.424-10.872 4.087-2.349 1.091-4.682 2.292-6.99 3.591-3.917 2.209-7.759 4.697-11.562 7.406-1.882 1.341-3.765 2.716-5.629 4.175 1.224-2.812 2.765-5.481 4.493-8.035.299-.443.591-.891.901-1.322 2.091-2.962 4.447-5.75 7.012-8.383 2.674-2.735 5.618-5.27 8.797-7.542 2.933-2.091 6.062-3.963 9.402-5.546 6.979-3.33 14.759-5.235 22.949-5.266 4.637.057 9.318.515 13.955 1.496-15.729-11.629-35.056-18.482-54.597-18.861l-9.675-32.858 19.723-47.746c2.205-5.333-.333-11.448-5.669-13.652-5.333-2.201-11.447.337-13.652 5.671l-10.451 25.301-10.312-28.384c-1.97-5.425-7.966-8.221-13.395-6.254-5.424 1.97-8.224 7.966-6.254 13.391l10.785 29.68-20.405-10.775c-5.103-2.697-11.425-.743-14.122 4.364-2.693 5.103-.743 11.425 4.364 14.122l39.544 20.88 8.379 28.476c-33.942 7.993-64.709 38.029-73.68 99.427-.182 1.247-1.598 1.856-2.663 1.189l-19.74-12.334c-2.796-1.746-6.375-1.735-9.164.034l-2.989 1.897-21.736-15.447c-2.065-1.467-4.731-1.849-7.122-1.016-2.341.814-4.038 2.887-4.383 5.341l-4.928 35.359-2.11 1.337c-2.762 1.754-4.239 5.042-3.432 8.213 5.856 22.979 22.467 40.408 45.136 47.363 3.462 1.061 7.099 1.409 10.72 1.409h158.063c1.855 0 3.682-.398 5.349-1.141 1.742-.367 3.439-.917 5.076-1.644l124.402-55.33c1.548-.679 1.306-2.941-.354-3.278zm-290.371 30.468l-4.5 4.53c-1.057 1.062-2.769 1.068-3.83.012l-8.356-8.296-8.3 8.353c-1.053 1.061-2.766 1.068-3.826.016l-4.535-4.504c-1.061-1.054-1.068-2.766-.011-3.83l8.3-8.354-8.356-8.299c-1.061-1.054-1.064-2.766-.011-3.83l4.504-4.531c1.053-1.061 2.769-1.064 3.83-.011l8.353 8.296 8.296-8.354c1.053-1.061 2.77-1.067 3.83-.015l4.531 4.504c1.061 1.054 1.068 2.766.011 3.83l-8.296 8.353 8.356 8.3c1.059 1.053 1.063 2.769.01 3.83z"/></svg>