<?xml version="1.0" encoding="utf-8"?>
<!-- Generator: Adobe Illustrator 18.0.0, SVG Export Plug-In . SVG Version: 6.00 Build 0)  -->
<!DOCTYPE svg PUBLIC "-//W3C//DTD SVG 1.1//EN" "http://www.w3.org/Graphics/SVG/1.1/DTD/svg11.dtd">
<svg version="1.1" id="Capa_1" xmlns="http://www.w3.org/2000/svg" xmlns:xlink="http://www.w3.org/1999/xlink" x="0px" y="0px"
	 viewBox="0 0 512 512" enable-background="new 0 0 512 512" xml:space="preserve">
<g>
	<g>
		<path fill="#FFFFFF" d="M107.8,181.4c-2-2-4.3-3-7-3c-2.8,0-5.2,1-7.1,3c-2,2-3,4.3-3,7c0,2.8,1,5.2,3,7.1c2,2,4.4,3,7.1,3
			c2.7,0,5-1,7-3c2-2,3-4.4,3-7.1C110.7,185.7,109.8,183.3,107.8,181.4z"/>
	</g>
	<g>
		<path fill="#FFFFFF" d="M161.4,181.4c-2-2-4.3-3-7-3c-2.8,0-5.2,1-7.1,3c-2,2-3,4.3-3,7c0,2.8,1,5.2,3,7.1c2,2,4.4,3,7.1,3
			c2.7,0,5-1,7-3c2-2,3-4.4,3-7.1C164.3,185.7,163.3,183.3,161.4,181.4z"/>
	</g>
	<g>
		<path fill="#FFFFFF" d="M134.6,81.6c-2-2-4.3-3-7-3c-2.8,0-5.2,1-7.1,3c-2,2-3,4.3-3,7c0,2.8,1,5.2,3,7.1c2,2,4.4,3,7.1,3
			c2.7,0,5-1,7-3c2-2,3-4.4,3-7.1C137.5,85.9,136.5,83.6,134.6,81.6z"/>
	</g>
	<g>
		<path fill="#FFFFFF" d="M147.3,105.3c-2.4-2.1-6.3-3.1-11.7-3.1h-16.5c-5.4,0-9.3,1-11.8,3.1c-2.8,2.5-4.2,6.6-4.2,12.4v28
			c0,3.4,1.3,5.1,3.9,5.1c2.6,0,3.9-1.7,3.9-5.1v-21.8c0-1.9,0.7-2.8,2-2.8c1.3,0,2,0.9,2,2.8v73.5c0,3.7,1.8,5.6,5.3,5.6
			c3.8,0,5.8-1.8,5.8-5.4v-43.1c0-1.4,0.5-2.2,1.4-2.2c0.9,0,1.4,0.7,1.4,2.2v43.1c0,3.6,1.8,5.4,5.4,5.4c3.7,0,5.6-1.9,5.6-5.6
			v-73.5c0-1.9,0.7-2.8,2-2.8c1.2,0,1.9,0.9,1.9,2.8v21.8c0,3.4,1.3,5.1,3.9,5.1c2.7,0,4-1.7,4-5.1v-28
			C151.7,111.9,150.2,107.8,147.3,105.3z"/>
	</g>
	<g>
		<path fill="#FFFFFF" d="M398.6,141.5c-3.9-3.9-8.7-5.9-14.3-5.9c-5.4,0-10,2-14,5.9c-3.9,3.9-5.9,8.6-5.9,14
			c0,5.6,2,10.4,5.9,14.3c3.9,3.9,8.6,5.9,14,5.9c5.6,0,10.4-2,14.3-5.9c3.9-3.9,5.9-8.7,5.9-14.3
			C404.5,150.1,402.5,145.4,398.6,141.5z"/>
	</g>
	<g>
		<path fill="#FFFFFF" d="M467.3,357.1c-0.2-0.4-0.6-0.7-1-0.7h-56.9V226c0-3.7,1.3-5.6,4-5.6c2.7,0,4,1.9,4,5.6v43.5
			c0,6.8,2.6,10.3,7.8,10.3c5.2,0,7.8-3.4,7.8-10.3v-56c0-11.6-2.8-19.9-8.4-24.9c-5-4.1-12.8-6.2-23.6-6.2h-32.9
			c-10.8,0-18.5,2.1-23.3,6.2c-5.8,5-8.7,13.3-8.7,24.9v56c0,6.8,2.7,10.3,8.1,10.3c5.2,0,7.8-3.4,7.8-10.3V226
			c0-3.7,1.2-5.6,3.7-5.6c2.7,0,4,1.9,4,5.6v130.4h-56.9c-0.4,0-0.9,0.3-1,0.7c-0.2,0.4,0,0.9,0.3,1.2
			c12.5,10.4,26.9,18.3,42.2,23.3l-83.2-22.3l1.1-4.2c0.7-2.6-0.9-5.3-3.5-6c-2.6-0.7-5.3,0.9-6,3.5l-1.1,4.2l-119.3-32V319
			c28.3-1.1,55.7-11.5,77.5-29.6c0.3-0.3,0.5-0.8,0.3-1.2c-0.2-0.4-0.6-0.7-1-0.7h-15.7h-26.8v-63.9c0-1.9,0.7-2.8,2-2.8
			c1.2,0,1.9,0.9,1.9,2.8v21.8c0,3.4,1.3,5.1,3.9,5.1c2.7,0,4-1.7,4-5.1v-28c0-5.8-1.5-9.9-4.4-12.4c-2.4-2.1-6.3-3.1-11.7-3.1H146
			c-5.4,0-9.3,1-11.8,3.1c-2.8,2.5-4.2,6.6-4.2,12.4v28c0,3.4,1.3,5.1,3.9,5.1c2.6,0,3.9-1.7,3.9-5.1v-21.8c0-1.9,0.7-2.8,2-2.8
			c1.3,0,2,0.9,2,2.8v63.9h-28.7v-63.9c0-1.9,0.7-2.8,2-2.8c1.2,0,1.9,0.9,1.9,2.8v21.8c0,3.4,1.3,5.1,3.9,5.1c2.7,0,4-1.7,4-5.1
			v-28c0-5.8-1.5-9.9-4.4-12.4c-2.4-2.1-6.3-3.1-11.7-3.1H92.4c-5.4,0-9.3,1-11.8,3.1c-2.8,2.5-4.2,6.6-4.2,12.4v28
			c0,3.4,1.3,5.1,3.9,5.1c2.6,0,3.9-1.7,3.9-5.1v-21.8c0-1.9,0.7-2.8,2-2.8c1.3,0,2,0.9,2,2.8v63.9H61.4H45.7c-0.4,0-0.9,0.3-1,0.7
			c-0.2,0.4,0,0.9,0.3,1.2c21.8,18.1,49.2,28.5,77.5,29.6v18.4c0,2.7,2.2,4.9,4.9,4.9c2.6,0,4.8-2.1,4.9-4.7l90,32.2
			c0,0,0.1,0,0.1,0l20.9,5.6c-27.5,3.9-48.7,27.6-48.7,56.1c0,0.9,0.7,1.6,1.6,1.6h110.1c0,0,0,0,0,0c0.9,0,1.6-0.7,1.6-1.6
			c0-0.1,0-0.2,0-0.2c-0.1-18.4-9-34.8-22.7-45.1l94.2,17.1v2.9c0,2.7,2.2,4.9,4.9,4.9s4.9-2.2,4.9-4.9v-18.4
			c28.3-1.1,55.7-11.5,77.5-29.6C467.3,358,467.5,357.5,467.3,357.1z M152.8,254.3c0-1.4,0.5-2.2,1.4-2.2c0.9,0,1.4,0.7,1.4,2.2
			v33.2h-2.8V254.3z M102,287.5h-2.8v-33.2c0-1.4,0.5-2.2,1.4-2.2c0.9,0,1.4,0.7,1.4,2.2V287.5z M379.6,391l-21.6-5.8
			c7.1,1.5,14.3,2.4,21.6,2.7V391z M387.4,356.4h-5.6v-69.1c0-2.9,0.9-4.4,2.8-4.4c1.9,0,2.8,1.5,2.8,4.4V356.4z"/>
	</g>
</g>
</svg>
