<?xml version="1.0" encoding="utf-8"?>
<!-- Generator: Adobe Illustrator 18.0.0, SVG Export Plug-In . SVG Version: 6.00 Build 0)  -->
<!DOCTYPE svg PUBLIC "-//W3C//DTD SVG 1.1//EN" "http://www.w3.org/Graphics/SVG/1.1/DTD/svg11.dtd">
<svg version="1.1" id="Capa_1" xmlns="http://www.w3.org/2000/svg" xmlns:xlink="http://www.w3.org/1999/xlink" x="0px" y="0px"
	 viewBox="0 0 512 512" enable-background="new 0 0 512 512" xml:space="preserve">
<g>
	<path fill="#FFFFFF" d="M126.6,147.6l-2-4.7c-4.7-11,0.5-23.8,11.5-28.5c2.7-1.2,5.6-1.7,8.5-1.7c2.6,0,5,0.5,7.4,1.3
		c2.6-12.5,0.3-26.1-7.6-37.5c-15.3-22.3-45.8-28-68.1-12.7c-22.3,15.3-28,45.8-12.7,68.1C77.8,152.5,105,158.8,126.6,147.6z"/>
	<path fill="#FFFFFF" d="M174.3,148.5l2.8-9.5c2.7-9.2,11.3-15.6,20.9-15.6c2.1,0,4.2,0.3,6.2,0.9c11.5,3.4,18.1,15.5,14.7,27.1
		L199.5,217c5.1,9.5,9.8,19.4,13.5,29.3c-6,4.2-12.6,9.4-19.3,15.9c-11.2,11-22.3,25.8-30.6,44.9c-7.3,16.8-12.2,36.9-13.3,60.1
		l18.4,3.3l-18.5,12.1c0.4,15.5,2.5,32.3,6.5,50.4c2.8,12.7,14.1,21.4,26.5,21.4c1.9,0,3.9-0.2,5.9-0.6c14.7-3.2,24-17.8,20.7-32.4
		c-3.7-17-5.3-31.8-5.3-44.6c0-7.7,0.5-14.6,1.5-20.9c2.1,14.4,7.1,29.3,15.9,43.4c12.5,20.2,32.4,38.1,60,52.2c4,2,8.2,3,12.4,3
		c9.9,0,19.4-5.4,24.3-14.8c6.8-13.4,1.5-29.8-11.9-36.6c-20.6-10.6-31.9-21.8-38.5-32.4c-6.6-10.6-9-21.3-9-32.8
		c0-4.6,0.4-9.4,1.2-14.1l-5.3-11l-13.1-5.8l17.4-20.3l11.7,4.1c3-6.3,6-11.5,8.1-15c1.1-1.8,2-3.2,2.6-4c0.3-0.4,0.5-0.7,0.6-0.9
		c0,0,0,0,0-0.1c1-1.4,1.8-2.8,2.5-4.3c-10.5-3.9-19.3-11.9-24.1-22.4c-4.7-10.4-5.1-22-1.1-32.7c3.3-8.6,9.1-15.8,16.7-20.7
		c-0.6-1.5-1.2-2.9-1.8-4.4c-3-1.9-6-4.1-8.9-6.6l-11.8-0.3l4.6-6.3c-5.8-5.6-11.5-11.9-17.4-18.4l-4-4.4
		c-19.2-21-38.2-39.8-60.5-39.8c-4.2,0-8.5,0.7-12.7,2.1c-1.6,1.9-3,3.9-4,6.2c2.2,2,4,4.6,5.3,7.4L174.3,148.5z"/>
	<path fill="#FFFFFF" d="M193.7,220.2c0.4-0.8,0.7-1.6,1-2.5l20-67.6c2.7-9.2-2.5-18.9-11.8-21.6c-9.2-2.7-18.9,2.5-21.6,11.8
		l-4.3,14.5l4.2,10l-2.7,4.8l-17.8-42c-3.8-8.9-14-13-22.8-9.2c-8.9,3.8-13,14-9.2,22.8l28.3,66.7l5,11.7c0.3,0.8,0.7,1.5,1.1,2.2
		c0.1,0.1,0.2,0.3,0.3,0.4c0.4,0.6,0.9,1.3,1.3,1.8c0.1,0.1,0.1,0.2,0.2,0.2c0.4,0.5,0.9,1,1.4,1.4c0.1,0.1,0.2,0.2,0.3,0.3
		c0.6,0.5,1.2,1,1.8,1.4c0.1,0,0.1,0.1,0.2,0.1c0.6,0.4,1.2,0.7,1.8,1c0.2,0.1,0.3,0.2,0.5,0.2c0.7,0.3,1.3,0.6,2.1,0.8
		c0,0,0,0,0.1,0l0,0c0,0,0.1,0,0.1,0c0.8,0.2,1.6,0.4,2.4,0.5c0.4,0.1,0.7,0.1,1.1,0.1c0.5,0,0.9,0.1,1.4,0.1c0.8,0,1.7-0.1,2.5-0.2
		c0.2,0,0.3,0,0.5-0.1c0.8-0.1,1.6-0.3,2.3-0.6c0.1,0,0.3-0.1,0.4-0.2c0.3-0.1,0.7-0.2,1-0.4c0.3-0.1,0.6-0.3,0.9-0.4
		c0.2-0.1,0.3-0.1,0.5-0.2c0.7-0.4,1.4-0.8,2-1.3c0.1-0.1,0.2-0.2,0.4-0.3c0.6-0.5,1.2-1,1.7-1.5c0.1-0.1,0.1-0.1,0.2-0.1
		c0.6-0.6,1.1-1.2,1.6-1.9c0.1-0.2,0.2-0.3,0.3-0.5c0.2-0.3,0.4-0.6,0.5-0.8c0.2-0.4,0.5-0.8,0.7-1.2
		C193.6,220.5,193.7,220.3,193.7,220.2z"/>
	<path fill="#FFFFFF" d="M284.3,186.2c4.8-1.8,9.9-2.8,15-2.8c2.9,0,5.8,0.3,8.6,0.9c5.7-3.4,11.6-9.1,17.8-17.6
		c11.3-15.9,16.6-30.4,17-43.3c-1.1-2.3-2-4.7-2.7-7.2c-1.6-5.3-2.4-10.8-2.3-16.2c-14.2-28-56.5-42.9-104.1-38.5
		c-33.3,3.1-70.4,19.6-73.2,47.2C213.6,89.4,247.8,172.2,284.3,186.2z M318.8,100.6C272,67.9,202.4,79.9,202.4,79.9
		S276.4,47.3,318.8,100.6z"/>
	<path fill="#FFFFFF" d="M393.7,243.1c-17-16.5-38.8-14.6-50.5-6c-10.8,7.9-9.9,24.4-1.3,36l6.6-20.3c2.2-6.8,8.4-11.3,15.5-11.3
		c1.7,0,3.4,0.3,5,0.8c4.1,1.3,7.5,4.2,9.5,8.1c2,3.9,2.3,8.3,1,12.5l-13.6,42c5.7,8.3,11,17.1,15,26.2c-2.4,1.8-4.9,3.7-7.4,5.8
		c-8.8,7.5-17.9,17-25,29.1c-7.1,12-12.1,26.9-12.1,43.6c0,11,2.1,22.7,6.7,34.6c2.8,7.4,9.8,11.9,17.3,11.9c2.2,0,4.4-0.4,6.6-1.2
		c9.5-3.7,14.3-14.4,10.7-23.9c-3.1-8.2-4.3-15.2-4.3-21.4c0-9.4,2.7-17.4,7-24.9c0.8-1.4,1.8-2.9,2.7-4.3
		c0.5,5.5,1.5,11.1,3.2,16.8l9.1-4.6l-6.7,11.7c1,2.6,2.2,5.2,3.6,7.7c7.1,13.4,18.5,26,34.7,36.6c3.1,2.1,6.6,3,10.1,3
		c6,0,11.9-2.9,15.5-8.4c5.6-8.5,3.2-20-5.3-25.6c-11.8-7.8-18.4-15.6-22.3-23c-3.9-7.4-5.4-14.8-5.4-22.3c0-8.5,2.1-17.1,4.6-24
		c9.9-6.3,17.4-16.1,13.3-33.8c-2.7-8.3-5.4-15.5-8.3-22.1l-15.3-4.4l9.5-7.3C416.4,267.5,407.2,256.3,393.7,243.1z"/>
	<path fill="#FFFFFF" d="M345.9,353l29.6-91.5c2-6.3-1.4-13-7.7-15.1c-6.3-2-13,1.4-15.1,7.7l-16.6,51.3l8.5,7.3l-11.9,3.1
		l-9.7,29.9c-2,6.3,1.4,13,7.7,15.1c1.2,0.4,2.5,0.6,3.7,0.6C339.5,361.3,344.2,358.1,345.9,353z"/>
	<path fill="#FFFFFF" d="M332.3,211.2c-8.2-18.2-29.7-26.3-47.9-18c-18.2,8.2-26.3,29.7-18,47.9c8.2,18.2,29.7,26.3,47.9,18
		C332.5,250.8,340.6,229.4,332.3,211.2z"/>
</g>
</svg>
