<svg xmlns="http://www.w3.org/2000/svg" width="512" height="512"><g fill="#fff"><path d="M99.929 209.664c-25.234 25.239-25.244 66.158 0 91.401 25.244 25.244 66.165 25.226 91.399-.009 25.244-25.248 25.248-66.144.004-91.392-25.243-25.244-66.15-25.244-91.403 0zm73.099 11.638c-.312 1.027-.733 2.094-1.24 3.229-.534 1.113-1.081 2.104-1.651 2.94-.57.837-1.008 1.208-1.321 1.117-1.461-.466-2.727-.918-3.817-1.334-1.085-.411-2.302-.764-3.659-1.04-1.348-.29-2.89-.521-4.582-.71-1.719-.172-3.827-.276-6.323-.276-3.736.005-6.712.375-8.956 1.126-2.239.742-3.972 1.886-5.225 3.424-1.239 1.551-2.067 3.514-2.487 5.894-.417 2.379-.633 3.144-.633 6.404v.986h18.079c1.665 0 2.877.082 3.668.28.778.186 1.167.796 1.167 1.818v4.433c0 1.221-.29 1.986-.859 2.32-.57.317-1.854.489-3.822.489h-18.232v10.32h18.079c1.665 0 2.877.095 3.668.275.778.186 1.167.846 1.167 1.968v4.424c0 1.221-.285 2.003-.859 2.32-.57.325-1.854.488-3.822.488h-18.232v3.013c.013 5.242 1.561 8.345 4.686 10.634 3.116 2.288 7.318 3.438 12.615 3.438 4.98 0 9.037-.57 12.163-1.692 3.099-1.112 5.374-1.908 6.857-2.379.398-.09.846.33 1.312 1.267.461.937.855 2.026 1.176 3.284.303 1.267.539 2.465.688 3.587.159 1.121.086 1.769-.23 1.958-1.76 1.031-4.731 1.986-8.879 2.877-4.152.891-8.879 1.334-14.175 1.334-3.429 0-6.988-.33-10.675-.985-3.682-.661-7.056-1.892-10.123-3.705-3.058-1.841-5.577-4.351-7.563-7.571-1.963-3.234-2.958-6.799-2.958-12.041v-3.017h-3.533c-2.271 0-3.428-.792-3.428-2.389v-4.292c0-1.397.267-2.221.796-2.451.507-.231 1.497-.344 2.945-.344h3.22v-10.32h-3.533c-2.275 0-3.428-.792-3.428-2.388v-4.292c0-1.312.267-2.085.796-2.316.507-.23 1.497-.344 2.945-.344h3.22v-3.311c0-5.518.81-7.323 2.416-10.882 1.61-3.537 3.872-6.373 6.78-8.463 2.913-2.122 6.31-3.592 10.195-4.433 3.913-.841 8.196-1.258 12.859-1.258 3.736 0 6.897.163 9.503.489 2.592.33 4.786.728 6.545 1.18 1.769.479 3.162.991 4.207 1.561 1.041.561 1.868 1.022 2.492 1.384.304.285.304.949.001 1.972zM210.936 191.34c25.239 25.239 66.168 25.226 91.408-.009 25.239-25.235 25.234-66.155-.005-91.395-25.248-25.244-66.155-25.244-91.398-.004-25.235 25.244-25.253 66.165-.005 91.408zm56.585-31.797c-.846-1.493-2.796-3.049-5.225-4.161l-2.741-1.258c-5.554-2.546-17.106-7.807-19.503-9.019-3.067-1.547-5.672-4.179-7.323-7.436-3.419-6.708-1.746-14.881 4.157-20.322 3.501-3.252 8.426-5.446 13.99-6.355v-6.463c0-.968.819-1.742 1.805-1.742h6.206c.995 0 1.791.773 1.791 1.742l.009 6.269c1.701.19 3.37.466 4.994.891 4.957 1.316 13.75 3.926 16.591 8.291.936 1.448.886 3.293-.132 5.071-1.176 2.008-5.065 5.034-7.535 3.13-9.562-7.377-16.6-6.301-18.613-6.301-2.587 0-6.341.574-9.507 3.252-2.058 1.746-2.443 5.491-.846 8.029 1.353 2.117 3.153 2.899 5.867 4.107l.511.212c1.108.448 4.844 1.99 7.381 3.13l1.28.502c7.771 3.089 18.44 7.296 21.118 14.899 2.429 6.925.168 14.646-5.775 19.698-3.411 2.913-8.893 4.727-15.343 5.166v5.821c.009.941-.801 1.723-1.791 1.719h-6.206c-.981.004-1.805-.778-1.805-1.719v-6.229c-8.051-1.167-16.179-4.455-19.933-10.204-.941-1.452-.882-3.288.126-5.075 1.153-2.003 3.741-4.048 6.4-4.048 1.583 0 2.926.724 3.781 2.026.086.154.194.294.316.425l.063.086.136.135c.235.227.461.448.719.651 1.665 1.398 4.324 2.904 6.192 3.515 3.139 1.031 6.622 1.638 9.594 1.628 3.333-.004 6.016-.737 7.779-2.112 2.299-1.782 2.96-5.364 1.472-7.951zM320.667 210.948c-25.243 25.234-25.243 66.144.005 91.392 25.234 25.235 66.146 25.244 91.403.005 25.229-25.239 25.234-66.167.004-91.405-25.252-25.249-66.173-25.226-91.412.008zm80.792 10.259l-24.61 43.017.014 1.263h10.113c1.271 0 2.162.117 2.669.303.488.217.737.973.737 2.289v3.926c0 .913-.227 1.502-.679 1.782-.452.289-1.32.425-2.587.425h-10.268v7.264h10.113c1.28 0 2.176.096 2.674.304.497.199.746.954.746 2.266v3.94c0 .904-.23 1.497-.679 1.791-.452.284-1.32-.231-2.587-.231h-10.268l.014 6.885c0 .813-.113 1.361-.357 1.65-.217.29-.837.426-1.841.43h-12.258c-.99-.004-1.619-.14-1.836-.42-.235-.299-.349-.847-.344-1.669v-6.876h-10.25c-1.284 0-2.14.516-2.609.231-.448-.294-.679-.883-.679-1.791v-3.94c0-1.312.253-2.066.755-2.266.498-.208 1.385-.304 2.665-.304h10.118v-7.264h-10.25c-1.284 0-2.144-.136-2.609-.425-.439-.28-.679-.869-.679-1.782v-3.926c0-1.316.253-2.072.755-2.289.498-.186 1.394-.303 2.669-.303h10.114v-1.263l-24.606-43.026c-.638-.9-.746-1.47-.334-1.732.402-.24 1.067-.362 1.972-.367l10.263.005c.796-.005 1.421.145 1.837.434.397.281.887.877 1.434 1.787l17.749 32.553 17.734-32.553c.553-.909 1.041-1.506 1.448-1.787.411-.29 1.026-.434 1.845-.439h10.24c.923.005 1.579.136 1.99.367.413.253.282.832-.338 1.741zM301.063 320.663c-25.248-25.248-66.168-25.229-91.403.01-25.243 25.234-25.243 66.146 0 91.394 25.244 25.244 66.146 25.234 91.39 0 25.244-25.244 25.258-66.165.013-91.404zm-14.831 82.855c-8.748 6.74-23.706 4.515-33.959 2.578-9.087-1.714-19.526-4.134-28.337.037-3.325 1.578-4.365-7.355-1.339-8.779 1.067-.516 2.175-.923 3.292-1.276.398-.271.851-.533 1.38-.764 8.856-3.985 9.824-14.922 9.517-22.725-.018-.547-.05-1.09-.095-1.633h-12.465c-4.058 0-4.058-10.417 0-10.417 3.586-.004 7.165-.004 10.76-.004-1.461-6.916-3.048-13.891-1.678-20.68 2.289-11.534 15.523-18.735 28.08-17.523 8.169.778 15.776 4.352 21.512 9.604 2.303 2.107-.081 5.093-2.42 5.979-3.152 1.193-6.54.438-8.883-1.688 1.822 1.674-.086-.027-.602-.411-1.208-.9-2.456-1.751-3.795-2.483-2.506-1.375-6.486-2.841-9.761-2.298-11.887 1.968-12.394 12.466-10.802 21.187.489 2.642 1.018 5.437 1.493 8.313h18.522c4.049 0 4.049 10.421-.004 10.421h-17.211c.633 8.924-.316 17.763-5.699 24.483 1.995.29 3.944.656 5.857 1.031 6.753 1.349 13.728 2.411 20.653 2.23 4.383-.108 9.924-.349 13.438-3.062 3.591-2.767 4.98 5.999 2.546 7.88z"/></g></svg>