<?xml version="1.0" encoding="utf-8"?>
<!-- Generator: Adobe Illustrator 18.0.0, SVG Export Plug-In . SVG Version: 6.00 Build 0)  -->
<!DOCTYPE svg PUBLIC "-//W3C//DTD SVG 1.1//EN" "http://www.w3.org/Graphics/SVG/1.1/DTD/svg11.dtd">
<svg version="1.1" id="Capa_1" xmlns="http://www.w3.org/2000/svg" xmlns:xlink="http://www.w3.org/1999/xlink" x="0px" y="0px"
	 viewBox="0 0 512 512" enable-background="new 0 0 512 512" xml:space="preserve">
<g>
	<g>
		<path fill="#FFFFFF" d="M222,391.4c8.6,2,17.6,3.4,26.8,4.3L238,322.4l12.8-25.3l-21.6-13.9l21.4-45.1h-34l21.4-47.3l-19.1-28.9
			c-46,11.5-82.8,38.4-99.6,72.6c-4.7-0.8-9.5-2.2-14.2-4.6c-2.1-1.1-4-2.2-5.7-3.3c8.7-3.6,15.8-9.8,19.7-17.6
			c6.2-12.4,1.6-21.7-4.1-25.9c-7.8-5.6-19-4-26.8,3.7c-8.1,8.1-12.6,17.7-12.6,26.8c-4.9-1.1-10.5-3.7-14.6-9.9
			c-2.4-3.6-7.3-4.6-10.9-2.2c-3.6,2.4-4.6,7.3-2.2,10.9c7.3,10.9,19.4,17.3,33,17.6c3.3,4.8,8.7,9.6,17.2,13.9
			c5.1,2.6,10.3,4.3,15.4,5.4c-2.6,8.6-4,17.6-4,26.9c0,30.1,14.7,57.6,38.8,78.7c3.2,23.1,8.4,45.3,16.2,66.5
			c1.5,4.1,5.5,6.8,9.9,6.8h44c7,0,12.1-6.7,10-13.4C226.1,407,224,399.2,222,391.4z M91.4,212.9c0.4-4.7,3.2-10.1,7.9-14.9
			c1.8-1.8,3.7-2.5,5-2.5c0.6,0,1.2,0.2,1.5,0.4c0.8,0.6,0.9,2.9-0.7,6.1C102.6,206.9,97.5,210.8,91.4,212.9z"/>
		<path fill="#FFFFFF" d="M452.2,244.8c-10.7-0.7-20.3-3.2-29.1-7.1c-7.6-22.7-22.6-42.4-45.8-56.7c12-14.1,21.3-33.6,23-48.8
			c-36.6-2.4-73.1,13.2-92.8,26c-3.2-0.4-6.4-0.8-9.7-1.1l-32.1,60.3h32.7l-37.7,53.4l25.2,19.1l-25.2,36.3l-6.9,70
			c5.1,0.4,10.3,0.6,15.6,0.6c14.1,0,27.8-1.4,40.9-4c2.5,9.7,5.4,19.3,8.9,28.7c1.5,4.1,5.5,6.8,9.9,6.8h44c7,0,12.1-6.7,10.1-13.4
			c-4.6-15.5-8.4-30.8-11.4-46c18.2-11.4,32.9-25.8,42.9-42.2c8.4-0.5,15.5-1.5,19.9-3.2c23.6-9.1,29.6-43.4,31.1-63.6
			C465.9,252.1,460,245.4,452.2,244.8z M363.6,239.6c-7.2,0-13.1-5.9-13.1-13.1c0-7.2,5.9-13.1,13.1-13.1c7.2,0,13.1,5.9,13.1,13.1
			C376.7,233.7,370.8,239.6,363.6,239.6z"/>
	</g>
	<polygon fill="#FFFFFF" points="229.1,132.2 211.5,99.7 196.9,99.7 191.3,116 217.8,132.2 	"/>
	<polygon fill="#FFFFFF" points="278.5,128.7 292.3,103.2 303.7,103.2 308.1,116 287.3,128.7 	"/>
	<polygon fill="#FFFFFF" points="306.6,135.5 320.4,128 325.6,131.4 323.8,138.5 310.6,138.1 	"/>
	<polygon fill="#FFFFFF" points="200.9,134.5 187,127 181.8,130.4 183.6,137.5 196.8,137.1 	"/>
	<polygon fill="#FFFFFF" points="276.3,87.2 256.9,91.9 256.1,119.5 	"/>
	<polygon fill="#FFFFFF" points="197,87.9 201.6,83.8 208.8,88.3 	"/>
</g>
</svg>
