<svg xmlns="http://www.w3.org/2000/svg" width="512" height="512"><g fill="#fff"><path d="M415.598 408.299h-319.196c-6.269 0-11.346 5.082-11.346 11.351s5.078 11.35 11.346 11.35h319.195c6.269 0 11.346-5.082 11.346-11.351s-5.077-11.35-11.345-11.35zM107.558 396.421h52.755c2.769 0 5.014-1.858 5.014-4.15l-7.804-33.69c0-2.292-2.246-4.15-5.019-4.15h-12.244v-62.49l.068-.025 91.613-42.456c-.056.651-.098 1.301-.098 1.965 0 2.751.468 5.384 1.297 7.855h-11.019l-48.486 137.143h32.585l4.07-11.512 1.829-1.549h88.984l1.515 1.276 4.167 11.784h32.585l-48.49-137.143h-11.015c.825-2.471 1.298-5.104 1.298-7.855 0-8.25-4.062-15.535-10.279-20.009l72.322-33.52c16.152 24.662 33.248 45.305 46.006 51.748v125.052h-9.271c-1.939 0-3.513.962-3.513 2.148v17.432c0 1.187 1.573 2.147 3.513 2.147h26.001c1.939 0 3.513-.961 3.513-2.147v-17.432c0-1.187-1.573-2.148-3.513-2.148h-8.021v-123.085c1.008-.132 1.974-.391 2.871-.863 16.935-8.922 5.754-76.601-19.925-125.405-25.687-48.809-43.156-48.689-60.091-39.78-16.935 8.918-26.92 23.246-1.233 72.059.923 1.752 1.862 3.513 2.819 5.273l-199.118 92.285c-10.147 4.716-14.549 16.76-9.828 26.902 2.726 5.873 7.931 9.735 13.779 11.104v61.244h-11.831c-2.769 0-5.014 1.858-5.014 4.15l-7.808 33.69c.001 2.293 2.247 4.152 5.016 4.152zm222.805-290.008c4.253-.208 7.868 3.066 8.081 7.319.204 4.249-3.071 7.863-7.319 8.072-4.253.208-7.872-3.066-8.076-7.315-.213-4.249 3.062-7.868 7.314-8.076zm-98.757 218.204l11.516 9.735-21.332 18.027 9.816-27.762zm1.123 41.324l23.883-20.188 23.884 20.188h-47.767zm48.719-41.179l9.671 27.35-21.013-17.759 11.342-9.591zm-24.946-81.045c4.261 0 7.706 3.449 7.706 7.706 0 4.253-3.445 7.706-7.706 7.706-4.253 0-7.706-3.453-7.706-7.706 0-4.256 3.453-7.706 7.706-7.706zm-14.204 50.677h28.412l4.529 12.813-18.627 15.739-18.797-15.889 4.483-12.663zm-118.857-21.358c0-4.257 3.454-7.706 7.706-7.706 4.261 0 7.706 3.449 7.706 7.706 0 4.253-3.445 7.701-7.706 7.701-4.252 0-7.706-3.448-7.706-7.701z"/></g></svg>