<svg xmlns="http://www.w3.org/2000/svg" width="512" height="512"><g fill="#fff"><path d="M124.584 217.614c13.589-3.425 15.41-22.356 14.81-37.558-.601-15.202-12.617-25.001-23.405-24.569-14.797.588-23.973 13.285-23.373 28.486 3.546 24.618 21.972 36.158 31.968 33.641zM141.77 253.839s-3.669-10.544-9.839-17.218c-1.156-1.245 7.139 37.081 6.358 35.465-9.02-18.859-22.488-38.19-26.422-40.383-3.938-2.205-8.155-3.677-12.497-3.857-5.87 2.709-14.329 10.66-16.85 26.202-.812 24.597-1.52 49.197-1.52 99.395h33.272l37.922-58.605c-4.922-26.241-6.726-26.825-10.424-40.999zM387.416 217.614c9.987 2.517 28.423-9.023 31.96-33.64.6-15.202-8.567-27.898-23.364-28.486-10.801-.432-22.805 9.367-23.405 24.569-.6 15.201 1.22 34.131 14.809 37.557zM429.468 254.047c-2.521-15.542-10.973-23.493-16.839-26.202-4.341.18-8.559 1.652-12.496 3.857-3.941 2.193-17.406 21.524-26.422 40.383-.78 1.616 7.519-36.709 6.358-35.465-6.179 6.674-9.84 17.218-9.84 17.218-3.689 14.173-5.502 14.757-10.428 40.999l37.935 58.605h33.264c0-50.197-.708-74.797-1.532-99.395zM217.39 269.573c.772-14.237 4.722-34.593 6.579-35.397l.044-.012v42.399h66.504v-38.622l.448.716c2.829 4.438 5.798 8.935 8.523 12.641 1.38 1.869 2.656 3.517 4.037 5.05.708.764 1.416 1.508 2.389 2.325.492.404 1.049.832 1.801 1.301.756.456 1.705.988 3.193 1.429 1.256.359 2.396.476 3.385.476 2.661-.044 4.214-.668 5.479-1.177 1.176-.508 2.076-1.036 2.929-1.568 1.577-1.008 2.957-2.08 4.374-3.269 2.461-2.073 4.966-4.478 7.475-6.99 7.467-7.499 14.785-15.994 14.873-16.098 3.985-4.629 3.481-11.62-1.156-15.614-4.621-3.993-11.616-3.473-15.609 1.161l-.057.052c-.56.656-5.954 6.854-11.604 12.697-1.741 1.809-3.502 3.557-5.126 5.086-.977-1.396-2.029-2.953-3.102-4.574-3.185-4.818-6.55-10.256-9.107-14.457-1.276-2.101-2.36-3.901-3.104-5.166-.377-.628-.681-1.128-.873-1.469l-.304-.508c-.552-.944-1.253-1.729-2.001-2.437-1.032-1.653-4.661-3.806-15.682-6.943-2.845-.908-5.326-1.636-7.671-2.108v.008l-.032-.008c-.46 5.43-2.368 18.479-10.087 34.448-1.209-10.508-3.065-19.995-3.258-20.967l2.81-6.603-4.574-4.326h-3.249l-4.574 4.326 2.809 6.603c-.188.972-2.057 10.459-3.241 20.967-7.734-15.97-9.635-29.019-10.1-34.448l-.044.008v-.008c-2.337.472-4.49 1.24-6.375 2.341-6.85 2.237-16.498 5.642-22.024 8.683-2.701 2.761-12.369 16.094-15.662 58.841-.152 2.389-.188 5.214-.156 8.203h20.924c.028-2.346.088-4.695.196-6.992zM233.928 171.901c3.281 12.068 11.068 23 23.681 23 12.677 0 20.476-11.052 23.749-23.205 3.569-1.473 5.778-6.679 5.31-10.564-.296-2.509-1.677-3.877-3.605-4.51-.771-14.985-10.624-26.833-25.453-26.833-14.749 0-24.597 11.744-25.449 26.634-2.289.512-3.941 1.92-4.27 4.709-.514 4.139 2.044 9.741 6.037 10.769zM330.924 281.926c.672.736 1.384 1.557 2.181 2.585l47.829 79.12c.044.665-.028 1.145-.107 1.438l-249.404-.225c-.064-.288-.112-.729-.064-1.328l48.53-79.293c.524-.856 1.061-1.605 1.625-2.297h-10.864l-54.44 84.963v14.981c.256.052.504.112.772.112l278.218.228c.204 0 .384-.056.58-.08v-15.646l-53.56-84.559h-11.296z"/></g></svg>