<svg xmlns="http://www.w3.org/2000/svg" width="512" height="512"><path fill="#fff" d="M411.261 133.136c2.955-13.782-5.688-27.42-19.474-30.566-13.899-3.191-27.746 5.509-30.916 19.409-1.857 8.101.337 16.162 5.224 22.125l-25.929 16.286c-15.287-23.657-46.136-39.704-81.61-39.421-36.732.293-68.245 18.013-82.515 43.298l-30.375-18.403c4.796-6.048 6.869-14.149 4.883-22.216-3.396-13.843-17.383-22.321-31.229-18.915-13.735 3.365-22.159 17.138-18.989 30.879-13.644 3.544-21.947 17.39-18.585 31.119 3.403 13.853 17.383 22.324 31.229 18.925 7.879-1.939 14.004-7.307 17.211-14.122l37.715 22.849-.017.703c.101 12.968 4.409 25.121 11.84 35.632-4.399 7.414-6.802 15.519-6.745 23.99.131 15.687 8.66 29.93 22.6 40.748-.111.603-.162 1.201-.162 1.824l.017.936.013 2.998.128 16.206-39.886 25.043c-3.308-6.762-9.524-12.032-17.45-13.843-13.887-3.184-27.736 5.517-30.913 19.42-3.154 13.782 5.381 27.497 19.083 30.825-2.962 13.785 5.691 27.42 19.47 30.569 13.903 3.181 27.753-5.509 30.933-19.412 1.841-8.102-.35-16.158-5.244-22.129l24.286-15.246v.124c.054 5.957 2.75 11.611 7.327 15.411l30.576 25.275c4.672 3.871 10.585 5.975 16.66 5.931l25.947-.205c6.065-.054 11.962-2.252 16.566-6.189l30.169-25.764c4.517-3.867 7.121-9.575 7.081-15.532l-.007-.818 25.659 15.55c-4.799 6.044-6.865 14.142-4.88 22.209 3.393 13.84 17.38 22.324 31.219 18.922 13.739-3.366 22.173-17.142 18.996-30.89 13.644-3.537 21.957-17.38 18.578-31.111-3.386-13.856-17.373-22.338-31.227-18.936-7.882 1.942-14.007 7.308-17.211 14.129l-41.424-25.097-.121-14.452-.014-2.988-.014-1.996-.047-.801c14.56-11.164 23.377-25.969 23.242-42.127-.08-10.48-3.944-20.335-10.642-28.958 5.264-9.363 8.179-19.756 8.084-30.704-.007-1.39-.074-2.77-.182-4.144l31.785-19.954c3.312 6.768 9.531 12.042 17.44 13.853 13.899 3.177 27.752-5.523 30.923-19.423 3.164-13.787-5.365-27.501-19.076-30.826zm-151.197 143.876c14.89.636 21.143 29.149 11.537 29.644-3.021.151-7.074-11.819-11.389-11.789-4.431.047-8.358 12.694-11.421 11.944-9.871-2.474.233-30.278 11.273-29.799zm-77.329-15.072c-.088-10.605 45.341-12.648 59.904-5.557 2.773 1.356 4.422 3.032 4.439 5.052.071 9.211-7.562 17.191-18.608 20.896-4.056 1.356-8.596 2.154-13.378 2.194-17.777.153-32.256-9.963-32.357-22.585zm104.254 94.122c-3.453 2.955-7.868 4.601-12.433 4.641l-22.951.186c-4.547.033-8.993-1.545-12.5-4.446 0 0-24.505-23.586-24.549-28.052l-.128-16.721-.02-2.632-.02-2.524c3.766 1.66 7.744 3.131 11.874 4.389l.017 2.431.013 2.521.081 9.195c.047 5.502 3.907 10.346 9.353 11.177 18.888 2.874 37.639 2.732 56.466-.424 5.473-.926 9.37-5.792 9.316-11.353l-.061-9.461-.027-2.504-.026-2.427c3.291-1.101 6.469-2.312 9.524-3.661l.026 2.507.027 2.622.121 16.104c.043 4.456-24.103 28.432-24.103 28.432zm18.592-72.252c-1.71.017-3.393-.098-5.021-.252-15.395-1.609-27.248-10.938-27.335-22.331-.021-2.02 1.615-3.712 4.361-5.112 14.438-7.333 59.901-5.998 59.995 4.604.101 12.603-14.229 22.949-32 23.091z"/></svg>