<?xml version="1.0" encoding="utf-8"?>
<!-- Generator: Adobe Illustrator 18.0.0, SVG Export Plug-In . SVG Version: 6.00 Build 0)  -->
<!DOCTYPE svg PUBLIC "-//W3C//DTD SVG 1.1//EN" "http://www.w3.org/Graphics/SVG/1.1/DTD/svg11.dtd">
<svg version="1.1" id="Capa_1" xmlns="http://www.w3.org/2000/svg" xmlns:xlink="http://www.w3.org/1999/xlink" x="0px" y="0px"
	 viewBox="0 0 512 512" enable-background="new 0 0 512 512" xml:space="preserve">
<g>
	
		<ellipse transform="matrix(-0.3306 -0.9438 0.9438 -0.3306 -6.6742 466.2785)" fill="#FFFFFF" cx="162" cy="235.5" rx="21.1" ry="15.5"/>
	<path fill="#FFFFFF" d="M350.1,307.4l0,26.1l-58.2,8.3v-57.8c13.3-5.7,16.5-11.8,17.4-26.4l49.5-21.1
		c54.4-25.5,26.4-145.2-31-129.5l-228.3,50C63.6,166.1,70,199.9,75,235.5l24.8-5c0.8,8.1,2.6,16.5,5.6,24.8
		c15.9,45.3,54.8,68.9,89.4,54.5l35-15.9c6,6.9,17.4,10.2,26.2,6.9v44.3v27.7l25.7,5.1l131-7.3L350.1,384l0,8.6l90.8,14v-92.2
		L350.1,307.4z M178.5,282.6c-19.2,6.7-42.1-8.9-51.2-35c-9.1-26-1-52.5,18.2-59.3c9.2-3.2,19.3-1.3,28.3,4.5
		c11.5,8.8,26.6,35.9,26.6,52.8C200.1,263.2,192.1,277.9,178.5,282.6z"/>
</g>
</svg>
