<?xml version="1.0" encoding="utf-8"?>
<!-- Generator: Adobe Illustrator 18.0.0, SVG Export Plug-In . SVG Version: 6.00 Build 0)  -->
<!DOCTYPE svg PUBLIC "-//W3C//DTD SVG 1.1//EN" "http://www.w3.org/Graphics/SVG/1.1/DTD/svg11.dtd">
<svg version="1.1" id="Capa_1" xmlns="http://www.w3.org/2000/svg" xmlns:xlink="http://www.w3.org/1999/xlink" x="0px" y="0px"
	 viewBox="0 0 512 512" enable-background="new 0 0 512 512" xml:space="preserve">
<g>
	<path fill="#FFFFFF" d="M171.1,345.6c0,2.5,0,4.9,0,7.1c55.6,13.2,112.1-27.3,171.7-10.1c0-2.6,0-5.4,0-8.2
		C283.2,318.9,230.9,355.3,171.1,345.6z"/>
	<path fill="#FFFFFF" d="M162.2,332.2c0,2.5,0,4.9,0,7.1c60.4,13.2,121.7-27.3,186.3-10.1c0-2.6,0-5.4,0-8.2
		C283.9,305.5,227.1,341.9,162.2,332.2z"/>
	<path fill="#FFFFFF" d="M254.7,264c-0.4-0.1-0.5-0.1-0.9-0.1c-1.8-0.4-4.6-0.8-5.4-1l-0.4-0.1c-2-0.4-3.3-0.7-4.2-1.9
		c-1.2-1.5-0.9-4.1,0.6-5.7c2.3-2.3,5-3.3,6.9-3.8c1.5-0.3,3-0.4,4.5-0.3c1.3,0.1,3.3,0.9,4.6,1.7l0.5,0.3l0.1,0.1l0.2,0.2
		c0.6,0.8,1.6,1,2.7,0.8c1.9-0.4,3.8-2.2,4.6-3.8c0.7-1.4,0.8-2.7,0.1-3.5c-2.1-2.6-6.8-4-10.4-4.1c-1.2,0-2.4,0-3.6,0.2
		c0-1.7,0-2.6,0-4.3c0-0.7-0.6-1.1-1.3-0.9c-1.8,0.4-2.7,0.6-4.5,1c-0.7,0.2-1.3,0.8-1.3,1.5c0,1.8,0,2.7,0,4.5
		c-4,1.5-7.6,3.8-10.1,6.5c-4.3,4.6-5.5,10.5-3,14.6c1.2,2,3.1,3.4,5.3,4c1.7,0.5,10.1,2.3,14.1,3.1c0.8,0.2,1.2,0.3,2,0.4
		c1.7,0.4,3.2,1.1,3.8,2c1.1,1.5,0.6,4.1-1.1,5.7c-1.3,1.2-3.2,2.2-5.6,2.7c-2.1,0.5-4.7,0.6-6.9,0.4c-1.3-0.1-3.3-0.8-4.5-1.5
		l-0.5-0.3l-0.1-0.1l-0.1-0.1l-0.2-0.2c-0.6-0.8-1.6-1.1-2.7-0.8c-1.9,0.4-3.8,2.2-4.6,3.7c-0.7,1.4-0.8,2.6-0.1,3.5
		c2.7,3.4,8.6,4.5,14.5,4c0,1.7,0,2.6,0,4.3c0,0.7,0.6,1.1,1.3,0.9c1.8-0.4,2.7-0.6,4.5-1c0.7-0.2,1.3-0.8,1.3-1.5c0-1.6,0-2.4,0-4
		c4.7-1.3,8.6-3.5,11.1-6c4.3-4.4,6-10,4.2-14.5C268.1,266.2,260.4,264.9,254.7,264z"/>
	<path fill="#FFFFFF" d="M323.6,228.5c-14.2-1.3-28.9-0.5-48.2,3.2c13,4.1,21.8,14,21.8,28.6c0,13.4-7.5,25.9-18.9,34.9
		c18-3.3,34.7-3.7,45.1-2.7l0-0.3c0-5.2,4.6-8.9,10.2-7.7l0.6,0.2c0-18.1,0-25.2,0-43.4l-0.6-0.1c-5.7-1.2-10.2-5.8-10.2-11
		C323.4,229.6,323,228.5,323.6,228.5z M315.4,265.9c-3.8-0.1-6.9-2.9-6.9-6.3c0-3.5,3.1-6.4,6.9-6.2c3.8,0.1,6.9,3.3,6.9,6.8
		C322.3,263.6,319.2,266.1,315.4,265.9z"/>
	<path fill="#FFFFFF" d="M211.7,275.7c0-14.5,8.8-30.3,21.8-39.4c-19.3,3.7-33.9,4.6-48.2,3.2c0.6,0.1,0.2,1.1,0.2,1.7
		c0,5.2-4.6,8.9-10.2,7.7l-0.6-0.2c0,18.1,0,29.6,0,47.7l0.6,0.1c5.7,1.2,10.2,5.8,10.2,11l0,1.1c14.3,1.2,27.1-0.2,45.1-3.5
		C219.3,300.3,211.7,289.1,211.7,275.7z M193.6,282.5c-3.8-0.1-6.9-3.3-6.9-6.8c0-3.5,3.1-6,6.9-5.8c3.8,0.1,6.9,2.9,6.9,6.4
		C200.5,279.7,197.4,282.6,193.6,282.5z"/>
	<path fill="#FFFFFF" d="M455,157.5c-20.8,13.9-49.4,20.6-61.8,22.1c-12.4,1.5-13.2,1.4-21,22c-8.5,22.4-16.7,28-20.2,29.3
		c0-7.8,0-13.9,0-17.1c-70.3-14.9-127.3,22.3-195,5.1c0,6.9,0,14.4,0,22.1c-3.5-1.4-11.7-6.9-20.2-29.3c-7.8-20.6-8.6-20.5-21-22
		c-12.4-1.5-41-8.2-61.8-22.1c-20.8-13.9-25.6,25,20.2,40c0,0-11.1-0.6-14.2,8.4c-1.5,4.4-1.1,14.3,17.8,17.6
		c17.6,3.1,29.6,0.7,32.9-0.2c-4.2,1.2-21.5,6.9-13.3,16.9c8.5,10.5,32.4-0.4,32.4-0.4c0,0,6,8.9,26.1,8.2c0.5,0,0.9-0.1,1.2-0.2
		c0,23.6,0,47.9,0,65.7c68.7,15.3,127.3-25.3,195-8.1c0-18.7,0-45.8,0-67.7c0.3,0.1,0.7,0.2,1.2,0.2c20.1,0.7,26.1-8.2,26.1-8.2
		s23.8,10.9,32.3,0.4c8.2-10-9.1-15.7-13.3-17c3.2,0.8,15.2,3.3,32.9,0.2c18.8-3.4,19.3-13.2,17.8-17.6c-3.1-8.9-14.2-8.4-14.2-8.4
		C480.6,182.5,475.8,143.6,455,157.5z M125.6,230.4c-5-0.8-8.7-2.1-11.5-4c-2.8-1.8-4.5-4.2-5.4-6.5c-0.6-1.6-0.8-3.1-0.8-4.5
		c0-1.1,0.1-2.1,0.3-3c-0.2,0-0.4,0-0.6,0c-10.3,0-17.5-2.3-22.1-4.7c-4.7-2.4-6.8-4.8-7-5.1v0c-1-1.2-0.8-3,0.4-4
		c1.2-1,3-0.8,4,0.3l0,0l0,0l0,0l0.2,0.2c0.2,0.2,0.5,0.5,0.9,0.8c0.8,0.7,2.2,1.7,4.1,2.7c3.9,2,10.2,4.1,19.6,4.1
		c1.4,0,2.8,0,4.3-0.1c1-0.1,2,0.4,2.6,1.3c0.6,0.9,0.6,1.9,0.1,2.9l0,0l0,0l-0.1,0.2c-0.1,0.2-0.2,0.6-0.4,1
		c-0.3,0.9-0.6,2.1-0.6,3.3c0,0.9,0.1,1.7,0.4,2.6c0.3,0.8,0.8,1.7,1.6,2.5c1.7,1.7,4.8,3.4,10.8,4.4c1.5,0.2,2.6,1.7,2.4,3.2
		C128.6,229.6,127.2,230.7,125.6,230.4z M342.8,303.2c-61.3-9-115.4,21.2-176.7,12.2c0-26.9,0-58.8,0-85.7
		c61.3,9.1,115.4-17.8,176.7-8.7C342.8,247.8,342.8,276.4,342.8,303.2z M430.4,192.5c-0.2,0.2-2.3,2.7-7,5.1
		c-4.7,2.4-11.9,4.7-22.1,4.7c-0.2,0-0.4,0-0.6,0c0.2,0.9,0.3,1.9,0.3,3c0,1.4-0.2,3-0.8,4.5c-0.6,1.6-1.5,3.2-2.9,4.6
		c-2.8,2.8-7.3,4.9-13.9,6c-1.5,0.2-3-0.8-3.2-2.4c-0.2-1.5,0.8-3,2.4-3.2c4.4-0.7,7.4-1.9,9.2-3.1c1.9-1.3,2.7-2.5,3.2-3.8
		c0.3-0.8,0.4-1.7,0.4-2.6c0-2.3-1-4.5-1.1-4.6v0l0,0c-0.5-0.9-0.4-2,0.1-2.9c0.6-0.9,1.5-1.4,2.6-1.3c1.5,0.1,2.9,0.1,4.3,0.1
		c9.1,0,15.3-2,19.2-3.9c3.9-1.9,5.6-3.8,5.6-3.9l0,0c1-1.2,2.8-1.3,4-0.3C431.2,189.6,431.4,191.3,430.4,192.5z"/>
</g>
</svg>
