<svg xmlns="http://www.w3.org/2000/svg" width="512" height="512"><g fill="#fff"><path d="M310.267 360.365c-11.156-1.859-22.334-3.712-33.509-5.571-1.297-.218-2.356-1.104-2.781-2.331-1.075-3.029-2.15-6.058-3.207-9.087-2.037-2.854-4.061-5.709-6.079-8.563-.331-.254-.908-.544-1.225-.719-1.518-.894-3.072-2.033-3.072-3.987v-1.583c-1.894-3.363-3.802-6.727-5.692-10.089l-.445-.763.185-.864c.314-1.54.648-3.065.964-4.605-.409-1.532-.833-3.05-1.262-4.583-2.333-1.503-4.687-3.014-7.04-4.524l-.725-.465-.242-.821c-.352-1.126-.705-2.244-1.037-3.377-1.398-1.235-2.782-2.47-4.166-3.712v-180.20700000000002c2.061-1.133 3.87-2.662 5.333-4.485 1.54-1.917 2.68-4.162 3.327-6.609.385-1.46.61-2.982.61-4.562 0-9.863-7.997-17.857-17.856-17.857-9.865 0-17.858 7.994-17.858 17.857 0 1.58.225 3.102.61 4.562.646 2.448 1.787 4.692 3.329 6.609 1.461 1.823 3.27 3.355 5.331 4.485v166.872l-6.719-2.063c-.962-.072-2.113-.043-3.076-.058-2.021-.015-4.059-.021-6.08-.044-2.151-.015-4.3-.036-6.45-.08-.946-.021-3.225.015-4.078-.355-4.262-1.859-8.523-3.712-12.807-5.578-1.147-.501-1.965-1.569-2.112-2.825-.26-2.092-.538-4.198-.795-6.298-2.021-.326-4.449-.784-5.375-2.273l-2.261-3.633c-3.337-1.29-6.673-2.586-10.011-3.886l-.258-.091-.223-.163c-4.206-2.913-8.413-5.833-12.602-8.752-4.558-1.351-9.117-2.713-13.66-4.067-1.111 1.602-2.519 3.522-4.097 3.82-4.761.908-9.542 1.809-14.325 2.702l7.396 8.091c.648.726 1.019 1.62.944 2.615-.185 2.058-2.15 3.169-3.762 4.062-.353.189-1.167.61-1.594.915-.147.465-.296 1.148-.407 1.569-.483 1.743-1.278 3.596-3.261 3.987-2.337.465-4.672.944-7.005 1.402-1.965 2.614-3.912 5.222-5.876 7.829-.721.967-1.89 1.519-3.094 1.409-2.112-.188-4.216-.355-6.321-.537-1.437-.116-2.871-.247-4.309-.407l-1.447 8.702c1.031.102 2.059.203 3.087.312l1.151.109.601.987c6.68 10.743 13.354 21.478 20.025 32.221l.147.232.074.261c1.336 4.01 2.669 8.019 4.004 12.035.781.08 1.54.175 2.299.27l.685.072.538.436c2.244 1.853 4.505 3.697 6.766 5.557l.425.349.224.516c2.448 5.563 4.874 11.12 7.321 16.684l.24.552-.056.604c-.184 1.823-.353 3.632-.518 5.447 1 4.365 2.019 8.745 3.02 13.11 3.448 2.223 6.878 4.445 10.305 6.668l.187.13.185.16 6.671 6.58.465.437.166.617c.741 2.753 1.483 5.506 2.224 8.251 1.722 2.745 3.466 5.491 5.188 8.229 2.059 1.503 4.115 3.007 6.172 4.496l.612.45.224.712c1.149 3.398 2.279 6.791 3.41 10.189l6.542-5.781.538-.138c3.706-.966 7.414-1.933 11.1-2.891l.705-.175.687.24c6.729 2.433 13.475 4.873 20.203 7.307l1.554.559v7.83l24.096-26.634.703-.175c11.546-2.789 23.242-4.982 34.642-8.374 10.746-3.211 21.147-7.489 31.689-11.287 2.521-6.915 5.062-13.829 7.583-20.737-.907-1.475-1.837-2.941-2.745-4.408-.836.694-1.797 1.18-2.967.977zM421.445 219.492l-32.328-99.641c-1.083-3.338-4.969-4.83-7.979-3.025-12.986 7.783-44.832 24.056-64.545 10.183-25.468-17.933-44.919-15.191-63.88-6.791v118.725c9.493-5.31 24.67-9.493 42.973.915 34.156 19.43 75.941 19.918 122.005-9.678 3.537-2.273 5.051-6.685 3.754-10.688z"/></g></svg>