<?xml version="1.0" encoding="utf-8"?>
<!-- Generator: Adobe Illustrator 18.0.0, SVG Export Plug-In . SVG Version: 6.00 Build 0)  -->
<!DOCTYPE svg PUBLIC "-//W3C//DTD SVG 1.1//EN" "http://www.w3.org/Graphics/SVG/1.1/DTD/svg11.dtd">
<svg version="1.1" id="Capa_1" xmlns="http://www.w3.org/2000/svg" xmlns:xlink="http://www.w3.org/1999/xlink" x="0px" y="0px"
	 viewBox="0 0 512 512" enable-background="new 0 0 512 512" xml:space="preserve">
<g>
	<polygon fill="#FFFFFF" points="84.6,232.2 59.3,252.1 40.5,279 40.5,302.4 46.7,302.4 52.6,290.3 66.2,269.5 89.8,252.1 
		392.6,253.9 425.5,286.8 430.7,302.4 445.5,302.4 445.5,281.6 401.2,232.2 	"/>
	<path fill="#FFFFFF" d="M385.6,260l-0.6-0.1H99.5c-14,0-24.7,7.6-28.6,20.3c-4,13.2,0.2,28,9.9,34.5c4.1,2.8,24.3,15.9,60,38.9
		c4.7,3,10.1,4.6,15.8,4.6h175.3c5.6,0,11-1.6,15.6-4.5c0.6-0.4,62.7-42.3,62.7-63.5C410.1,270.1,394.1,261.6,385.6,260z
		 M340.1,342.3c-2.4,1.6-5.3,2.4-8.3,2.4H156.5c-3,0-5.9-0.9-8.4-2.5c-35.7-23-55.8-36.1-59.8-38.8c-4.6-3.1-6.6-12.1-4.5-19.3
		c1.5-4.9,5.4-10.7,15.6-10.7h284c2.8,0.7,13,4.3,13,16.8C396,297.7,364.9,326.4,340.1,342.3z"/>
	<path fill="#FFFFFF" d="M292.8,166.7c0,0-9.4-0.5-22.6-1c0.1-0.4,0.1-0.8,0.1-1.3c0-5.9-4.8-10.7-10.7-10.7h-39.7
		c-5.9,0-10.7,4.8-10.7,10.7c0,0,0,0.1,0,0.1c-11.4,0.2-20,0.8-22.3,2.2c-8.7,5.2-16.5,58.1-16.5,58.1h172.6L292.8,166.7z"/>
	<polygon fill="#FFFFFF" points="462.7,185.2 462.7,179 419.3,179 419.3,185.2 317.5,185.2 330.3,199.9 419.3,199.9 419.3,206.2 
		462.7,206.2 462.7,199.9 471.5,199.9 471.5,185.2 	"/>
	<path fill="#FFFFFF" d="M104.5,226.2h46c5.2,0,9.5-4.3,9.5-9.5c0-5.2-4.3-9.5-9.5-9.5h-46c-5.2,0-9.5,4.3-9.5,9.5
		C95,221.9,99.3,226.2,104.5,226.2z"/>
	<circle fill="#FFFFFF" cx="375.2" cy="290.4" r="12.1"/>
	<circle fill="#FFFFFF" cx="107.1" cy="290.4" r="12.1"/>
	<circle fill="#FFFFFF" cx="160.6" cy="313.4" r="24.4"/>
	<circle fill="#FFFFFF" cx="215.4" cy="313.4" r="24.4"/>
	<circle fill="#FFFFFF" cx="270.3" cy="313.4" r="24.4"/>
	<circle fill="#FFFFFF" cx="325.1" cy="313.4" r="24.4"/>
</g>
</svg>
