<svg xmlns="http://www.w3.org/2000/svg" width="512" height="512"><g fill="#fff"><path d="M117.64 142.634c6.709 13.612 4.844 28.245-4.161 32.681-9 4.436-21.739-2.998-28.452-16.617-6.708-13.612-4.84-28.248 4.158-32.681 9.007-4.439 21.746 3.002 28.455 16.617zM200.657 118.493c-3.88 16.525-16.037 27.805-27.152 25.196-11.112-2.606-16.979-18.11-13.104-34.635 3.874-16.525 16.035-27.805 27.141-25.199 11.118 2.613 16.983 18.117 13.115 34.638zM153.129 107.18c4.297 16.821-.732 32.637-11.224 35.315-10.49 2.676-22.475-8.795-26.768-25.616-4.295-16.825.73-32.64 11.216-35.316 10.493-2.683 22.488 8.795 26.776 25.617zM226.262 164.803c-3.438 14.179-14.596 23.636-24.923 21.133-10.331-2.503-15.914-16.02-12.481-30.195 3.433-14.179 14.593-23.644 24.927-21.137 10.325 2.504 15.914 16.02 12.477 30.199zM105.964 201.608s19.336-44.104 47.158-44.104c0 0 36.639-1.357 46.475 55.292 1.486 8.539-4.015 16.082-12.591 16.755-10.177.798-19.706-5.091-29.701-5.9-14.212-1.149-42.583 14.962-52.043-3.4-2.416-4.687-1.744-14.082.702-18.643zM370.815 430.137s-8.564-1.328-13.11-3.736-17.118-8.026-29.69-4.553c-12.579 3.48-39.323 2.408-40.129-12.031-.805-14.453-1.606-31.301 10.432-40.396 12.038-9.103 23.139-14.187 30.832-9.633 7.686 4.545 17.319 2.938 24.01 1.603 6.687-1.343 19.53 8.836 22.465 11.232 2.95 2.412 13.652 11.508 22.209 13.11 8.564 1.61 12.042 18.462 6.962 25.148-5.089 6.691-10.44 23.542-33.981 19.256zM397.307 382.521c4.604 1.456 12.297 4.823 14.706-12.572 2.404-17.389-9.897-15.782-9.897-15.782s-8.981-2.027-12.037 11.503c-3.061 13.53 2.645 15.415 7.228 16.851zM375.361 365.406s10.848 3.213 13.849-18.462c3.009-21.671-10.636-18.995-10.636-18.995s-13.926-.11-13.374 18.754c.542 18.875 10.161 18.703 10.161 18.703zM350.487 355.506s11.5.809 11.5-17.66c0-18.454-13.554-18.454-14.673-17.923-1.105.534-12.082 2.536-11.812 17.726.271 15.181 12.445 18.201 14.985 17.857zM321.324 354.06s10.168-1.079 11.236-16.4c1.064-15.328-11.771-15.859-13.645-15.599-1.874.271-12.306 1.347-10.973 18.193 1.348 16.858 13.382 13.806 13.382 13.806zM295.375 361.12s8.293-1.072 8.293-16.312c0-15.256-11.767-14.988-11.767-14.988s-11.24.271-10.977 15.65c.275 15.379 10.176 15.65 14.451 15.65zM400.769 352.56s1.882-25.969-2.397-32.779c8.026 3.627 12.306 27.212 12.122 35.747-4.183-4.304-9.725-2.968-9.725-2.968zM385.799 327.839c-3.564-2.92-10.175-1.138-10.175-1.138v-29.785s10.702 19.709 10.175 30.923zM360.918 324.472c-2.408-4.691-11.591-7.229-11.591-7.229s.89-33.701-4.726-37.716c12.302 5.091 17.913 34.418 16.317 44.945zM324.977 320.728c-3.924-1.603-11.057.886-11.057.886s2.316-36.735 11.95-42.086c-2.946 6.418-2.145 35.491-.893 41.2zM299.39 329.819c-5.955-2.676-11.913-1.98-11.913-1.98s1.207-29.316 4.816-33.064c-.666 16.586 4.333 30.429 7.097 35.044zM211.538 324.729c-19.602-40.279-56.875-36.722-56.875-36.722s-37.27-3.558-56.871 36.722c-12.781 26.249-5.845 61.568.529 82.973l-1.636.681 8.283 19.878 24.85-5.802-9.662-17.941-2.213.23c-5.612-12.726-10.726-32.105-6.901-56.829 7.181-46.387 43.622-40.864 43.622-40.864s36.445-5.522 43.624 40.864c3.827 24.724-1.292 44.104-6.899 56.829l-2.209-.23-9.666 17.941 24.848 5.802 8.285-19.878-1.636-.681c6.372-21.405 13.308-56.724.527-82.973zm-112.092 35.296c-1.524 0-2.762-1.24-2.762-2.767 0-1.516 1.237-2.756 2.762-2.756 1.526 0 2.76 1.24 2.76 2.756 0 1.527-1.234 2.767-2.76 2.767zm5.797 42.003c-1.524 0-2.762-1.233-2.762-2.76s1.237-2.76 2.762-2.76c1.526 0 2.763 1.233 2.763 2.76s-1.236 2.76-2.763 2.76zm10.77-85.583c-1.526 0-2.761-1.24-2.761-2.767s1.235-2.76 2.761-2.76c1.521 0 2.758 1.233 2.758 2.76s-1.237 2.767-2.758 2.767zm38.65-17.395c-1.522 0-2.759-1.241-2.759-2.768 0-1.519 1.237-2.76 2.759-2.76 1.524 0 2.762 1.241 2.762 2.76-.001 1.527-1.238 2.768-2.762 2.768zm38.653 17.395c-1.526 0-2.76-1.24-2.76-2.767s1.233-2.76 2.76-2.76c1.524 0 2.761 1.233 2.761 2.76s-1.236 2.767-2.761 2.767zm10.768 85.583c-1.524 0-2.758-1.233-2.758-2.76s1.233-2.76 2.758-2.76c1.526 0 2.76 1.233 2.76 2.76s-1.234 2.76-2.76 2.76zm3.04-44.769c0-1.516 1.233-2.756 2.758-2.756 1.526 0 2.763 1.24 2.763 2.756 0 1.526-1.237 2.767-2.763 2.767-1.525-.001-2.758-1.241-2.758-2.767zM342.189 229.626c-10.361 0-16.583-11.653-22.109-15.032-14.414-8.802-62.082-46.629-57.532-51.467 3.422-3.646 54.765 37.991 63.062 32.717 5.958-3.784 6.094-13.11 6.211-27.809.264-33.746 8.15-83.145 11.924-83.145 2.833 0 5.439 49.399 5.117 80.989-.153 15.174 1.098 26.18 6.797 29.031 9.845 5.179 69.427-41.113 75.122-36.359 3.891 3.199-45.07 42.058-68.385 56.562-10.112 6.296-12.293 14.513-20.207 14.513z"/></g></svg>