<?xml version="1.0" encoding="utf-8"?>
<!-- Generator: Adobe Illustrator 18.0.0, SVG Export Plug-In . SVG Version: 6.00 Build 0)  -->
<!DOCTYPE svg PUBLIC "-//W3C//DTD SVG 1.1//EN" "http://www.w3.org/Graphics/SVG/1.1/DTD/svg11.dtd">
<svg version="1.1" id="Capa_1" xmlns="http://www.w3.org/2000/svg" xmlns:xlink="http://www.w3.org/1999/xlink" x="0px" y="0px"
	 viewBox="0 0 512 512" enable-background="new 0 0 512 512" xml:space="preserve">
<g>
	<path fill="#FFFFFF" d="M212.5,149.1c0-12.3,10-22.3,22.3-22.3h42.3c12.3,0,22.3,10.1,22.3,22.3v4.4h22.8v-6.1
		c0-18.7-15.3-34-34-34h-64.4c-18.7,0-34,15.3-34,34v6.1h22.8V149.1z"/>
	<path fill="#FFFFFF" d="M219.7,225.4c0.1,0.7,0.3,1.4,0.4,2.1c0.2,0.9,0.5,1.7,0.8,2.5l-3.3,0.9l0.3,4.7l4.9-1.3
		c5.5,9.5,16.2,14.5,26.7,11.7c2.9-0.8,5.6-2.1,7.9-3.8l-2.8-10.7c-1.5,3.5-4.2,6.1-7.6,7c-5.2,1.4-10.7-1.5-14.1-6.9l15-4l-0.3-4.7
		l-16.7,4.4c-0.2-0.7-0.5-1.3-0.7-2c-0.2-0.9-0.4-1.8-0.5-2.6l16.8-4.5l-0.3-4.7l-1,0.3l-15.7,4.2c0.5-6,3.8-10.9,8.8-12.2
		c2.6-0.7,5.2-0.4,7.7,0.8l-0.6-9.9l-0.1-0.3c-2.8-0.3-5.8-0.1-8.7,0.6c-10.7,2.8-17.6,12.6-17.4,23.7l-4,1.1l0.3,4.7L219.7,225.4z"
		/>
	<path fill="#FFFFFF" d="M83.3,191.1v182.4c0,13.8,11.3,25.1,25.1,25.1h13.8V166.1h-13.8C94.6,166.1,83.3,177.3,83.3,191.1z"/>
	<path fill="#FFFFFF" d="M403.6,166.1h-13.8v232.6h13.8c13.8,0,25.1-11.3,25.1-25.1V191.1C428.7,177.3,417.4,166.1,403.6,166.1z"/>
	<g>
		<path fill="#FFFFFF" d="M285.5,354.6c-0.8,0.7-1.9,1.6-2.9,1.9c-1,0.3-2.4,0.7-3.4,0.7c-1,0-2.7-0.3-3.2-0.3
			c-0.2,0-1.7,0.2-2.3,0.4c0.1-0.7,0.4-2.7,0.4-3.9c0-1.2-0.1-3.2-0.7-5c-0.6-1.7-1.7-3.9-2.1-4.7c1.6-0.4,5.1-1.5,5.1-1.5l-0.7-2.9
			l-0.1-0.1l-6.5,1.7c0,0-1.5-1.2-2-1.5c-0.5-0.3-1.8-1.1-2.3-1.5c-0.5-0.5-1.5-1.3-1.8-2.1c-0.3-0.8-0.9-2.1-1-2.9
			c-0.1-0.8-0.1-1.8,0.2-2.6c0.2-0.7,0.8-2.2,1.9-3.3c0.3-0.4,1.8-1.6,2.5-1.9c0.3-0.1,1.5-0.6,3-0.6c0.6,0,2.1,0,3.1,0.5
			c0.5,0.2,1.8,1,2.3,1.4c0.3,0.3,1.3,1.3,1.8,2.5c0,0.1,0,0.1,0,0.1l7.4-2c0,0-0.5-1.4-1.1-2.4c-0.6-1.1-1.8-2.5-2.3-2.9
			c-0.4-0.4-2-1.6-2.5-1.9c-0.5-0.3-2.9-1.6-4.4-1.9c-1.5-0.3-3.8-0.6-5.3-0.4c-1,0.1-2.4,0.4-3.9,0.9c-1.3,0.4-3,1.2-4.2,2.1
			c-1.1,0.9-2.4,2.1-3.4,3.4c-1,1.3-1.2,2-1.6,2.9c-0.4,0.9-1,2.9-1.1,3.8c-0.1,0.9-0.1,2.7,0,3.7c0.2,0.9,0.6,2.6,1.1,3.7
			c0.5,1.1,1.5,2.5,2.3,3.4c0.8,0.9,2.2,2,2.2,2l0.1,0l-2.6,0.7l0.8,3.1l4.5-1.3c0,0,2,1.6,2.7,4.3c0.3,1,0.8,3.3,0.5,4.7
			c-0.1,1-0.4,3-1.8,4.3c-0.6,0.5-1.4,1.3-2.9,2.1c0,0,5.6,7.6,5.7,7.8c0.3-0.2,1-1.2,1.6-1.7c0.7-0.5,2.6-2.1,6.1-2.8
			c0.5-0.1,2.4-0.2,4.1,0.1c0.9,0.2,2.2,0.5,3.7,0.4c1.5-0.2,4.3-0.6,6.5-1.9c2.1-1.3,3.9-2.6,4.5-3.8c-0.3-0.4-6.7-7.1-6.7-7.1
			S286.3,353.9,285.5,354.6z"/>
		<path fill="#FFFFFF" d="M131.2,166.1v232.6h249.7V166.1H131.2z M230.7,184.8c21.1-5.6,42.7,6.9,48.3,28c5.6,21.1-6.9,42.7-28,48.3
			c-21.1,5.6-42.7-6.9-48.3-28C197.1,212,209.6,190.4,230.7,184.8z M189.6,338.6c-21.1,5.6-42.7-7-48.3-28c-5.6-21.1,7-42.7,28-48.3
			c21.1-5.6,42.7,6.9,48.3,28C223.2,311.4,210.6,333,189.6,338.6z M282.6,380.1c-21.1,5.6-42.7-6.9-48.3-28
			c-5.6-21.1,6.9-42.7,28-48.3c21.1-5.6,42.7,6.9,48.3,28C316.2,352.9,303.6,374.5,282.6,380.1z M342.7,297.9
			c-21.1,5.6-42.7-7-48.3-28c-5.6-21.1,7-42.7,28-48.3c21.1-5.6,42.7,6.9,48.3,28C376.3,270.7,363.8,292.3,342.7,297.9z"/>
	</g>
	<g>
		<path fill="#FFFFFF" d="M347.9,256.4c-2.5-1.7-6.5-2.6-12.1-2.7l-3.4-12.7c2.3,0.3,4.1,1.7,5.3,4.2l7.9-3.3
			c-1.4-3.1-3.4-5.3-6-6.8c-2.6-1.4-5.6-1.8-9.2-1.3l-1-3.7l-4.7,1.2l1,3.7c-3.6,1.4-6.2,3.5-7.8,6.6c-1.6,3-1.9,6.3-1,9.8
			c0.9,3.5,2.7,6.2,5.3,8.2c2.6,1.9,6.2,2.9,10.8,3l3.6,13.6c-1.3-0.3-2.6-0.9-3.9-1.9c-1.3-1-2.3-2.3-3.1-4l-8.2,3.2
			c1.8,4.1,4.1,7,7.1,8.7c3,1.7,6.4,2.3,10.3,1.8l1.2,4.4l4.7-1.2l-1.2-4.6c4.1-1.7,6.9-4.3,8.6-7.6c1.7-3.3,2-6.9,0.9-10.9
			C352.1,260.8,350.4,258.2,347.9,256.4z M326.9,251.9c-1-0.8-1.6-1.8-1.9-2.9c-0.3-1.3-0.3-2.5,0.2-3.8c0.5-1.2,1.3-2.2,2.5-3
			l3,11.2C329.1,253.2,327.9,252.7,326.9,251.9z M345,272.3c-0.7,1.5-1.8,2.6-3.4,3.3l-3.4-12.7c2.1,0,3.7,0.5,4.9,1.3
			c1.1,0.8,1.9,2,2.3,3.4C345.8,269.2,345.7,270.8,345,272.3z"/>
	</g>
	<g>
		<polygon fill="#FFFFFF" points="185.1,310.8 184.1,307 194,304.3 192.8,299.7 182.9,302.4 193.2,273.5 185.5,275.5 177.6,296.5 
			161.9,281.8 154.2,283.8 176,304.2 166.1,306.9 167.3,311.4 177.2,308.8 178.2,312.6 168.3,315.2 169.5,319.8 179.4,317.2 
			182.5,328.6 189.3,326.8 186.3,315.4 196.3,312.8 195,308.2 		"/>
	</g>
</g>
</svg>
