<svg xmlns="http://www.w3.org/2000/svg" width="512" height="512"><g fill="#fff"><path d="M153.62 344.593h-10.731c-5.113 0-9.246 4.145-9.246 9.249v56.275c-4.75.719-9.121 3.184-12.15 6.99l-5.325 6.668c-2.322 2.919-.25 7.225 3.484 7.225h272.697c3.727 0 5.81-4.306 3.484-7.225l-5.325-6.668c-2.802-3.514-6.741-5.89-11.062-6.807v-56.459c0-5.104-4.145-9.249-9.249-9.249h-8.062c.037.345.103.675.103 1.02v37.409c0 4.937-4.012 8.941-8.948 8.941-4.944 0-8.941-4.005-8.941-8.941v-37.409c0-.345.062-.675.103-1.02h-30.03c.037.345.106.675.106 1.02v37.409c0 4.937-4.001 8.941-8.949 8.941-4.933 0-8.938-4.005-8.938-8.941v-37.409c0-.345.062-.675.099-1.02h-30.025c.044.345.105.675.105 1.02v37.409c0 4.937-4.008 8.941-8.944 8.941-4.937 0-8.942-4.005-8.942-8.941v-37.409c0-.345.059-.675.095-1.02h-30.022c.041.345.103.675.103 1.02v37.409c0 4.937-4.001 8.941-8.938 8.941-4.944 0-8.949-4.005-8.949-8.941v-37.409c0-.345.062-.675.106-1.02h-30.026c.04.345.106.675.106 1.02v37.409c0 4.937-4.012 8.941-8.949 8.941s-8.945-4.005-8.945-8.941v-37.409c-.001-.344.061-.674.105-1.019zM155.483 322.771c0 4.034 3.271 7.291 7.298 7.291h186.433c4.03 0 7.295-3.257 7.295-7.291 0-4.026-3.265-7.291-7.295-7.291h-13.585v-38.172c0-2.831-2.295-5.135-5.138-5.135h-6.48c.059.338.106.675.106 1.027v24.066c0 3.176-2.582 5.758-5.758 5.758-3.184 0-5.759-2.582-5.759-5.758v-24.066c0-.353.041-.689.103-1.027h-19.393c.066.338.103.675.103 1.027v24.066c0 3.176-2.578 5.758-5.758 5.758-3.176 0-5.755-2.582-5.755-5.758v-24.066c0-.353.041-.689.106-1.027h-19.394c.059.338.103.675.103 1.027v24.066c0 3.176-2.574 5.758-5.758 5.758-3.176 0-5.754-2.582-5.754-5.758v-24.066c0-.353.041-.689.106-1.027h-19.401c.066.338.106.675.106 1.027v24.066c0 3.176-2.578 5.758-5.758 5.758s-5.754-2.582-5.754-5.758v-24.066c0-.353.044-.689.106-1.027h-19.398c.059.338.103.675.103 1.027v24.066c0 3.176-2.574 5.758-5.758 5.758-3.176 0-5.751-2.582-5.751-5.758v-24.066c0-.353.037-.689.103-1.027h-7.313c-2.838 0-5.138 2.304-5.138 5.135v38.172h-14.674c-4.028-.001-7.299 3.264-7.299 7.291zM239.484 178.242v5.875c-29.336 6.891-51.683 31.908-54.544 62.602h-3.081c-3.946 0-7.144 3.198-7.144 7.151 0 3.946 3.198 7.146 7.144 7.146h147.913c3.946 0 7.151-3.2 7.151-7.146 0-3.954-3.205-7.151-7.151-7.151h-3.077c-2.864-30.694-25.203-55.71-54.54-62.602v-5.875h-4.276v-35.674h3.917v-7.922l-6.129-6.785v-7.922h-4.31v-25.043c1.856-.777 3.169-2.604 3.169-4.746v-4.02c0-2.835-2.303-5.131-5.142-5.131h-7.849c-2.839 0-5.135 2.296-5.135 5.131v4.02c0 2.142 1.31 3.976 3.169 4.746v25.042h-4.317v7.922l-6.128 6.785v7.922h3.917v35.674h-3.557zm10.765-8.96v-18.268c0-2.835 2.299-5.134 5.138-5.134h.146c2.842 0 5.142 2.299 5.142 5.134v18.268c0 2.839-2.3 5.138-5.142 5.138h-.146c-2.839 0-5.138-2.299-5.138-5.138z"/></g></svg>