<svg xmlns="http://www.w3.org/2000/svg" width="512" height="512"><g fill="#fff"><path d="M307.229 345.189l-1.155-.422c-2.341-.937-5.795-2.208-6.82-2.591l-.473-.171c-2.509-.991-4.163-1.655-5.404-3.411-1.482-2.091-1.115-5.197.781-6.633 2.922-2.24 6.383-2.716 8.764-2.716 1.868 0 3.839.297 5.704.843 1.615.483 4.14 1.975 5.798 3.223.23.18.445.352.656.547l.191.171c.104.109.206.227.296.352.784 1.085 2.018 1.678 3.469 1.678 2.458 0 4.831-1.686 5.915-3.355.94-1.459.987-2.997.117-4.19-2.626-3.605-8.623-6.603-13.204-7.702-1.365-.32-2.778-.555-4.206-.711v-5.213c0-.804-.827-1.443-1.838-1.443h-6.317c-1.015 0-1.841.64-1.841 1.443v5.455c-4.901.796-9.248 2.567-12.369 5.158-5.439 4.519-6.984 11.276-3.824 16.833 1.529 2.7 3.926 4.886 6.762 6.165 2.205 1.007 12.857 5.377 17.977 7.469l2.54 1.037c2.231.929 4.03 2.209 4.818 3.449 1.374 2.154.757 5.112-1.357 6.595-1.627 1.14-4.104 1.748-7.184 1.748-2.735 0-5.958-.499-8.846-1.351-1.709-.491-4.171-1.748-5.72-2.91-.227-.172-.438-.352-.656-.547l-.124-.101-.07-.086c-.102-.102-.203-.211-.297-.344-.78-1.077-2.014-1.67-3.465-1.67-2.454 0-4.835 1.678-5.907 3.348-.944 1.468-.991 3.005-.117 4.198 3.371 4.651 10.594 7.344 17.84 8.374v5.244c0 .78.826 1.428 1.841 1.428h6.317c1.011 0 1.838-.647 1.838-1.428v-4.87c5.76-.397 10.668-1.88 13.742-4.229 5.479-4.19 7.57-10.59 5.322-16.325-2.474-6.291-12.303-9.787-19.494-12.339zM169.853 235.711l-7.297 35.888-35.835 39.557c-4.276 4.722-3.917 12.011.804 16.287 4.729 4.284 12.022 3.926 16.294-.804l37.958-41.898c1.397-1.538 2.341-3.411 2.755-5.447l5.221-25.653c-2.317-2.685-4.865-5.58-7.253-8.171-4.828-2.622-9.292-6.341-12.647-9.759zM225.025 163.885c-.46 3.98-2.786 9.677-2.786 9.677l21.73 6.875c2.856.905 5.935.41 8.366-1.342l27.745-19.997c4.229-3.047 5.186-8.943 2.138-13.173-3.052-4.23-8.943-5.189-13.173-2.142l-23.905 17.227-21.16-6.691c0-.002 1.502 5.59 1.045 9.566zM217.635 135.327c11.999-1.924 15.015-18.121 15.662-31.29.648-13.173-8.966-22.553-18.315-23.01-12.83-.628-21.714 9.634-22.366 22.803 1.175 21.524 16.201 32.898 25.019 31.497zM134.126 179.454l.047-.039c.558-.492 25.066-20.56 26.599-21.028.968-.296 21.863.683 21.863.683l-7.211 2.169c-3.348 14.46-12.034 42.71-13.368 55.805-.144 1.459 3.523 2.22 3.418 3.598-.234 2.836 4.261 12.701 18.69 20.126 3.629 3.929 23.251 23.675 23.466 24.135.07.749-6.321 43.483-6.321 43.483-1.034 7.148 2.907 13.297 9.567 14.141 6.672.843 12.236-3.645 13.271-10.793 0-.039 6.224-45.169 6.653-46.823 1.869-7.201-1.065-9.741-2.201-11.68-1.436-2.462-22.943-27.306-23.802-28.277 4.097-34.149 17.742-57.089 17.441-62.099-.651-10.761-3.746-14.663-3.746-14.663l-.831 1.955c.207 14.589-4.616 25.893-4.616 25.893s1.303-17.426.608-23.044c.87-1.705 1.764-3.77 1.764-3.77l-1.869-4.112s-1.252-.476-2.162-.792c-1.635.854-3.816 2.966-3.816 2.966s.698 2.556 1.958 4.939c-.308.667-1.682 8.741-4.397 17.239.535-24.032-4.147-30.435-6.032-32.265h-.039v-.008c-2.478-.258-9.326-.148-9.411-.343-6.836.472-19.241 1.83-34.836 3.605-.897.102-33.393 24.625-33.498 24.715-3.945 3.539-4.28 9.603-.741 13.547s9.604 4.283 13.552.737zM362.004 312.491l11.452-10.676-18.093-19.486-11.542 10.73c-6.934-4.986-14.87-8.686-23.45-10.746l.585-15.756-26.604-.983-.593 15.779c-8.732 1.397-16.864 4.526-24.153 8.959l-10.712-11.55-19.533 18.113 10.652 11.472c-5.002 6.922-8.787 14.858-10.886 23.489l-15.522-.569-.991 26.618 15.436.555c1.4 8.826 4.51 17.09 9.009 24.465l-11.269 10.457 18.128 19.486 11.185-10.371c7.001 5.08 15.054 8.834 23.756 10.933l-.547 15.218 26.6.96.569-15.179c8.846-1.436 17.157-4.62 24.527-9.146l10.38 11.159 19.497-18.105-10.445-11.261c5.022-7 8.74-15.015 10.785-23.716l15.451.562.976-26.579-15.521-.593c-1.447-8.749-4.62-16.973-9.127-24.239zm-27.805 67.215c-8.194 7.601-19.15 12.033-31.185 11.58-12.025-.437-22.611-5.681-30.231-13.844-7.602-8.187-12.025-19.166-11.585-31.191.464-12.011 5.669-22.624 13.863-30.217 8.206-7.593 19.158-12.033 31.185-11.604 12.033.477 22.623 5.689 30.22 13.875 7.605 8.194 12.026 19.144 11.569 31.177-.44 12.04-5.669 22.638-13.836 30.224zM221.725 384.614l-1.389-16.139-9.435.788c-1.529-5.166-4.05-9.918-7.328-13.969l6.134-7.296-12.385-10.45-6.185 7.359c-4.561-2.513-9.646-4.159-14.979-4.736l-.815-9.592-16.162 1.39.823 9.591c-5.178 1.498-9.872 3.987-13.949 7.219l-7.34-6.188-10.441 12.4 7.289 6.134c-2.521 4.58-4.207 9.653-4.834 15.038l-9.423.812 1.374 16.169 9.38-.819c1.506 5.221 4.007 9.989 7.273 14.102l-6.036 7.164 12.416 10.441 5.989-7.102c4.604 2.56 9.755 4.223 15.186 4.839l.796 9.231 16.162-1.389-.796-9.225c5.24-1.521 10.043-4.065 14.156-7.358l7.101 5.97 10.442-12.393-7.164-6.04c2.521-4.597 4.175-9.731 4.752-15.147l9.388-.804zm-29.944 13.4c-4.39 5.197-10.676 8.701-17.98 9.333-7.312.616-14.109-1.764-19.314-6.118-5.217-4.401-8.702-10.691-9.341-17.988-.625-7.327 1.748-14.116 6.134-19.314 4.394-5.205 10.684-8.701 17.988-9.341 7.312-.624 14.109 1.764 19.307 6.126 5.205 4.386 8.701 10.691 9.326 17.988.619 7.319-1.757 14.116-6.12 19.314zM384.53 212.222c-.551-5.24-2.119-10.406-4.733-15.206l7.266-6.021-10.355-12.505-7.316 6.04c-4.218-3.387-9.006-5.853-14.027-7.324l.89-9.529-16.178-1.529-.882 9.587c-5.193.542-10.324 2.087-15.065 4.659l-6.138-7.441-12.522 10.367 6.153 7.441c-3.414 4.19-5.869 8.924-7.379 13.906l-9.579-.905-1.525 16.189 9.509.89c.546 5.213 2.045 10.356 4.597 15.144l-7.297 6.056 10.371 12.541 7.258-6.036c4.229 3.449 9.006 5.958 14.047 7.483l-.878 9.344 16.182 1.514.889-9.27c5.256-.522 10.45-2.095 15.28-4.686l5.927 7.166 12.525-10.385-5.923-7.152c3.449-4.245 5.95-9.08 7.46-14.148l9.26.874 1.529-16.181-9.346-.883zm-14.484 6.918c-.647 6.793-3.827 13.278-9.501 17.961-5.662 4.678-12.631 6.594-19.4 5.997-6.805-.66-13.278-3.855-17.973-9.501-4.682-5.682-6.621-12.631-5.978-19.424.659-6.793 3.84-13.271 9.489-17.969 5.674-4.678 12.643-6.605 19.416-5.981 6.79.652 13.274 3.855 17.949 9.505 4.699 5.677 6.622 12.642 5.998 19.412z"/></g></svg>