<svg xmlns="http://www.w3.org/2000/svg" width="512" height="512"><g fill="#fff"><path d="M85.585 310.098c44.898-19.338 101.405-18.311 149.447-8.062 65.595 14.005 138.239 25.002 191.816-8.084 2.678-1.658 4.152-4.357 4.152-7.168v-34.882c0-9.629-9.192-17.435-20.527-17.435h-73.267v-19.515l34.268.055c1.225.033 2.112-.994 1.709-1.984l-18.208-37.096c-.25-.624-.052-1.317.506-1.779l6.338-5.205c1.101-.91 1.453-2.303.866-3.514l-38.119-79.173c-.359-.755-1.6-.77-2.003-.029l-45.617 87.654c-.278.536-.33 1.115-.234 1.68l14.46 12.192-7.652-2.52-12.772 27.54c-.454.983.367 2.051 1.622 2.08l28.347.044 3.947-5.447 3.279-4.516c.184-.257.66-.099.587.198l-2.23 9.772-1.636 7.142v12.42h-102.873v-11.269l21.55.019c.818.022 1.416-.664 1.152-1.328l-10.828-24.745c-.169-.418-.037-.88.334-1.188l4.24-3.481c.737-.609.968-1.541.58-2.348l-25.483-52.927c-.238-.506-1.071-.518-1.339-.019l-30.493 58.591c-.187.363-.224.752-.157 1.126l9.669 8.15-5.125-1.687-8.528 18.41c-.304.656.242 1.372 1.082 1.397l17.56.011 4.027-5.546 1.904-2.626c.191-.257.66-.106.591.194l-1.823 7.982-.671 2.931v8.353h-78.509c-11.334 0-20.523 7.806-20.523 17.435v55.775c-.001 2.004 2.471 3.324 4.584 2.422zm298.346-60.383c6.022 0 10.909 4.148 10.909 9.269 0 5.123-4.887 9.268-10.909 9.268-6.03 0-10.917-4.145-10.917-9.268 0-5.12 4.886-9.269 10.917-9.269zm-33.41 29.666c3.25 0 5.876 2.238 5.876 4.996 0 2.751-2.626 4.989-5.876 4.989-3.243 0-5.877-2.238-5.877-4.989.001-2.758 2.634-4.996 5.877-4.996zm-63.415-15.934c7.138 0 12.927 4.922 12.927 10.982 0 6.074-5.789 10.989-12.927 10.989-7.146 0-12.941-4.915-12.941-10.989 0-6.06 5.796-10.982 12.941-10.982zm-64.091 12.941c3.896 0 7.057 2.678 7.057 5.986 0 3.316-3.162 5.994-7.057 5.994-3.892 0-7.05-2.678-7.05-5.994 0-3.309 3.158-5.986 7.05-5.986zm-70.069-27.307c6.441 0 11.657 4.431 11.657 9.904 0 5.468-5.216 9.906-11.657 9.906-6.434 0-11.653-4.438-11.653-9.906 0-5.473 5.22-9.904 11.653-9.904zm-42.293 17.623c5.029 0 9.097 3.463 9.097 7.726 0 4.276-4.068 7.739-9.097 7.739s-9.104-3.463-9.104-7.739c0-4.263 4.075-7.726 9.104-7.726zM431 421.837v-45.515c0-2.003-2.479-3.323-4.586-2.421-44.897 19.331-101.408 18.312-149.454 8.062-65.587-14.012-138.228-25.002-191.812 8.085-2.67 1.65-4.148 4.357-4.148 7.167v24.621c0 2.472 2.366 4.482 5.278 4.482h339.439c2.921.001 5.283-2.009 5.283-4.481zM103.364 344.63c0 9.698 9.262 17.57 20.677 17.57 11.416 0 20.674-7.872 20.674-17.57s-9.258-17.563-20.674-17.563c-11.415-.001-20.677 7.865-20.677 17.563zM178.873 321.528c0 5.465 5.22 9.903 11.658 9.903s11.657-4.438 11.657-9.903c0-5.474-5.22-9.904-11.657-9.904s-11.658 4.431-11.658 9.904zM234.093 352.575c0 3.309 3.155 5.986 7.046 5.986 3.899 0 7.05-2.678 7.05-5.986s-3.151-5.986-7.05-5.986c-3.891 0-7.046 2.678-7.046 5.986zM283.562 345.723c0 9.142 8.716 16.544 19.464 16.544 10.762 0 19.47-7.402 19.47-16.544 0-9.134-8.708-16.543-19.47-16.543-10.748 0-19.464 7.409-19.464 16.543zM392.338 329.18c0 5.121 4.893 9.273 10.916 9.273s10.909-4.152 10.909-9.273c0-5.113-4.886-9.266-10.909-9.266s-10.916 4.152-10.916 9.266zM380.592 363.558c0 2.758 2.635 4.988 5.869 4.988 3.243 0 5.877-2.23 5.877-4.988 0-2.766-2.634-4.996-5.877-4.996-3.234 0-5.869 2.23-5.869 4.996z"/></g></svg>