<?xml version="1.0" encoding="utf-8"?>
<!-- Generator: Adobe Illustrator 18.0.0, SVG Export Plug-In . SVG Version: 6.00 Build 0)  -->
<!DOCTYPE svg PUBLIC "-//W3C//DTD SVG 1.1//EN" "http://www.w3.org/Graphics/SVG/1.1/DTD/svg11.dtd">
<svg version="1.1" id="Capa_1" xmlns="http://www.w3.org/2000/svg" xmlns:xlink="http://www.w3.org/1999/xlink" x="0px" y="0px"
	 viewBox="0 0 512 512" enable-background="new 0 0 512 512" xml:space="preserve">
<g>
	<path fill-rule="evenodd" clip-rule="evenodd" fill="#FFFFFF" d="M165.4,145.9c28.7,0,52,23.2,52,51.9s-23.3,51.9-52,51.9
		c-28.7,0-52-23.2-52-51.9S136.7,145.9,165.4,145.9L165.4,145.9z"/>
	<g>
		<path fill-rule="evenodd" clip-rule="evenodd" fill="#FFFFFF" d="M461.9,339.1h-26.4c10.4-16.3,1.7-42.6-25.3-41.4l-69.4,3
			c-10.3,0.5-10,0-19.8,3.8l-45,23.7l-18-20l34.1-0.3c15.9-0.2,27.8-13.2,24.2-28.5l-16.4-68.9c-0.8-7.9-4.5-12.9-9.4-15.6
			c8.5-2.8,16.3-5.8,22.1-8.7c-3.9-5-6.1-11.1-6.1-18.9c-10.7,2.6-22,6.2-32.7,10.4c-10.6,4.3-20.7,8.2-28.3,13.8
			c-8,5.9-8.5,13.9,4.1,12.9c3.2-0.2,6.7-0.7,10.4-1.4c-2.6,4.2-3.7,9.4-2,15.4l12.8,45.4c-20.1-5.1-37.2-8.6-55.1-9.1l2.2,20.5
			l-29.2-12l-7.4,17.8l-24.1-16.4C129,278.8,122,307.8,128,339.1h-8.5c-4.6-34.2,1.7-67.4,34.2-79.6c-43.5-7.1-91.5,5.5-77.7,52
			l8.2,27.7h-34c1.1,4.7,2.3,9.3,3.7,13.8h84.4l42.3,47.3c26.1,29.2,64.3,0,38.6-27l-19.3-20.3h48.3h57.3l73.3,50.8
			c37.8,26.2,63.8-26.6,29.3-50.5l-0.5-0.4h50.7C459.6,348.4,460.8,343.7,461.9,339.1z M266.6,199.4c-1.2-5.5-0.8-12.5,3.1-18.6
			c2.7-1.4,5.8-2.5,8.8-3.5c-2.9,4.5-4.2,12.3-2.1,19.6L266.6,199.4z M187.2,285l0.7-10.1l12.7,6.7l6.7,17L187.2,285z M203.4,281.2
			l1.3-8.9l13.8,7.8l1.8,16.5L203.4,281.2z"/>
	</g>
	<path fill-rule="evenodd" clip-rule="evenodd" fill="#FFFFFF" d="M308.7,166.7c0.1,6.2,2,13.7,6.1,18.3l2.7-1.4
		c-3.9-6-5.9-10.4-5.7-17.6L308.7,166.7L308.7,166.7z"/>
	<path fill-rule="evenodd" clip-rule="evenodd" fill="#FFFFFF" d="M314.2,165.2c-0.3,5,2.1,12.9,5.7,16.5l1.6-0.6
		c-0.1-4.7-1-11.8-5.9-16.4L314.2,165.2L314.2,165.2z"/>
	<path fill-rule="evenodd" clip-rule="evenodd" fill="#FFFFFF" d="M316,159.5c-19.8-16.2,13.8-38.2-7.6-59.8
		C341.1,120,310.9,140.1,316,159.5L316,159.5z"/>
	<path fill-rule="evenodd" clip-rule="evenodd" fill="#FFFFFF" d="M215.2,254.7c-0.5,0-1,0-1.5,0"/>
	<path fill-rule="evenodd" clip-rule="evenodd" fill="#FFFFFF" d="M178.3,260.6c6.5,0.5,12.8-0.6,17-2.8c1.5-0.8,2.6-1.7,3.5-2.7
		c-6.1,0.4-12.4,1.2-19.1,2.4c-3,0.5-5.9,1.2-8.6,1.9C173.6,259.9,175.9,260.4,178.3,260.6z"/>
</g>
</svg>
