<svg xmlns="http://www.w3.org/2000/svg" width="512" height="512"><g fill="#fff"><path d="M294.388 245.603h-.018c-4.081-.021-8.405-.268-12.935-.584-.804.128-1.617.205-2.451.205-.841 0-1.696-.073-2.537-.216-1.94-.323-3.974-.566-6.053-.779-4.699-.312-9.507-.556-14.395-.591-4.891.035-9.695.275-14.398.591-2.079.212-4.112.456-6.052.779-.841.143-1.696.216-2.541.216-.831 0-1.647-.077-2.451-.205-4.526.316-8.85.563-12.931.584h-.032c-.98-.003-1.985-.024-3.007-.063v15.827000000000002c0 .539.045 1.063.118 1.585l.007.289v-.004l5.426 72.405-25.727 69.575c-3.671 9.913 1.397 20.926 11.315 24.59 2.183.807 4.429 1.192 6.636 1.192 7.776 0 15.093-4.783 17.951-12.504l27.175-73.495c.97-2.625 1.345-5.284 1.14-8.071l-4.783-63.729h4.307l-.615 8.249 4.14 55.25c.247 3.25-.188 6.309-1.313 9.364l-2.732 7.387 24.048 65.043c2.864 7.724 10.178 12.503 17.958 12.503 2.203.004 4.445-.382 6.636-1.188 9.914-3.667 14.979-14.677 11.314-24.587l-25.733-69.582 5.43-72.401.007-.299c.069-.515.114-1.036.114-1.571v-15.823c-1.021.035-2.026.056-3.007.059h-.011zM198.734 164.605c-4.988 11.117-8.179 26.756-8.2 49.998 0 2.826.049 5.76.153 8.819.07 3.369 1.175 7.269 3.456 10.355 3.494 4.728 8.225 6.667 12.01 7.613 3.914.953 7.595 1.13 11.464 1.151 11.576-.056 25.456-2.013 39.93-1.985 6.542-.004 13.119.382 19.404 1.436 6.671 1.112 12.986-3.393 14.1-10.063 1.115-6.667-3.387-12.983-10.061-14.092-8.037-1.349-15.945-1.78-23.443-1.78-16.404.028-31.264 2.037-39.93 1.985-.949 0-1.808-.021-2.559-.059-.018-1.151-.028-2.277-.028-3.379-.031-21.956 3.323-34.334 6.427-40.786-1.814 13.376-3.378 28.396-3.365 40.782v.382c3.581-.007 8.266-.361 13.672-.758 2.235-.167 4.567-.337 6.97-.5 4.926-.487 10.123-.73 15.715-.73l1.55.014 1.544-.014c5.597 0 10.793.243 15.719.73 2.398.163 4.734.333 6.97.5 5.409.396 10.088.751 13.668.758v-.382c.021-12.386-1.547-27.406-3.364-40.782 3.107 6.452 6.462 18.83 6.427 40.786 0 1.102-.007 2.228-.024 3.379-.75.038-1.605.059-2.555.059-1.752.007-3.765-.07-5.982-.191 1.141.894 2.162 1.957 3.031 3.17 2.378 3.327 3.312 7.383 2.639 11.412-.688 4.123-2.962 7.613-6.132 9.907 2.207.104 4.373.191 6.444.202 3.869-.021 7.543-.198 11.461-1.151 3.786-.945 8.517-2.885 12.01-7.613 2.28-3.087 3.386-6.987 3.456-10.355.104-3.059.149-5.993.149-8.819-.018-23.242-3.209-38.881-8.197-49.998-4.904-11.089-12.222-17.568-18.601-20.308-3.9-1.731-7.186-2.121-9.098-2.162l-.441-.011c-.368 0-.678.014-.924.024-.782.052-1.544.181-2.273.372-6.744 6.458-15.876 10.439-25.929 10.439-10.049 0-19.181-3.98-25.925-10.439-.73-.191-1.488-.32-2.273-.372h-.003c-.247-.01-.553-.024-.921-.024l-.441.011c-1.916.042-5.197.431-9.097 2.162-6.381 2.739-13.702 9.218-18.603 20.307zM255.997 149.901c19.029 0 34.449-15.427 34.449-34.452s-15.421-34.449-34.449-34.449c-19.025 0-34.449 15.424-34.449 34.449s15.424 34.452 34.449 34.452zM202.124 142.003c-.129.021-2.482.164-4.988 1.596-2.513 1.401-5.131 4.408-5.093 9.372 0 .581.038 1.189.108 1.832.087.786.751 1.363 1.519 1.363l.174-.014c.841-.09 1.446-.848 1.352-1.689-.059-.528-.087-1.025-.087-1.491.042-3.911 1.745-5.621 3.556-6.719.914-.528 1.856-.838 2.562-1.001.702-.167 1.099-.181 1.099-.191.845-.056 1.48-.782 1.421-1.63-.056-.844-.779-1.484-1.623-1.428zM198.821 135.28c-.128.021-3.448.407-6.907 2.593-3.456 2.148-7.012 6.368-6.977 13.352 0 1.137.09 2.347.285 3.633.115.761.769 1.307 1.516 1.307l.229-.018c.834-.125 1.408-.904 1.286-1.742-.174-1.147-.253-2.204-.253-3.181.038-5.94 2.75-8.937 5.558-10.766 1.408-.893 2.843-1.439 3.914-1.752s1.714-.375 1.714-.382c.838-.104 1.439-.865 1.335-1.703-.101-.844-.862-1.442-1.7-1.341zM184.617 238.296c-.069-.845-.813-1.47-1.654-1.397-.841.07-1.467.807-1.397 1.651.018.136.198 2.44 1.647 4.891 1.391 2.437 4.332 4.988 9.115 4.988h.115c.66 0 1.355-.045 2.093-.139.837-.108 1.429-.869 1.328-1.71-.108-.838-.873-1.432-1.714-1.324-.615.073-1.185.115-1.707.115-3.792-.045-5.492-1.714-6.602-3.49-.532-.894-.848-1.818-1.022-2.51-.177-.689-.194-1.075-.202-1.075z"/><polygon points="181.565,238.55 181.565,238.55 181.565,238.55"/><path d="M178.343 243.232c-.323-1.05-.399-1.675-.414-1.675-.111-.838-.883-1.425-1.721-1.307-.837.115-1.421.89-1.303 1.728l-.007-.003c.024.129.466 3.382 2.663 6.761 2.145 3.368 6.285 6.831 13.056 6.831h.094c1.251-.003 2.583-.115 4.005-.348.834-.139 1.401-.925 1.262-1.759-.136-.838-.925-1.397-1.755-1.266-1.279.216-2.447.31-3.511.31-5.777-.031-8.749-2.684-10.592-5.437-.901-1.38-1.454-2.789-1.777-3.835zM192.581 339.146c-.344.288-.521.399-.518.406-.709.459-.907 1.408-.445 2.12.292.445.782.692 1.283.692.285 0 .577-.08.834-.25.108-.111 4.898-3.098 4.981-8.896.003-2.166-.748-4.609-2.58-7.151-.497-.688-1.449-.844-2.138-.348-.685.49-.845 1.45-.348 2.135 1.526 2.138 1.996 3.896 2.006 5.364 0 1.933-.866 3.5-1.793 4.641-.465.561-.938.998-1.282 1.287zM198.894 343.21c-.504.466-.786.664-.786.671-.685.5-.831 1.46-.33 2.145.302.406.765.622 1.234.622.316 0 .633-.097.904-.295v-.004c.111-.114 6.469-4.651 6.539-12.615.007-3.326-1.196-7.126-4.314-11.12-.521-.664-1.481-.785-2.148-.264s-.782 1.484-.264 2.151c2.777 3.577 3.66 6.64 3.664 9.232.003 3.077-1.293 5.61-2.649 7.408-.672.901-1.349 1.603-1.85 2.069zM308.243 143.435c-.056.841.584 1.568 1.433 1.627h-.007c.007 0 .399.021 1.098.188 2.194.615 6.084 1.984 6.115 7.72 0 .462-.028.959-.087 1.502-.084.841.521 1.595 1.362 1.682l.167.011c.771 0 1.436-.588 1.522-1.37.062-.633.098-1.241.098-1.825.045-4.96-2.572-7.971-5.086-9.372-2.506-1.436-4.856-1.578-4.988-1.596-.841-.055-1.571.585-1.627 1.433zM320.08 137.874c-3.452-2.187-6.775-2.573-6.904-2.593-.841-.101-1.603.497-1.703 1.342-.101.838.497 1.599 1.338 1.703 0 0 .64.069 1.711.382 3.285 1.04 9.444 3.72 9.473 12.518 0 .974-.08 2.034-.251 3.184-.125.834.452 1.613 1.29 1.738l.223.018c.751 0 1.404-.546 1.519-1.311.185-1.283.278-2.493.278-3.629.034-6.984-3.519-11.205-6.974-13.352zM327.175 239.37c-.633 2.148-2.059 5.969-7.62 5.996-.528.004-1.099-.038-1.707-.111-.845-.111-1.605.486-1.714 1.324-.11.841.487 1.603 1.325 1.714.733.09 1.429.135 2.096.135h.111c4.779 0 7.724-2.551 9.121-4.988 1.446-2.45 1.627-4.762 1.645-4.891.069-.841-.56-1.582-1.397-1.651-.845-.069-1.589.553-1.654 1.401v-.003c-.001.003-.029.386-.206 1.074zM321.376 255.565c6.771 0 10.912-3.462 13.057-6.831 2.2-3.379 2.639-6.632 2.663-6.761.114-.838-.473-1.609-1.311-1.724-.838-.118-1.609.473-1.721 1.311v-.003c0 .003-.091.625-.41 1.675-1.071 3.215-3.817 9.25-12.368 9.271-1.067 0-2.239-.094-3.511-.31-.835-.139-1.624.428-1.763 1.266-.136.834.428 1.62 1.266 1.762 1.421.229 2.753.341 4.008.344h.09zM318.258 342.111c.258.17.55.25.835.25.497 0 .987-.243 1.282-.688.459-.709.261-1.661-.441-2.12v-.003s-.181-.111-.521-.403c-1.067-.883-3.097-3.056-3.076-5.927.011-1.468.477-3.227 2.009-5.364.49-.688.338-1.641-.351-2.135-.688-.493-1.645-.337-2.135.348-1.839 2.545-2.586 4.988-2.582 7.151.082 5.798 4.868 8.784 4.98 8.891zM312.001 322.35c-.667-.521-1.63-.4-2.145.268-3.129 3.994-4.324 7.79-4.317 11.109.069 7.971 6.431 12.508 6.538 12.622.271.202.588.296.9.296.473 0 .938-.213 1.241-.626.497-.678.352-1.634-.33-2.138v-.004s-.285-.205-.789-.671c-1.529-1.411-4.526-4.873-4.502-9.479.007-2.586.887-5.648 3.668-9.229.518-.664.404-1.631-.264-2.148z"/></g></svg>