<svg xmlns="http://www.w3.org/2000/svg" width="512" height="512"><g fill="#fff"><path d="M419.384 399.137h-326.768c-6.412 0-11.616 5.199-11.616 11.617s5.204 11.616 11.616 11.616h326.768c6.412 0 11.616-5.198 11.616-11.616s-5.204-11.617-11.616-11.617zM205.897 223.066c0-4.302-3.493-7.79-7.795-7.79h-64.833c-4.302 0-7.791 3.488-7.791 7.79v161.074h80.419v-161.074zM295.633 259.857h-64.833c-4.313 0-7.795 3.488-7.795 7.79v116.493h80.419v-116.493c0-4.301-3.488-7.79-7.791-7.79zM320.536 307.772v76.368h80.414v-76.368c0-4.302-3.488-7.795-7.796-7.795h-64.833c-4.302.001-7.785 3.494-7.785 7.795zM226.001 188.191c2.93 2.93 6.822 4.548 10.971 4.548 4.138-.005 8.036-1.619 10.966-4.548l31.382-31.397 58.262 58.246h-26.875c-7.304 0-13.225 5.921-13.225 13.23s5.921 13.23 13.225 13.23h59.962c3.483 0 6.89-1.414 9.353-3.877 2.464-2.464 3.878-5.87 3.878-9.353v-59.967c0-7.309-5.921-13.23-13.23-13.23s-13.229 5.921-13.229 13.23v22.731l-67.158-67.143c-2.889-2.889-6.884-4.548-10.972-4.548-4.082.005-8.077 1.66-10.966 4.548l-31.382 31.397-61.104-61.115c-6.059-6.059-15.878-6.059-21.942 0-6.054 6.054-6.054 15.878 0 21.932l72.084 72.086z"/></g></svg>