<?xml version="1.0" encoding="utf-8"?>
<!-- Generator: Adobe Illustrator 18.0.0, SVG Export Plug-In . SVG Version: 6.00 Build 0)  -->
<!DOCTYPE svg PUBLIC "-//W3C//DTD SVG 1.1//EN" "http://www.w3.org/Graphics/SVG/1.1/DTD/svg11.dtd">
<svg version="1.1" id="Capa_1" xmlns="http://www.w3.org/2000/svg" xmlns:xlink="http://www.w3.org/1999/xlink" x="0px" y="0px"
	 viewBox="0 0 512 512" enable-background="new 0 0 512 512" xml:space="preserve">
<g>
	<g>
		<polygon fill="#FFFFFF" points="256.7,261.3 260.9,269.8 270.3,271.1 263.5,277.7 265.1,287.1 256.7,282.7 248.3,287.1 
			249.9,277.7 243.1,271.1 252.5,269.8 		"/>
	</g>
	<polygon fill="#FFFFFF" points="255.5,260.8 240.8,250 248.1,224.9 263.3,224.9 	"/>
	<g>
		<polygon fill="#FFFFFF" points="264.7,227.7 271.2,250 257.7,259.9 		"/>
	</g>
</g>
<g>
	<g>
		<polygon fill="#FFFFFF" points="256.7,261.3 260.9,269.8 270.3,271.1 263.5,277.7 265.1,287.1 256.7,282.7 248.3,287.1 
			249.9,277.7 243.1,271.1 252.5,269.8 		"/>
	</g>
	<polygon fill="#FFFFFF" points="255.5,260.8 240.8,250 248.1,224.9 263.3,224.9 	"/>
	<g>
		<polygon fill="#FFFFFF" points="264.7,227.7 271.2,250 257.7,259.9 		"/>
	</g>
</g>
<g>
	<path fill="#FFFFFF" d="M454.4,357.5h-1l-8.8-221.8c0-11.7-6.6-22.1-17.1-27.2c-0.1-0.1-99.4-17.5-99.4-17.5
		c0.7-6.1-1-12.1-4.8-16.4c-3.6-4.1-8.7-6.4-14-6.3H202.6c-5.3-0.2-10.4,2.1-14,6.3c-3.9,4.5-5.6,10.6-4.7,16.9c0,0-15,2.6-33.3,5.7
		c-0.5-2-0.8-3-0.8-3l-44,7.4c0.1,1.1,0.2,2.1,0.4,3.2c-12.6,2.2-21.6,3.7-21.7,3.7c-10.5,5.1-17.1,15.5-17.1,27.2l-8.8,221.8h-1
		c-3,0-5.4,2.4-5.4,5.3v31.4c0,3,2.4,5.4,5.4,5.4h48.3v38.8c0,3,2.4,5.4,5.3,5.4h289.5c3,0,5.4-2.4,5.4-5.4v-38.8h48.3
		c3,0,5.3-2.4,5.3-5.4v-31.4C459.8,359.9,457.4,357.5,454.4,357.5z M306.5,98.2c3.7-6.2,4.2-13.3,1.5-19.2c0,0,1.5,0,1.6,0
		c2.1-0.1,4.2,0.9,5.7,2.6c1.9,2.2,2.7,5.3,2.1,8.8l-6.2,41l-25.2,0L306.5,98.2C306.5,98.2,306.5,98.2,306.5,98.2z M272.6,185.8
		l-10.1-16.3l13.6-22l22.5,20.5L272.6,185.8z M274.9,209.9l-61.2-41.8l22.5-20.5L274.9,209.9z M256.1,159.3l-36.5-59h73L256.1,159.3
		z M214.3,82.6c1.3-2.3,3.5-3.6,6.1-3.6h71.4c2.6,0,4.8,1.3,6.1,3.6c1.2,2.1,1.4,4.6,0.7,7.1h-85C212.9,87.1,213.1,84.6,214.3,82.6z
		 M196.6,81.5c1.5-1.7,3.6-2.7,5.7-2.6c0.1,0,1.9,0,1.9,0c-2.7,6-2.1,13,1.5,19.2c0,0,0,0.1,0,0.1l20.5,33.2l-25.4,0l-6.2-41.1
		C194,86.9,194.7,83.8,196.6,81.5z M185.5,102.2l5.4,35.3c0.4,2.6,2.6,4.5,5.3,4.5l30.1,0l-24.8,22.6c-1.2,1.1-1.8,2.7-1.7,4.3
		c0.1,1.6,1,3.1,2.3,4l85.3,58.3v53c-86.8-47.5-123-141.9-133.9-176.9L185.5,102.2z M87.7,388.9H62.9v-20.7h38.8L87.7,388.9z
		 M116.6,433.1V198.4c0-3-2.4-5.4-5.4-5.4c-3,0-5.4,2.4-5.4,5.4v75.6H95.4c-3,0-5.4,2.4-5.4,5.4c0,3,2.4,5.3,5.4,5.3h10.5v72.9H69.3
		L78,136c0-0.1,0-0.1,0-0.2c0-7.5,4.2-14.3,10.9-17.6l18.4-3c21.7,167.4,107.6,223.9,180,241v76.9H116.6z M395.4,433.1h-97.3v-74.6
		c53.6,10.1,97.3-0.3,97.3-0.3V433.1z M414.9,273.9h-8.8v-75.6c0-3-2.4-5.4-5.4-5.4c-3,0-5.4,2.4-5.4,5.4v114.1
		c-37.6-0.9-69.8-9.3-97.3-22.5v-61.4c0-1-0.3-2-0.8-2.8l-19.1-30.8l32-21.9c1.4-0.9,2.2-2.4,2.3-4c0.1-1.6-0.5-3.2-1.7-4.3
		L286,142.1l29.8,0c2.6,0,4.9-1.9,5.3-4.5l5.4-35.8l96.5,16.4c6.7,3.4,10.9,10.1,10.9,17.6c0,0.1,0,0.1,0,0.2l8.8,221.5h-36.6v-72.9
		h8.8c3,0,5.4-2.4,5.4-5.4C420.2,276.3,417.8,273.9,414.9,273.9z M449.1,388.9h-24.7l-14.1-20.7h38.8V388.9z"/>
</g>
</svg>
