<svg xmlns="http://www.w3.org/2000/svg" width="512" height="512"><g fill="#fff"><path d="M91.912 266.108c3.857 4.595 10.713 5.2 15.308 1.339l104.717-87.864c14.321 14.984 28.653 31.475 43.135 48.816 1.24 1.492 3.409 1.773 4.986.652l3.202-2.262c1.183-.844 1.773-2.312 1.488-3.74-3.422-17.52-13.976-42.505-27.727-66.482l7.771-6.521c2.963-2.49 3.355-6.91.866-9.88l-11.39-13.57c-2.49-2.971-6.91-3.355-9.873-.869l-4.609 3.868c-8.427-11.803-17.345-22.353-26.139-30.334-3.287-2.985-8.242-3.088-11.643-.231l-23.475 19.699c-2.112 1.771-3.277 4.424-3.159 7.177.125 2.75 1.51 5.293 3.768 6.871 9.328 6.543 18.585 14.09 27.806 22.41l-102.06 85.64c-4.602 3.857-5.2 10.713-1.343 15.308l8.371 9.973zM426.181 92.704l-73.11 31.966c-3.131 1.368-5.784 3.672-7.59 6.575l-122.2 196.879c-.833 1.339-2.418 2.052-3.979 1.773l-69.499-12.259c-3.124-.549-6.283.861-7.96 3.547l-58.604 93.942c-1.211 1.945.185 4.46 2.476 4.46h340.027c2.903 0 5.258-2.352 5.258-5.258v-318.473c0-2.479-2.547-4.146-4.819-3.152zM285.727 169.667c0 5.204 4.217 9.428 9.421 9.428 5.203 0 9.424-4.224 9.424-9.428s-4.221-9.42-9.424-9.42c-5.205 0-9.421 4.217-9.421 9.42zM278.461 207.859c3.056 0 5.538-2.479 5.538-5.535 0-3.063-2.482-5.538-5.538-5.538-3.06 0-5.535 2.475-5.535 5.538 0 3.056 2.475 5.535 5.535 5.535zM235.24 240.024c0 3.06 2.475 5.542 5.531 5.542 3.06 0 5.542-2.482 5.542-5.542 0-3.056-2.482-5.538-5.542-5.538-3.056 0-5.531 2.483-5.531 5.538zM266.572 179.438c3.839 0 6.956-3.109 6.956-6.953 0-3.839-3.117-6.956-6.956-6.956-3.84 0-6.952 3.117-6.952 6.956 0 3.843 3.112 6.953 6.952 6.953z"/></g></svg>