<svg xmlns="http://www.w3.org/2000/svg" width="512" height="512"><g fill="#fff"><path d="M351.355 186.721c-1.349-1.687-3.398-2.67-5.559-2.67h-179.593c-2.161 0-4.209.983-5.559 2.67l-44.542 55.659c-2.082 2.605-2.082 6.295 0 8.901l134.334 167.875c1.349 1.688 3.398 2.67 5.558 2.67s4.21-.982 5.559-2.67l134.344-167.875c2.081-2.605 2.081-6.295 0-8.901l-44.542-55.659zm-50.591 67.513l-44.583 130.982-44.588-130.982h89.171zm-82.268-14.242l37.518-38.617 37.769 38.617h-75.287zm54.425-41.7h60.007l-23.448 37.384-36.559-37.384zm-70.09 37.384l-23.689-37.384h60.007l-36.318 37.384zm-14.121 4.316h-52.46l29.28-36.582 23.18 36.582zm7.839 14.242l44.305 130.153-104.149-130.153h59.844zm119.254 0h59.492l-103.523 129.36 44.031-129.36zm7.774-14.242l22.925-36.544 29.248 36.544h-52.173z"/><polygon points="127.155,177.236 155.666,168.419 127.155,159.602 118.328,131.086 109.511,159.602 81,168.419 109.511,177.236 118.328,205.747"/><polygon points="402.489,159.602 393.662,131.086 384.845,159.602 356.334,168.419 384.845,177.236 393.662,205.747 402.489,177.236 431,168.419"/><polygon points="255.995,169.587 265.379,139.259 295.706,129.881 265.379,120.498 255.995,90.174 246.622,120.498 216.294,129.881 246.622,139.259"/></g></svg>