<svg xmlns="http://www.w3.org/2000/svg" width="512" height="512"><path fill-rule="evenodd" clip-rule="evenodd" fill="#fff" d="M159.535 338.767h63.698v30.125h72.697v-30.125h60.522l40.135 92.233h-281.173l44.121-92.233zm234.567-127.273h-24.4c-.999 29.733-13.454 56.574-33.114 76.213-20.511 20.491-49.937 33.194-81.2 33.194-31.28 0-58.49-12.703-79.004-33.194-19.658-19.64-32.113-46.48-33.108-76.213h-24.891v-28.758l19.108-5.698c6.493-26.557 21.39-49.797 41.701-66.771 4.763 20.982 13.736 37.769 26.944 50.308h5.089c-11.519-26.113-17.28-45.709-18.479-60.198 19.456-12.296 42.515-19.377 67.219-19.377 23.588 0 44.834 6.473 62.66 17.726-.871 14.633-6.634 34.74-18.602 61.849h5.091c13.494-12.803 22.549-30.037 27.229-51.651 19.804 17.178 33.741 41.105 39.604 68.542l18.153 5.271v28.757zm-135.54-80.265c-14.186 0-25.684 11.496-25.684 25.682 0 14.205 11.498 25.725 25.684 25.725 14.207 0 25.724-11.52 25.724-25.725 0-14.186-11.516-25.682-25.724-25.682zm78.514 80.265h-161.178c.977 20.739 9.766 39.439 23.524 53.198 14.613 14.568 34.782 23.607 57.067 23.607 22.283 0 42.451-9.039 57.063-23.607 13.758-13.759 22.549-32.46 23.524-53.198z"/></svg>