<?xml version="1.0" encoding="utf-8"?>
<!-- Generator: Adobe Illustrator 16.0.0, SVG Export Plug-In . SVG Version: 6.00 Build 0)  -->
<!DOCTYPE svg PUBLIC "-//W3C//DTD SVG 1.1//EN" "http://www.w3.org/Graphics/SVG/1.1/DTD/svg11.dtd">
<svg version="1.1" id="Layer_1" xmlns="http://www.w3.org/2000/svg" xmlns:xlink="http://www.w3.org/1999/xlink" x="0px" y="0px"
	 width="512px" height="512px" viewBox="0 0 512 512" enable-background="new 0 0 512 512" xml:space="preserve">
<path fill-rule="evenodd" clip-rule="evenodd" fill="#FFFFFF" d="M318.602,326.06c6.649,4.857,10.936,12.496,10.003,20.995
	l-3.318,30.476c-1.578,14.424-11.894,26.406-26.413,26.406h-88.826c-14.522,0-24.837-11.965-26.412-26.406l-3.323-30.476
	c-1.05-9.593,4.541-18.103,12.677-22.724c-18.793-39.471-28.78-78.937-34.268-118.412c-7.735,3.422-19.998,6.318-39.252,6.028
	c-45.136-0.668-65.353-15.491-65.353-15.491s4.719-26.274,41.772-37.059c26.789-7.79,51.819,4.489,63.63,11.894
	c1.256-3.249,2.668-6.347,4.204-9.342c-28.109-21.16-39.093-52.092-37.953-89.958c14.67,26.49,32.249,49.68,59.029,62.406
	c39.059-35.248,103.785-35.248,142.847-0.014c26.772-12.724,44.336-35.91,59.004-62.392c1.141,37.844-9.831,68.772-37.91,89.932
	c1.527,2.996,2.927,6.108,4.182,9.354c11.82-7.397,36.834-19.669,63.618-11.879c37.054,10.785,41.769,37.059,41.769,37.059
	s-20.22,14.823-65.355,15.491c-19.254,0.291-31.515-2.605-39.254-6.028C348.136,245.966,337.937,286.018,318.602,326.06
	L318.602,326.06z M448.646,194.485c-22.521-20.458-68.336-21.864-93.374,4.394C388.175,207.799,415.339,207.014,448.646,194.485
	L448.646,194.485z M212.971,414.148h85.845C279.905,437.933,232.73,436.347,212.971,414.148L212.971,414.148z M63.779,194.485
	c33.306,12.529,60.47,13.314,93.385,4.394C132.113,172.621,86.299,174.026,63.779,194.485L63.779,194.485z M225.805,340.549
	c-6.309,0-11.426,3.021-11.426,6.747c0,3.73,5.117,6.751,11.426,6.751c6.311,0,11.428-3.021,11.428-6.751
	C237.233,343.57,232.116,340.549,225.805,340.549L225.805,340.549z M287.16,340.549c-6.314,0-11.436,3.021-11.436,6.747
	c0,3.73,5.121,6.751,11.436,6.751c6.307,0,11.423-3.021,11.423-6.751C298.583,343.57,293.467,340.549,287.16,340.549z"/>
<g>
	<path fill="#FFFFFF" d="M126.615,347.792c8.513-8.513,7.893-22.939,7.893-22.939s-14.427-0.625-22.939,7.899
		c-1.489,1.486-2.695,3.153-3.677,4.9l-0.136-13.52c4.908-0.444,13.187-2.063,18.86-7.742c8.513-8.509,7.893-22.943,7.893-22.943
		s-14.427-0.613-22.939,7.899c-1.655,1.656-2.958,3.524-3.993,5.481l-0.069-6.777c3.035-3.986,6.743-10.286,6.743-17.393
		c0-12.045-10.642-21.806-10.642-21.806s-10.64,9.761-10.64,21.806c0,7.282,3.886,13.715,6.958,17.676l0.062,6.006
		c-0.991-1.773-2.215-3.48-3.73-4.993c-8.514-8.513-22.943-7.899-22.943-7.899s-0.619,14.435,7.896,22.943
		c5.707,5.712,14.062,7.313,18.958,7.749l0.144,14.2c-1.043-1.986-2.366-3.902-4.055-5.588c-8.514-8.524-22.943-7.899-22.943-7.899
		s-0.619,14.427,7.896,22.939c5.832,5.841,14.434,7.386,19.276,7.774l0.148,14.81c-1.085-2.22-2.512-4.364-4.378-6.226
		c-8.514-8.51-22.943-7.901-22.943-7.901s-0.619,14.436,7.896,22.949c5.961,5.968,14.822,7.451,19.599,7.805l0.269,26.371
		l7.583-0.072l-0.273-26.428c4.969-0.532,12.792-2.239,18.227-7.676c8.513-8.514,7.893-22.949,7.893-22.949
		s-14.427-0.608-22.939,7.901c-1.333,1.327-2.439,2.809-3.367,4.342l-0.132-12.983C113.017,355.017,121.067,353.338,126.615,347.792
		z"/>
	<rect x="74.598" y="245.475" fill="#FFFFFF" width="7.583" height="32.862"/>
	<rect x="99.454" y="220.203" fill="#FFFFFF" width="7.577" height="32.855"/>
	<rect x="124.303" y="245.475" fill="#FFFFFF" width="7.58" height="32.862"/>
</g>
<g>
	<path fill="#FFFFFF" d="M431.217,347.792c8.509-8.513,7.892-22.939,7.892-22.939s-14.427-0.625-22.943,7.899
		c-1.486,1.486-2.693,3.153-3.674,4.9l-0.137-13.52c4.909-0.444,13.188-2.063,18.862-7.742c8.509-8.509,7.892-22.943,7.892-22.943
		s-14.427-0.613-22.943,7.899c-1.652,1.656-2.955,3.524-3.991,5.481l-0.069-6.777c3.036-3.986,6.743-10.286,6.743-17.393
		c0-12.045-10.641-21.806-10.641-21.806s-10.638,9.761-10.638,21.806c0,7.282,3.883,13.715,6.955,17.676l0.062,6.006
		c-0.989-1.773-2.216-3.48-3.729-4.993c-8.517-8.513-22.943-7.899-22.943-7.899s-0.618,14.435,7.896,22.943
		c5.709,5.712,14.064,7.313,18.961,7.749l0.14,14.2c-1.042-1.986-2.363-3.902-4.053-5.588c-8.517-8.524-22.943-7.899-22.943-7.899
		s-0.618,14.427,7.896,22.939c5.834,5.841,14.435,7.386,19.277,7.774l0.146,14.81c-1.084-2.22-2.512-4.364-4.376-6.226
		c-8.517-8.51-22.943-7.901-22.943-7.901s-0.618,14.436,7.896,22.949c5.962,5.968,14.819,7.451,19.601,7.805l0.267,26.371
		l7.584-0.072l-0.274-26.428c4.972-0.532,12.794-2.239,18.23-7.676c8.509-8.514,7.892-22.949,7.892-22.949
		s-14.427-0.608-22.943,7.901c-1.329,1.327-2.437,2.809-3.362,4.342l-0.131-12.983C417.616,355.017,425.666,353.338,431.217,347.792
		z"/>
	<rect x="379.198" y="245.475" fill="#FFFFFF" width="7.58" height="32.862"/>
	<rect x="404.051" y="220.203" fill="#FFFFFF" width="7.577" height="32.855"/>
	<rect x="428.903" y="245.475" fill="#FFFFFF" width="7.577" height="32.862"/>
</g>
<g>
	<path fill="#F095AB" d="M298.826,233.408c0,7.364-3.091,13.679-9.272,18.946c-6.186,5.271-14.394,8.255-24.633,8.946v23.719
		h-11.362v-23.325c-4.88-0.041-10.519-0.628-16.922-1.759c-6.399-1.135-11.41-2.544-15.024-4.251v-19.07h2.942
		c4.007,2.172,8.61,3.92,13.81,5.224c5.207,1.307,10.38,2.151,15.522,2.551v-17.904l-6.34-1.435
		c-4.007-0.911-7.698-1.982-11.069-3.198c-3.379-1.226-6.287-2.837-8.727-4.838c-2.436-2.001-4.333-4.475-5.682-7.419
		c-1.349-2.937-2.023-6.56-2.023-10.869c0-6.491,2.957-12.045,8.883-16.66c5.922-4.617,14.131-7.404,24.628-8.366v-15.216h11.362
		v15.087c4.01,0.177,8.701,0.741,14.083,1.696c5.377,0.958,9.613,2.074,12.7,3.33v18.821h-2.87
		c-3.091-1.788-6.681-3.264-10.777-4.441c-4.098-1.183-8.473-1.92-13.136-2.225v16.593l5.23,1.045
		c9.843,1.92,17.082,4.827,21.719,8.722C296.51,221.011,298.826,226.44,298.826,233.408z M254.602,205.909v-15.157
		c-2.872,0.22-5.451,0.947-7.74,2.191c-2.285,1.241-3.427,2.992-3.427,5.257c0,2.049,0.738,3.638,2.22,4.769
		C247.134,204.103,250.118,205.079,254.602,205.909z M275.119,235.959c0-2.525-1.168-4.413-3.498-5.649
		c-2.332-1.245-4.647-2.038-6.956-2.39v16.199c2.874-0.385,5.336-1.226,7.378-2.515C274.091,240.328,275.119,238.44,275.119,235.959
		z"/>
</g>
<g>
</g>
<g>
</g>
<g>
</g>
<g>
</g>
<g>
</g>
<g>
</g>
<g>
</g>
<g>
</g>
<g>
</g>
<g>
</g>
<g>
</g>
<g>
</g>
<g>
</g>
<g>
</g>
<g>
</g>
</svg>
