<?xml version="1.0" encoding="utf-8"?>
<!-- Generator: Adobe Illustrator 18.0.0, SVG Export Plug-In . SVG Version: 6.00 Build 0)  -->
<!DOCTYPE svg PUBLIC "-//W3C//DTD SVG 1.1//EN" "http://www.w3.org/Graphics/SVG/1.1/DTD/svg11.dtd">
<svg version="1.1" id="Capa_1" xmlns="http://www.w3.org/2000/svg" xmlns:xlink="http://www.w3.org/1999/xlink" x="0px" y="0px"
	 viewBox="0 0 512 512" enable-background="new 0 0 512 512" xml:space="preserve">
<g>
	<path fill="#FFFFFF" d="M444.8,206.5c-23.1,0-55.4,35.4-64.8,46.3l-28.5-1.1l24.8-12.9l-3.1-6l-35.3,18.4l-27.3-1l30.2-29.1
		l-4.6-4.8l-34.9,33.6l-26.3-1l32-43.1l-5.4-4l-34.8,46.8l-26.9-1l33-57l-5.8-3.4l-34.7,60.2l-30.1-1.1
		c2.6-35.8,17.2-63.6-20.1-63.6c-40.5,0-127,46.3-127,86.8c0,0,86.5,59.9,127,59.9c37.2,0,22.7-27.7,20.1-63.6l30.1-1.1l34.7,60.1
		l5.8-3.3l-33-57.1l26.9-1l34.7,46.8l5.4-4l-32-43.1l26.4-1l34.9,33.6l4.6-4.8l-30.2-29.1l27.3-1l35.3,18.3l3.1-5.9l-24.8-12.9
		l28.4-1c9.4,10.9,41.7,46.3,64.8,46.3c27.3,0-0.1-22.2-0.1-49.5C444.6,228.7,472.1,206.5,444.8,206.5z M146.7,241.9l-14.6-8.7
		l-8.7,14.6l-5.5-3.3l8.7-14.6l-14.6-8.7l3.3-5.5l14.6,8.7l8.7-14.6l5.5,3.3l-8.7,14.6l14.6,8.7L146.7,241.9z"/>
</g>
</svg>
