<svg xmlns="http://www.w3.org/2000/svg" width="512" height="512"><g fill="#fff"><path d="M368.355 81h-166.627l-74.604 80.657v252.819c.022 9.143 7.396 16.501 16.527 16.523h224.704c9.125-.022 16.498-7.388 16.521-16.523v-316.949c-.022-9.139-7.396-16.505-16.521-16.527zm3.606 333.477c0 .995-.391 1.857-1.069 2.543-.682.679-1.551 1.062-2.536 1.062h-224.705c-.991 0-1.865-.384-2.544-1.062-.682-.686-1.062-1.548-1.062-2.543v-247.183h68.053l2.227-73.38h158.03c.985 0 1.854.391 2.536 1.065.672.678 1.062 1.548 1.069 2.547v316.951zM328.65 325.365h-151.762c-2.976 0-5.395 2.415-5.395 5.394 0 2.982 2.419 5.397 5.395 5.397h151.762c2.979 0 5.394-2.415 5.394-5.397 0-2.979-2.415-5.394-5.394-5.394zM182.192 319.714h25.084c1.316 0 2.386-.881 2.386-1.973l-3.713-16.02c0-1.083-1.069-1.972-2.385-1.972h-5.825v-29.708l.033-.015 43.559-20.184c-.026.31-.045.619-.045.933 0 1.312.222 2.562.612 3.735h-5.235l-23.053 65.203h15.491l1.936-5.472.866-.737h42.312l.72.608 1.982 5.601h15.488l-23.053-65.203h-5.239c.398-1.172.62-2.422.62-3.735 0-3.923-1.933-7.384-4.889-9.515l34.386-15.93c7.679 11.724 15.808 21.538 21.877 24.601v59.451h-4.41c-.925 0-1.67.462-1.67 1.021v8.291c0 .564.745 1.019 1.67 1.019h12.358c.922 0 1.674-.454 1.674-1.019v-8.291c0-.56-.752-1.021-1.674-1.021h-3.809v-58.515c.476-.066.937-.188 1.36-.409 8.052-4.244 2.739-36.421-9.471-59.629-12.214-23.204-20.521-23.145-28.572-18.909-8.048 4.24-12.793 11.049-.582 34.257.438.833.881 1.67 1.338 2.51l-94.671 43.872c-4.826 2.241-6.92 7.971-4.671 12.793 1.294 2.794 3.771 4.63 6.551 5.282v29.114h-5.626c-1.319 0-2.381.889-2.381 1.972l-3.717 16.02c.003 1.093 1.072 1.974 2.388 1.974zm105.934-137.883c2.021-.096 3.742 1.46 3.842 3.48.096 2.02-1.46 3.742-3.48 3.841-2.021.096-3.742-1.46-3.838-3.48-.104-2.02 1.453-3.741 3.476-3.841zm-46.954 103.747l5.475 4.627-10.142 8.571 4.667-13.198zm.534 19.647l11.355-9.601 11.352 9.601h-22.707zm23.164-19.577l4.598 13.003-9.991-8.446 5.393-4.557zm-11.863-38.537c2.027 0 3.664 1.641 3.664 3.665s-1.637 3.665-3.664 3.665c-2.021 0-3.661-1.641-3.661-3.665s1.64-3.665 3.661-3.665zm-6.755 24.096h13.512l2.149 6.091-8.852 7.488-8.937-7.558 2.128-6.021zm-56.506-10.152c0-2.023 1.641-3.665 3.661-3.665 2.027 0 3.665 1.642 3.665 3.665s-1.638 3.66-3.665 3.66c-2.02 0-3.661-1.637-3.661-3.66z"/></g></svg>