<?xml version="1.0" encoding="utf-8"?>
<!-- Generator: Adobe Illustrator 16.0.0, SVG Export Plug-In . SVG Version: 6.00 Build 0)  -->
<!DOCTYPE svg PUBLIC "-//W3C//DTD SVG 1.1//EN" "http://www.w3.org/Graphics/SVG/1.1/DTD/svg11.dtd">
<svg version="1.1" id="Layer_1" xmlns="http://www.w3.org/2000/svg" xmlns:xlink="http://www.w3.org/1999/xlink" x="0px" y="0px"
	 width="512px" height="512px" viewBox="0 0 512 512" enable-background="new 0 0 512 512" xml:space="preserve">
<g>
	<path fill="#FFFFFF" d="M184.441,432.471v-71.13h23.044c8.736,0,14.427,0.356,17.082,1.067c4.074,1.066,7.484,3.391,10.237,6.961
		c2.751,3.572,4.121,8.193,4.121,13.854c0,4.368-0.791,8.041-2.373,11.01c-1.586,2.979-3.599,5.316-6.04,7.017
		c-2.446,1.695-4.925,2.82-7.452,3.372c-3.429,0.682-8.391,1.02-14.895,1.02H198.8v26.83H184.441L184.441,432.471z M198.801,373.376
		v20.185h7.86c5.665,0,9.445-0.371,11.356-1.119c1.904-0.74,3.401-1.904,4.486-3.491c1.085-1.589,1.629-3.429,1.629-5.533
		c0-2.586-0.766-4.724-2.284-6.403c-1.518-1.678-3.445-2.731-5.771-3.15c-1.719-0.321-5.163-0.485-10.334-0.485h-6.942V373.376z"/>
	<path fill="#FFFFFF" d="M250.281,432.471v-71.13h14.363v71.13H250.281z"/>
	<path fill="#FFFFFF" d="M278.373,361.341h28.432c5.633,0,9.824,0.238,12.592,0.705c2.765,0.468,5.237,1.446,7.427,2.937
		c2.182,1.488,4.001,3.47,5.456,5.94c1.459,2.478,2.182,5.249,2.182,8.322c0,3.332-0.893,6.391-2.688,9.173
		c-1.792,2.779-4.231,4.863-7.308,6.262c4.34,1.258,7.669,3.407,9.996,6.445c2.331,3.046,3.496,6.618,3.496,10.728
		c0,3.232-0.752,6.381-2.255,9.436c-1.506,3.057-3.559,5.502-6.166,7.325c-2.604,1.832-5.812,2.953-9.63,3.371
		c-2.393,0.264-8.166,0.423-17.319,0.486h-24.213L278.373,361.341L278.373,361.341z M292.736,373.182v16.447h9.412
		c5.593,0,9.071-0.079,10.434-0.243c2.458-0.29,4.389-1.142,5.796-2.547c1.407-1.407,2.111-3.257,2.111-5.558
		c0-2.196-0.608-3.984-1.816-5.362c-1.217-1.372-3.02-2.207-5.411-2.499c-1.43-0.156-5.521-0.238-12.279-0.238H292.736
		L292.736,373.182z M292.736,401.465v19.021h13.296c5.172,0,8.454-0.146,9.851-0.437c2.135-0.392,3.869-1.334,5.214-2.839
		c1.342-1.506,2.014-3.519,2.014-6.04c0-2.137-0.516-3.945-1.556-5.434c-1.036-1.489-2.529-2.571-4.485-3.253
		c-1.96-0.679-6.206-1.021-12.737-1.021L292.736,401.465L292.736,401.465z"/>
</g>
<g>
	<path fill="#FFFFFF" d="M302.568,129.525c0,8.145-3.42,15.128-10.256,20.956c-6.842,5.827-15.924,9.131-27.244,9.897v26.229
		h-12.567v-25.796c-5.397-0.047-11.637-0.698-18.719-1.948c-7.077-1.255-12.619-2.815-16.616-4.7v-21.095h3.253
		c4.432,2.407,9.522,4.333,15.277,5.78c5.759,1.446,11.479,2.381,17.166,2.819v-19.799l-7.009-1.59
		c-4.432-1.007-8.515-2.19-12.246-3.538c-3.739-1.353-6.953-3.135-9.65-5.351c-2.697-2.211-4.793-4.947-6.287-8.2
		c-1.493-3.254-2.237-7.26-2.237-12.028c0-7.179,3.271-13.32,9.826-18.424c6.55-5.108,15.63-8.188,27.241-9.25V46.652h12.568v16.689
		c4.431,0.191,9.621,0.821,15.57,1.88c5.95,1.059,10.637,2.288,14.053,3.684v20.811h-3.178c-3.42-1.974-7.393-3.611-11.922-4.913
		c-4.529-1.302-9.369-2.122-14.523-2.458v18.353l5.783,1.158c10.885,2.122,18.893,5.337,24.022,9.645
		C300.004,115.812,302.568,121.818,302.568,129.525z M253.653,99.111V82.345c-3.176,0.243-6.03,1.046-8.561,2.42
		c-2.527,1.374-3.79,3.312-3.79,5.818c0,2.267,0.817,4.02,2.453,5.274C245.395,97.111,248.694,98.192,253.653,99.111z
		 M276.344,132.345c0-2.79-1.287-4.878-3.865-6.248c-2.578-1.374-5.143-2.254-7.694-2.642v17.919
		c3.177-0.43,5.899-1.357,8.161-2.782C275.213,137.177,276.344,135.092,276.344,132.345z"/>
</g>
<g>
	<rect x="42.292" y="334.279" fill="#FFFFFF" width="405.081" height="14.729"/>
	<rect x="68.81" y="247.683" fill="#FFFFFF" width="38.44" height="73.342"/>
	<path fill="#FFFFFF" d="M122.191,321.025c12.821,0,25.635,0,38.446,0c0-32.789,0-65.585,0-98.377c-12.812,0-25.625,0-38.446,0
		C122.191,255.44,122.191,288.236,122.191,321.025z"/>
	<path fill="#FFFFFF" d="M175.585,321.025c12.812,0,25.623,0,38.437,0c0-14.633,0-29.265,0-43.895c-12.814,0-25.625,0-38.437,0
		C175.585,291.762,175.585,306.395,175.585,321.025z"/>
	<path fill="#FFFFFF" d="M228.973,321.025c12.811,0,25.62,0,38.431,0c0-24.303,0-48.611,0-72.918c-12.812,0-25.62,0-38.431,0
		C228.973,272.414,228.973,296.723,228.973,321.025z"/>
	<path fill="#FFFFFF" d="M282.361,321.025c12.812,0,25.619,0,38.438,0c0-28.133,0-56.254,0-84.388c-12.818,0-25.625,0-38.438,0
		C282.361,264.771,282.361,292.895,282.361,321.025z"/>
	<path fill="#FFFFFF" d="M335.739,321.025c12.812,0,25.63,0,38.439,0c0-32.789,0-65.585,0-98.377c-12.811,0-25.629,0-38.439,0
		C335.739,255.44,335.739,288.236,335.739,321.025z"/>
	<rect x="389.122" y="175.196" fill="#FFFFFF" width="38.453" height="145.83"/>
	<path fill="#FFFFFF" d="M44.474,221.5l117.056-37.547l1.459-0.468l2.066-0.659l1.388,1.685l0.974,1.174l32.465,39.363
		l143.085-32.426l11.568-36.743v-0.013l0.271-0.863l0.385-1.212l1.111-0.629l0.775-0.43l54.003-30.24l-6.204-10.467l-2.248-3.793
		l4.318-0.966l59.216-13.24l10.413-2.331l-7.418,7.682l-41.559,43.03l-2.922,3.028l-2.145-3.615l-5.868-9.907l-52.335,29.313
		l-11.857,37.662l-0.396,1.247l-0.555,1.765l-1.794,0.409l-1.284,0.284L199,236.458l-1.352,0.311l-1.918,0.434l-1.26-1.531
		l-0.892-1.077l-32.232-39.1l-113.529,36.42l-3.05,0.974l-0.978-3.05l-1.382-4.312l-0.982-3.05L44.474,221.5L44.474,221.5z
		 M418.286,122.052l0.711,1.204l0,0l1.598,2.696l5.316,8.975l31.207-32.32l-44.474,9.948L418.286,122.052z"/>
</g>
</svg>
