<svg xmlns="http://www.w3.org/2000/svg" width="512" height="512"><g fill="#fff"><path d="M148.981 224.9c-4.967-12.258.94-26.208 13.199-31.183l44.627-18.069 9.438 9.708 11.395 11.726 1.929 2.001 2.724 2.841c5.072 5.27 12.206 6.916 17.504 4.527l.238-.121c.411-.197.811-.423 1.198-.666l.404-.267c.428-.302.848-.633 1.243-1.004l.048-.041 3.361-3.236.037-.053c.391-.375.73-.779 1.053-1.19l.282-.399c.267-.375.501-.771.714-1.179l.13-.226c2.596-5.209 1.21-12.396-3.862-17.661l-2.736-2.833-1.917-2.001-2.712-2.792-26.643-27.418c-4.661-4.826-11.052-6.609-16.172-5.02l-.113.008-53.517 19.703c-3.644 1.368-5.984 4.083-7.404 7.4l-.113.19-28.011 66.17c-2.688 6.331 1.658 14.24 9.705 17.641l41.916 17.752-17.945-44.308zM289.035 218.743c-3.28-.783-7.537 1.48-8.99 4.479-6.621 13.731-8.885 29.217-8.896 44.351-.004 7.707.528 15.596 1.836 23.335-5.148-3.535-10.463-6.8-16.251-9.277-3.329-1.424-6.859-.165-9.24 2.49-1.098 1.223-1.945 2.805-2.022 4.479-.048 1.259.513 3.043 1.804 3.596 12.109 5.185 22.154 13.8 32.936 21.168 2.344 1.602 5.814.327 7.824-1.187 1.896-1.433 4.325-4.6 3.28-7.199-2.425-6.036-4.055-12.358-5.21-18.755-.322-1.771-.593-3.555-.835-5.338-.101-.742-.193-1.48-.278-2.215l-.101-.933c-.049-.464-.089-.92-.13-1.384-.342-3.728-.508-7.473-.549-11.213-.068-7.326.473-14.674 1.711-21.896l.089-.496c.085-.432.174-.872.267-1.308.174-.859.371-1.715.573-2.574.392-1.679.848-3.337 1.348-4.987.48-1.59 1.025-3.167 1.614-4.721.29-.759.598-1.509.912-2.252l.056-.129.416-.875c1.294-2.685 1.436-6.3-2.164-7.159zm12.198-10.834zM319.008 155.8c-2.32-5.722-8.856-8.486-14.579-6.166l-44.686 18.101 1.148 1.247 2.695 2.78c2.836 2.958 5.027 6.299 6.516 9.979.492 1.214.868 2.445 1.188 3.684l32.082-13.001 68.216 168.392h22.371l-74.951-185.016zm-99.619 50.652l-.678-.706-14.926-15.341-37.142 15.051c-5.722 2.312-8.49 8.849-6.174 14.57l48.937 120.791h22.371l-48.509-119.734 36.121-14.631zM137.789 166.376c2.647-6.214-1.634-13.969-9.531-17.314-7.884-3.337-16.414-1.005-19.049 5.229l-27.434 64.782c-2.623 6.23 1.634 13.978 9.523 17.314 7.884 3.337 16.431 1.017 19.065-5.209l27.426-64.802zM431 363.695c0 4.708-3.817 8.525-8.525 8.525h-265.351c-4.708 0-8.526-3.817-8.526-8.525v-4.261c0-4.71 3.817-8.526 8.526-8.526h265.351c4.708 0 8.525 3.816 8.525 8.526v4.261z"/></g></svg>