<svg xmlns="http://www.w3.org/2000/svg" width="512" height="512"><g fill="#fff"><path d="M263.259 168.348c17.214-4.007 27.921-21.215 23.91-38.43-4.003-17.212-21.214-27.92-38.428-23.912-17.212 4.007-27.921 21.215-23.912 38.427 4.007 17.215 21.215 27.923 38.43 23.915zM208.64 194.371c.372-1.187.895-2.341 1.58-3.412 1.966-3.092 5.046-5.253 8.428-6.066.955-.231 1.938-.369 2.922-.369 2.279 0 4.486.637 6.384 1.841 2.86 1.816 4.772 4.72 5.383 8.174.248 1.386.253 2.792.067 4.179-.275 1.974-.962 3.905-2.081 5.657-1.808 2.849-4.57 4.952-7.694 5.885l-6.108 8.571v31.478h26.442l.679-5.001 5.627-41.454c1.845.689 3.785 1.051 5.727 1.051h.016c1.938 0 3.877-.361 5.717-1.055l5.641 41.563.668 4.896h26.443v-50.92c4.866-2.251 12.819-6.755 20.874-14.965 12.336-12.454 24.197-33.931 24.093-66.064-.004-8.545-.807-17.833-2.576-27.939-1.083-6.19-6.987-10.329-13.18-9.246-6.185 1.084-10.331 6.983-9.24 13.179 1.562 8.917 2.233 16.895 2.229 24.006-.104 26.73-9.089 41.288-17.603 50.15-4.286 4.389-8.577 7.251-11.688 8.967-1.027.567-1.902.995-2.617 1.324-.428-.05-.851-.082-1.286-.082h-54.969c-.438 0-.865.032-1.286.082-3.17-1.458-9.722-5.063-15.922-12.015-7.968-9.022-15.906-23.358-15.992-48.427 0-7.115.667-15.089 2.233-24.006 1.089-6.192-3.05-12.091-9.236-13.179-6.192-1.089-12.095 3.05-13.183 9.246-1.782 10.102-2.577 19.394-2.577 27.939-.108 32.133 11.757 53.606 24.094 66.064 4.161 4.243 8.291 7.483 11.991 9.948zm41.953-7.847h10.815999999999999l2.7 10.669-.415.653c-2.226 1.856-4.954 2.785-7.698 2.789-2.741-.004-5.465-.929-7.688-2.778l-.417-.663 2.702-10.67zM204.772 231.817v18.491h5.689v-26.475l7.059-9.903 4.396-6.17c2.729-.555 5.317-2.251 7.005-4.914.391-.615.717-1.256.977-1.906 1.816-4.538.463-9.676-3.474-12.175-2.667-1.696-5.928-1.786-8.785-.563-1.97.833-3.748 2.283-5.02 4.289-.705 1.104-1.184 2.293-1.464 3.485-.392 1.668-.392 3.368-.008 4.942l-24.457 43.431 6.298 4.001 11.784-16.533zM260.91 253.156h-81.02600000000001v21.341h15.294v107.413h-15.294v49.09h149.387v-49.09h-15.297v-107.413h15.297v-21.341h-68.361zm-28.389 120.221c0 2.356-1.905 4.271-4.267 4.271-2.357 0-4.265-1.914-4.265-4.271v-87.498c0-2.356 1.908-4.267 4.265-4.267 2.361 0 4.267 1.91 4.267 4.267v87.49799999999999zm26.324 0c0 2.356-1.906 4.271-4.269 4.271-.675 0-1.304-.172-1.872-.452-1.414-.694-2.397-2.137-2.397-3.818v-87.49799999999999c0-1.682.983-3.12 2.397-3.819.567-.275 1.196-.447 1.872-.447 2.363 0 4.269 1.91 4.269 4.267v87.496zm17.785-87.498c0-2.356 1.913-4.267 4.271-4.267 2.354 0 4.263 1.91 4.263 4.267v87.49799999999999c0 2.356-1.909 4.271-4.263 4.271-2.357 0-4.271-1.914-4.271-4.271v-87.49799999999999z"/></g></svg>