<?xml version="1.0" encoding="utf-8"?>
<!-- Generator: Adobe Illustrator 18.0.0, SVG Export Plug-In . SVG Version: 6.00 Build 0)  -->
<!DOCTYPE svg PUBLIC "-//W3C//DTD SVG 1.1//EN" "http://www.w3.org/Graphics/SVG/1.1/DTD/svg11.dtd">
<svg version="1.1" id="Capa_1" xmlns="http://www.w3.org/2000/svg" xmlns:xlink="http://www.w3.org/1999/xlink" x="0px" y="0px"
	 viewBox="0 0 512 512" enable-background="new 0 0 512 512" xml:space="preserve">
<g>
	<path fill="#FFFFFF" d="M397.1,233.9c-20.3,0-38.4,9.2-50.3,23.7l-12.1-4.8c-1.9-0.7-3.8-1.1-5.8-1.1c-5.1,0-9.8,2.5-12.7,6.5
		l-2.3-0.8c-0.2-7-5.2-13.3-12.3-14.9l-16-3.5c-1.1-0.2-2.3-0.4-3.4-0.4c-5.5,0-10.5,3-13.4,7.5l-11.8-2.2v-6.2c0-2.1-1.3-3.8-3-3.8
		h-4.9c-1.4-28.1-1.8-62.4,2.9-83.1l-14.5-3.3c-5,22.2-4.7,57.4-3.3,86.3H174c0.5-36.3-8-73.8-9.7-81l-14.4,3.5
		c4.1,17,9.5,48.8,9.2,77.5h-12.4c-1.6,0-3,1.7-3,3.8v31c0,2.1,1.3,3.8,3,3.8h6.7c-3.4,9.2-8.7,16.1-16.3,19.1
		c-27.4,10.9-36.5,14.4-39.5,15.5c-15.5-1.1-43.5,3.3-47.5,27.7c-1.5,9.2,2.1,14.9,5.4,18.1c6.3,6.1,16.8,7.7,26.2,7.7
		c8.2,0,15.7-1.2,19.2-1.9c6.1,0.5,35.5,2.5,51.1-2.3c9.1-2,34.9-5.7,49.5-0.2c15.8,5.9,41.8,0.9,44.7,0.3l0.8-0.2
		c0.9-0.3,9.4-3.3,14.3-14.3c6.4-14.5,3.5-35.5-8.5-62.4c-0.1-1.3-0.4-3.8-0.7-7.1h2.1c1.6,0,3-1.7,3-3.8v-13.8l9.6,1.8
		c0.9,6.3,5.6,11.6,12.2,13.1l16,3.5c1.1,0.2,2.3,0.4,3.4,0.4c4.9,0,9.4-2.4,12.3-6l2.8,0.9c0.4,5.8,4,11.3,9.8,13.6l10.1,4
		c-0.9,4.2-1.3,8.6-1.3,13c0,36,29.2,65.2,65.2,65.2c36,0,65.2-29.2,65.2-65.2C462.3,263.1,433.1,233.9,397.1,233.9z M247.8,335.4
		c-1.9,4.6-4.6,6.3-5.3,6.7c-7.3,1.4-26.1,3.9-35.9,0.2c-21.9-8.2-56.7-0.6-58.2-0.3l-0.7,0.2c-11.7,3.8-37.7,2.5-46.7,1.7l-1.1-0.1
		l-1.1,0.2c-10.4,2.2-28.1,3.1-33.2-1.8c-0.5-0.5-1.6-1.5-1-4.9c0.4-2.5,1.4-4.6,2.8-6.4c4.9,0.5,27.5,2.6,30.9-2.1
		c1.5-2,1.8-4.6,1.7-7.1c2.2-0.5,4.7-1.4,7.5-2.5c7-2.7,18.8-7.3,35.1-13.9c13.6-5.4,21.7-17.6,26.3-32.9H237c0.5,5.6,0.9,9.2,1,9.8
		l0.1,1.2l0.5,1.1C252.3,314.8,250.3,329.4,247.8,335.4z M303.2,254c-2.9-0.9-6,0.6-6.9,3.4c-0.9,2.8,0.7,5.9,3.6,6.8l0.5,0.2
		c-1.1,0.4-2.4,0.5-3.7,0.2l-16-3.5c-1.6-0.4-2.9-1.3-3.9-2.5l1.5,0.3c3,0.6,5.9-1.3,6.4-4.3c0.5-2.9-1.4-5.7-4.4-6.3l-0.9-0.2
		c0.8-0.4,1.7-0.6,2.7-0.6c0.5,0,1,0.1,1.5,0.2l16,3.5c1.8,0.4,3.2,1.4,4.2,2.9L303.2,254z M335.6,277.5l-9.2-3.6
		c-1-0.4-1.9-1.1-2.6-1.9l0.9,0.3c2.9,0.9,6-0.6,6.9-3.4c0.9-2.8-0.7-5.9-3.6-6.8l-2-0.6c0.9-0.4,1.9-0.7,2.9-0.7
		c0.9,0,1.7,0.2,2.5,0.5l10,4C339.1,269,337.1,273.1,335.6,277.5z M405.8,335.3v10.9h-15v-9.8c-5.7-0.5-11.6-2.1-15.6-4.3l-1.8-1
		l4.3-16.9l3,1.6c2.8,1.5,8.5,4.1,15.3,4.1c3.5,0,7.1-1.1,7.1-3.6c0-1.7-1.1-3.6-8.9-6.2c-9.2-3.1-19.8-8.3-19.8-20.8
		c0-9.7,6.4-17.1,16.9-19.8v-10.1h15v9c6.2,0.5,10.4,2.1,13.1,3.3l2,0.9l-3.6,13.4l-0.9,3l-2.9-1.4c-2.5-1.2-6.6-3.2-13.2-3.2
		c-2.2,0-6,0.4-6,3.1c0,2,5.5,4.3,10.2,6c12.9,4.5,18.4,10.9,18.4,21.3C423.5,325,416.8,332.6,405.8,335.3z"/>
</g>
</svg>
