<?xml version="1.0" encoding="utf-8"?>
<!-- Generator: Adobe Illustrator 18.0.0, SVG Export Plug-In . SVG Version: 6.00 Build 0)  -->
<!DOCTYPE svg PUBLIC "-//W3C//DTD SVG 1.1//EN" "http://www.w3.org/Graphics/SVG/1.1/DTD/svg11.dtd">
<svg version="1.1" id="Capa_1" xmlns="http://www.w3.org/2000/svg" xmlns:xlink="http://www.w3.org/1999/xlink" x="0px" y="0px"
	 viewBox="0 0 512 512" enable-background="new 0 0 512 512" xml:space="preserve">
<g>
	<g>
		<path fill-rule="evenodd" clip-rule="evenodd" fill="#FFFFFF" d="M346.6,267.5c1.7-3.6,3.7-7.2,4.5-9.7c3.4-10.9-9.3-41-19.6-46
			c-2-0.9-5.2-1.6-8.5-2.3C327.9,220.4,335.6,238.4,346.6,267.5z"/>
		<g>
			<path fill-rule="evenodd" clip-rule="evenodd" fill="#FFFFFF" d="M205.8,370.6c-1-8.3-1.1-16.6-1.8-27.8c8-3.6,11-5,19.3-8.1
				c-12.2-46.5-29-73.6-38.8-86.9c-25.9,11.1-46.2,19.4-72.2,30.3c-23.9,10.1-31.3,27.3-21.7,50.9c2.8,7,5.6,14,8.6,21
				c5.4,12.9,23.8,21.8,37.4,20.4c5.5-0.5,12.9,2.2,17,6.1c8.9,8.4,15.8,19,24.4,27.9c7.7,7.8,25.8,5.9,35.4-3.3
				c9.2-8.8,1-15.3-3.7-22.2C208,376.3,206.1,373.4,205.8,370.6z"/>
			<path fill-rule="evenodd" clip-rule="evenodd" fill="#FFFFFF" d="M357.5,326.9c-5-15.3-12.5-29.9-17.6-45.2
				c-0.2-0.5-0.2-1.1-0.3-1.6c-15.9-42.6-25.4-63.7-30.1-73.2c-0.1-0.2-0.3-0.4-0.4-0.6c-0.2-0.5-0.4-1-0.7-1.5
				c-1.7-3.3-2.5-4.6-2.5-4.7l0.4-0.2c-6.2-14.2-11.4-28.8-18.1-42.7c-1.6-3.4-8.9-7-12.3-6c-3.4,1-6.1,7.2-7.6,11.6
				c-1.9,5.8-1,12.7-3.5,18.1c-11.6,25.4-29.9,44.9-55.5,56.3c-4.1,1.8-3.8,1.7-8,3.5c10.3,14.3,27.6,41.9,39.6,87.7
				c28.1-9.5,52-11.8,83.7,0.5c5.2,2,9.6,6.3,14.7,8.8c5,2.5,12.1,8.4,15.6,6C358.4,341.3,359,331.7,357.5,326.9z"/>
		</g>
		<path fill-rule="evenodd" clip-rule="evenodd" fill="#FFFFFF" d="M91.9,359.2c0,0-16.8-33-15.6-44.4c0,0-14.3,4.7-8.2,26.8
			C74.3,363.7,89.7,359.3,91.9,359.2z"/>
	</g>
	<g>
		<path fill="#FFFFFF" d="M444,273.7l1.3-12.7l-41.6-4.4c0,4.3-0.2,8.6-0.6,12.8L444,273.7z"/>
		<path fill="#FFFFFF" d="M418.2,344.3l7.2-10.6l-34.1-23.1c-1.9,3.8-4,7.6-6.3,11.2L418.2,344.3z"/>
		<path fill="#FFFFFF" d="M395.3,212.7c0.2,0.6,0.4,1.2,0.6,1.7l37.7-15.2l-4.8-11.9l-38.1,15.4C392.4,206,393.9,209.3,395.3,212.7z
			"/>
		<path fill="#FFFFFF" d="M364.4,168.3l25-29.9l-9.8-8.2l-25.2,30C357.9,162.7,361.3,165.4,364.4,168.3z"/>
		<path fill="#FFFFFF" d="M314.4,141.1l7.5-35.6l-12.5-2.6l-7.5,35.6C306.1,139.1,310.3,140,314.4,141.1z"/>
	</g>
</g>
</svg>
