<?xml version="1.0" encoding="utf-8"?>
<!-- Generator: Adobe Illustrator 16.0.0, SVG Export Plug-In . SVG Version: 6.00 Build 0)  -->
<!DOCTYPE svg PUBLIC "-//W3C//DTD SVG 1.1//EN" "http://www.w3.org/Graphics/SVG/1.1/DTD/svg11.dtd">
<svg version="1.1" id="Layer_1" xmlns="http://www.w3.org/2000/svg" xmlns:xlink="http://www.w3.org/1999/xlink" x="0px" y="0px"
	 width="512px" height="512px" viewBox="0 0 512 512" enable-background="new 0 0 512 512" xml:space="preserve">
<path fill-rule="evenodd" clip-rule="evenodd" fill="#FFFFFF" d="M316.837,326.156c6.641,4.847,10.924,12.484,9.994,20.973
	l-3.315,30.449c-1.574,14.413-11.886,26.385-26.39,26.385h-88.752c-14.507,0-24.815-11.955-26.389-26.385l-3.321-30.449
	c-1.048-9.584,4.54-18.081,12.669-22.702c-18.779-39.438-28.756-78.874-34.241-118.31c-7.727,3.418-19.981,6.315-39.216,6.026
	c-45.099-0.671-65.298-15.482-65.298-15.482s4.715-26.252,41.736-37.023c26.766-7.789,51.774,4.482,63.578,11.879
	c1.254-3.243,2.666-6.343,4.198-9.335c-28.083-21.14-39.058-52.048-37.92-89.88c14.658,26.467,32.221,49.636,58.979,62.353
	c39.028-35.214,103.698-35.214,142.725-0.013c26.749-12.718,44.3-35.877,58.957-62.34c1.139,37.817-9.822,68.714-37.881,89.854
	c1.527,2.992,2.926,6.107,4.18,9.35c11.809-7.397,36.805-19.653,63.561-11.868c37.025,10.771,41.732,37.023,41.732,37.023
	s-20.199,14.811-65.298,15.482c-19.235,0.289-31.489-2.607-39.216-6.026C346.342,246.129,336.155,286.144,316.837,326.156
	L316.837,326.156z M446.77,194.689c-22.5-20.441-68.275-21.842-93.296,4.389C386.349,207.995,413.492,207.208,446.77,194.689
	L446.77,194.689z M211.296,414.163h85.771C278.177,437.935,231.037,436.351,211.296,414.163L211.296,414.163z M62.23,194.689
	c33.278,12.519,60.421,13.306,93.305,4.389C130.506,172.847,84.731,174.249,62.23,194.689L62.23,194.689z M224.119,340.635
	c-6.302,0-11.415,3.011-11.415,6.738c0,3.726,5.113,6.742,11.415,6.742c6.307,0,11.419-3.017,11.419-6.742
	C235.538,343.646,230.425,340.635,224.119,340.635L224.119,340.635z M285.42,340.635c-6.307,0-11.423,3.011-11.423,6.738
	c0,3.726,5.116,6.742,11.423,6.742c6.303,0,11.415-3.017,11.415-6.742C296.835,343.646,291.723,340.635,285.42,340.635z"/>
<g>
</g>
<g>
</g>
<g>
</g>
<g>
</g>
<g>
</g>
<g>
</g>
<g>
</g>
<g>
</g>
<g>
</g>
<g>
</g>
<g>
</g>
<g>
</g>
<g>
</g>
<g>
</g>
<g>
</g>
</svg>
