<?xml version="1.0" encoding="utf-8"?>
<!-- Generator: Adobe Illustrator 18.0.0, SVG Export Plug-In . SVG Version: 6.00 Build 0)  -->
<!DOCTYPE svg PUBLIC "-//W3C//DTD SVG 1.1//EN" "http://www.w3.org/Graphics/SVG/1.1/DTD/svg11.dtd">
<svg version="1.1" id="Capa_1" xmlns="http://www.w3.org/2000/svg" xmlns:xlink="http://www.w3.org/1999/xlink" x="0px" y="0px"
	 viewBox="0 0 512 512" enable-background="new 0 0 512 512" xml:space="preserve">
<g>
	<path fill="#FFFFFF" d="M457.4,183.7c12.7-62.2-14.4-92.2-15.5-93.4l-1.3-1.1C424.2,77.1,408.1,71,393,71
		c-39.6,0-58.9,40.3-63.1,50.1c-3.1,3.2-4.6,7.2-4.5,11.5l-0.5,0.3l-1.1-1.1l-11.6,10.9l0,3.5l-48.7,44.5c0,0-7.6,9-18.7,7.4
		c-41.8-5.8-71.3,22.6-71.3,22.6l-117.6,119c0,0-8.8,7.4-2.4,19.3c4.7,8.7,21.7,27.7,30.5,37.3v0l0.2,0.2c0.3,0.3,0.6,0.7,0.9,0.9
		c2.7,2.9,4.4,4.8,4.4,4.8l0,0l0.3,0.4c0,0,2.1,2,5.4,5c0.1,0.1,0.3,0.3,0.4,0.4l0,0c9.6,8.8,28.6,25.8,37.3,30.5
		c11.9,6.4,19.3-2.4,19.3-2.4l119-117.6c0,0,28.4-29.5,22.6-71.3c-1.6-11.1,7.4-18.7,7.4-18.7l44.5-48.7l3.5,0l10-10.6l0.1,0
		l0.4-0.5l0.5-0.6l-0.1-0.1l4.1-5.3c5-6.6,9.3-6.6,10.7-6.6c1.7,0,3.4,0.4,5,1c-15.9,24.8-21.2,68.5-21.8,73.9l-0.7,6.4l19.9,9.3
		c-1.5,10.7,0.9,22.8,1.5,25.6l0.8,3.9l3.5,2c9.2,5.2,45.1,7.3,60.1,7.9l14.5,0.6l-6-13.2C446,261.7,451.7,213.8,457.4,183.7z
		 M169.4,401.3c0,0-29-12.2-47.7-30.8C103.1,351.7,91,322.8,91,322.8l77.5-77.5c0,0,12.1,28.9,30.8,47.6
		c18.7,18.7,47.7,30.8,47.7,30.8L169.4,401.3z M440,180.2c-2.1,11-10.9,59.8-7.8,87.8c-14.9-0.9-29.9-2.4-36.9-4
		c-0.9-6.5-1.2-14.5,0.5-18.2l3.7-8l-22.9-10.7c2.7-18.3,10-52.8,22.6-65.6l6.3-6.4l-6.4-6.2c-1.1-1-10.9-10.2-24.2-10.2
		c-5.1,0-12.1,1.4-18.9,7.3c-0.8-0.6-1.6-1.2-2.3-1.8l-0.5-0.5l-0.9-0.9c9.2-10.7,25.7-22.1,52.4-16l4-17.4
		c-25.3-5.8-44.7,0.7-58.5,11c6.5-12,20.6-31.6,42.9-31.6c11,0,23.2,4.7,36.3,14.1C432.6,107,450,131.3,440,180.2z"/>
</g>
</svg>
