<svg xmlns="http://www.w3.org/2000/svg" width="512" height="512"><path fill="#fff" d="M430.184 138.545l.071.268c-6.521 7.844-17.315 12.323-25.085 12.353-8.775.036-19.015-4.479-24.921-12.157-6.541 7.72-17.198 12.127-24.896 12.157-8.789.036-19.028-4.479-24.929-12.157-6.541 7.72-17.205 12.127-24.902 12.157-8.782.036-19.021-4.479-24.928-12.157-6.541 7.72-17.198 12.127-24.901 12.157-8.782.036-19.018-4.479-24.928-12.157-6.541 7.72-17.191 12.127-24.902 12.157-8.779.036-19.025-4.479-24.922-12.157-6.551 7.72-17.198 12.127-24.909 12.157-8.769.036-19.018-4.479-24.928-12.157-6.541 7.72-17.191 12.127-24.902 12.157-8.851.036-19.205-4.555-25.082-12.353l.102-.268h-.222v234.909h.817l-.072-.268c6.521-7.842 17.312-12.324 25.082-12.351 8.779-.039 19.015 4.477 24.921 12.154 6.544-7.717 17.198-12.128 24.899-12.154 8.785-.039 19.028 4.477 24.928 12.154 6.541-7.717 17.202-12.128 24.902-12.154 8.779-.039 19.021 4.477 24.928 12.154 6.541-7.717 17.198-12.128 24.898-12.154 8.784-.039 19.017 4.477 24.93 12.154 6.541-7.717 17.192-12.128 24.902-12.154 8.775-.039 19.021 4.477 24.922 12.154 6.547-7.717 17.198-12.128 24.908-12.154 8.77-.039 19.016 4.477 24.929 12.154 6.541-7.717 17.191-12.128 24.902-12.154 8.847-.039 19.204 4.555 25.078 12.351l-.098.268h.224v-234.909h-.816zm-196.687 105.855c-2.408 2.8-6.708 7.772-7.832 8.896-1.594 1.862-11.909 8.212-11.909 3.708 0-3.93 5.414-10.735 6.201-11.706-11.52-.022-22.945-2.039-33.07-6.086l-.373.069c-5.267.529-15.336 12.431-22.726 7.945-7.41-4.767-10.06-14.803-8.485-17.973 1.35-3.45 12.709-1.349 12.709-1.349-16.669-9.775-23.814-.516-23.814-.516s-12.15 11.102-21.132 11.631c-9.001 1.34-5.829-5.809-5.829-8.984.529-2.646 5.28-13.751 5.28-13.751s-4.211-11.099-4.75-16.395c-.529-4.486-1.307-8.73 6.354-8.73 7.4-.251 19.58 7.675 19.58 7.675s6.109 7.955 19.933 5.524c-1.702-3.907-1.708-8.419.154-11.079 9.726-11.843 25.735-11.893 33.701-1.209 4.812-1.222 10.033-1.754 17.6-1.441 11.883 0 25.376 2.385 36.213 7.949l.262.255s25.906 12.421 25.906 16.917c-5.828 5.551-10.305 9.008-10.305 9.008l11.638-5.829s1.327 1.855.249 2.895c-11.239 12.707-27.932 20.1-45.555 22.576zm163.845 63.626c-11.238 12.709-27.934 20.1-45.557 22.576-2.404 2.803-6.704 7.775-7.828 8.899-1.594 1.862-11.912 8.214-11.912 3.705 0-3.927 5.417-10.736 6.201-11.703-11.52-.026-22.941-2.039-33.069-6.09l-.373.072c-5.267.529-15.336 12.428-22.726 7.945-7.41-4.77-10.057-14.807-8.481-17.976 1.346-3.45 12.709-1.347 12.709-1.347-16.669-9.774-23.817-.516-23.817-.516s-12.149 11.102-21.13 11.631c-9.001 1.34-5.829-5.809-5.829-8.984.529-2.646 5.28-13.755 5.28-13.755s-4.211-11.095-4.75-16.395c-.529-4.482-1.307-8.729 6.354-8.729 7.4-.248 19.578 7.678 19.578 7.678s6.109 7.952 19.937 5.521c-1.706-3.908-1.712-8.416.15-11.076 9.729-11.847 25.738-11.892 33.703-1.209 4.81-1.222 10.03-1.757 17.597-1.443 11.886 0 25.38 2.385 36.213 7.952l.262.255s25.908 12.422 25.908 16.917c-5.828 5.548-10.305 9.004-10.305 9.004l11.638-5.828c-.001.002 1.325 1.857.247 2.896z"/></svg>