<?xml version="1.0" encoding="utf-8"?>
<!-- Generator: Adobe Illustrator 18.0.0, SVG Export Plug-In . SVG Version: 6.00 Build 0)  -->
<!DOCTYPE svg PUBLIC "-//W3C//DTD SVG 1.1//EN" "http://www.w3.org/Graphics/SVG/1.1/DTD/svg11.dtd">
<svg version="1.1" id="Capa_1" xmlns="http://www.w3.org/2000/svg" xmlns:xlink="http://www.w3.org/1999/xlink" x="0px" y="0px"
	 viewBox="0 0 512 512" enable-background="new 0 0 512 512" xml:space="preserve">
<g>
	<path fill="#FFFFFF" d="M377.9,306.9L377.9,306.9c0-6.8-3.5-12.8-8.8-15.9c5.3-3.1,8.8-9.1,8.8-15.9c0-6.8-3.5-12.8-8.8-15.9h6.6
		c0-4.9,0-9.7,0-14.6c0-4-3.2-7.7-7.1-8.4c-2.5-0.4-5-0.7-7.4-1.1v-67.8c0-58-47-105-105-105c-58,0-105,47-105,105v60h38.3v-19
		h-16.2v-5.8l16.2-18.9v-16.3c0-18.5,7.4-35.1,19.6-47.2c12.1-12.1,28.7-19.6,47.2-19.6c18.5,0,35.1,7.4,47.2,19.6
		c12.1,12.1,19.6,28.7,19.6,47.2v63.4c-59.7-5.3-119.9-3.5-179.3,5.4c-3.9,0.6-7.1,4.4-7.1,8.4V259h6.6c-5.3,3.1-8.8,9.1-8.8,15.9
		c0,6.8,3.5,12.8,8.8,15.9c-5.3,3.1-8.8,9.1-8.8,15.9c0,6.8,3.5,12.8,8.8,15.9c-5.3,3.1-8.8,9.1-8.8,16c0,6.8,3.5,12.8,8.8,15.9
		c-5.3,3.1-8.8,9.1-8.8,15.9c0,6.8,3.5,12.8,8.8,15.9c-5.3,3.1-8.8,9.1-8.8,15.9c0,6.8,3.5,12.8,8.8,15.9h-6.6v14.6
		c0,4,3.2,7.7,7.1,8.4c74.6,11.2,150.4,11.2,225,0c3.9-0.6,7.1-4.4,7.1-8.4c0-4.9,0-9.7,0-14.6H369c5.3-3.1,8.8-9.1,8.8-15.9
		c0-6.8-3.5-12.8-8.8-15.9c5.3-3.1,8.8-9.1,8.8-15.9c0-6.8-3.5-12.8-8.8-15.9c5.3-3.1,8.8-9.1,8.8-15.9c0-6.8-3.5-12.8-8.8-16
		C374.3,319.7,377.8,313.7,377.9,306.9z M266.4,385.5V401H245v-14c-8.1-0.7-16.5-3-22.3-6.1l-2.5-1.4l6.2-24.1l4.2,2.3
		c3.9,2.2,12.1,5.8,21.8,5.8c5,0,10.1-1.6,10.1-5.1c0-2.4-1.6-5.1-12.7-8.8c-13.1-4.4-28.1-11.8-28.1-29.6c0-13.8,9.2-24.3,24-28.2
		v-14.4h21.4v12.8c8.9,0.8,14.9,3,18.7,4.7l2.8,1.3l-5.1,19.1l-1.3,4.3l-4.1-1.9c-3.5-1.7-9.5-4.6-18.7-4.6c-3.2,0-8.5,0.6-8.5,4.4
		c0,2.9,7.8,6.1,14.6,8.6c18.4,6.4,26.3,15.5,26.3,30.3C291.8,370.8,282.1,381.7,266.4,385.5z"/>
</g>
</svg>
