<svg xmlns="http://www.w3.org/2000/svg" width="512" height="512"><g fill="#fff"><path d="M253.555 276.772c-.222.277-.383.572-.523.843l-.422.801-.183.359c-.903 1.767-2.523 3.967-4.431 3.099-2.586-1.167-5.302-2.108-7.849-3.355-2.021.432-4.083.893-6.177 1.374 3.124 1.806 6.072 4.149 9.065 5.144 5.446 1.806 8.225 4.817 10.017 9.42.197.513.506 1.142.896 1.792.847 1.381.826 3.138-.485 4.392-2.656 2.544-4.835 5.425-6.918 8.278-1.735 2.393-2.719 5.014-4.367 7.428-2.516 3.679-6.788 8.112-10.643 11.184-1.353 1.082-3.405.794-4.462-.355-1.753-1.911-4.135-3.316-6.296-3.268-3.13.067-5.601.734-8.686.032-2.709-.622-5.26-1.539-8.032-2.014-.956-.165-1.933-.281-2.93-.341-2.158-.137-4.504-.829-4.673-2.624l-.035-.415c-.014-.319-.018-.692-.024-1.106l-.018-1.378c0-.264-.003-.537-.014-.814l-.042-.928c-.014-.352-.025-.714-.049-1.075-.032-.369-.07-.749-.13-1.1-.049-.349-.105-.721-.187-1.139-.074-.425-.154-.931-.147-1.557.018-.319.063-.657.169-1.079.095-.245.25-.548.534-.941.147-.2.337-.436.573-.706l.481-.513c.183-.187.408-.408.675-.657.253-.229.52-.475.839-.748l.552-.461.664-.517c.292-.203.601-.4.942-.594.225-.102.457-.2.713-.288.257-.084.559-.157.882-.21.379-.05.766-.078 1.17-.099h.748c.257.003.524.021.805.035.323.018.633.049.942.077.344.049.699.099 1.054.161.436.092.833.187 1.223.296.467.13.903.249 1.293.344.312.032.625.05.983.028.352-.021.77-.088 1.209-.187.271-.062.53-.141.801-.221.274-.085.576-.19.886-.31l1.167-.468.749-.27.882-.281c.323-.103.639-.215.991-.352.355-.145.762-.323 1.191-.53.25-.134.492-.274.734-.426.246-.169.492-.372.728-.604.267-.312.502-.646.734-1.04l.372-.639.443-.725c.183-.256.369-.513.58-.794.211-.277.446-.601.724-.983.13-.189.271-.383.386-.591.105-.207.134-.456-.003-.737-.137-.288-.352-.576-.632-.882l-.446-.471-.471-.45c-.179-.225-.366-.446-.573-.678-.201-.229-.411-.443-.594-.622l-.643-.643c-.187-.19-.155-.127-.088-.015l.256.295.366.369.583.594.334.362c1.258 1.366 1.49 3.292.358 4.887l-.446.646-.478.784c-.137.238-.277.453-.421.671-.267.354-.555.657-.868.931-.281.19-.559.355-.826.492-.253.127-.502.246-.759.354-.344.145-.675.274-.987.387-.274.088-.548.176-.812.25-.485.144-.914.273-1.3.407-.383.123-.706.242-1.012.348l-.805.261c-.32.091-.615.165-.885.218-.256.045-.506.084-.738.112-.433.042-.805.031-1.153-.007-.281-.061-.53-.131-.762-.204-.225-.066-.45-.137-.664-.211-.39-.116-.794-.235-1.216-.337-.362-.081-.741-.155-1.131-.226-.327-.045-.653-.088-.966-.123-.288-.031-.58-.06-.885-.08-.285-.025-.555-.039-.815-.046l-.749-.021c-.404.007-.794.032-1.195.077-.319.05-.664.12-.962.201-.292.087-.569.189-.815.291-.509.218-.91.422-1.286.622l-1.135.643-.815.457-1.156.636c-.33.183-.615.33-.85.443l-.625.281c-.312.122-.573.21-.773.267-.337.07-.643.102-.917.102-.267 0-.517-.014-.766-.028-.506-.014-1.089-.014-1.792-.014l-1.068.004-1.244-.004-.352-.004c-.425-.003-1.511.485-1.082.499l.667.015c.443.011.826.011 1.173.014l1.022.018c.64 0 1.198.007 1.673.015.471.003.889.021 1.282.038.78.042 1.367.109 1.746.239.373.13.608.299.671.509.13.429-.014.854-.169 1.262-.144.521-.239 1.026-.274 1.473-.021.436-.007.832.021 1.197.025.355.035.664.039.945l-.003.812c-.021.489-.063.917-.116 1.276l-.155.977c-.102.604-.228 1.113-.348 1.531-.12.426-.243.837-.373 1.258-.133.415-.25.756-.355 1.058l-.302.829c-.703 1.803-2.357 3.258-4.016 4.6-2.175 1.768-3.24 4.224-5.85 5.787-.689.414-1.458.783-2.249 1.146-1.841.84-4.041.664-5.505-.418-1.149-.84-2.33-1.62-3.854-2.137-3.633-1.227-7.754-1.075-10.302-3.826-.453-.492-.935-.966-1.437-1.398-1.328-1.148-1.76-2.846-1.248-4.47.703-2.224.517-4.638.707-6.907-5.421 5.467-8.781 11.599-9.135 18.442 1.936-1.918 3.457-7.146 6.338-3.162 3.615 4.782 10.351 3.546 15.133 6.768.232.151.766.534 1.469 1.001 1.648 1.104 2.575 2.766 3.763 4.228 1.019 1.258 2.48 2.279 3.826 3.264 4.669 3.422 5.899 7.674 8.692 12.149 2.621 4.195 7.213 6.396 9.406 10.871.661 1.36-.467 2.902-2.143 3.584-2.14.875-3.971 2.256-5.97 3.342-.622.33-1.258.636-1.992.787-.752.141-1.771-.092-3.127-.707-.467-.238-.959-.484-1.458-.744-.502-.261-1.062-.566-1.687-.952-.323-.197-.661-.397-1.016-.591-.358-.186-.741-.369-1.167-.548-.218-.141-.45-.337-.709-.65-.13-.158-.26-.354-.401-.618-.141-.26-.281-.625-.443-1.078-.084-.239-.165-.492-.249-.78-.084-.288-.148-.646.031-1.114.102-.238.274-.506.52-.801.151-.165.316-.341.502-.523l.625-.601c.26-.246.513-.503.787-.809l.425-.502c.141-.18.281-.387.411-.604.098-.232.175-.468.228-.714.049-.249.063-.533.035-.843-.028-.327-.091-.65-.189-.987-.099-.348-.235-.738-.366-1.114l-.193-.551c-.074-.193-.137-.397-.208-.629-.07-.232-.147-.481-.323-.714-.183-.231-.517-.411-.952-.527-.26-.045-.52-.087-.787-.115-.323-.021-.674-.028-1.068-.018-.408.011-.819.018-1.184.021-.376 0-.678 0-.872-.01-.404-.028-.661-.057-.822-.081-.168-.028-.281-.189-.453-.158-.116.014-.105.144-.018.211.053.035.141.088.299.15.158.067.509.123 1.18.166.408.01.893.01 1.385.014.492 0 .927.021 1.303.063.373.035.689.119.914.242.229.126.397.277.496.457.172.348.26.699.358 1.029l.25.854.189.724c.07.271.116.523.137.745.014.218.01.418-.011.604-.042.362-.147.653-.288.917-.144.214-.302.4-.46.565l-.467.481c-.331.288-.686.562-.998.805-.306.235-.594.45-.864.668-.232.179-.432.351-.622.513-.179.158-.352.323-.513.481-.176.231-.316.457-.401.66-.084.211-.147.411-.179.598l-.109.759c-.229 1.757-2.207 2.955-4.255 3.5-.499.133-1.026.277-1.56.438-.724.215-1.444.446-2.217.706-.787.25-1.701.439-2.79.268-.534-.127-1.026-.38-1.479-.738-.454-.368-.886-.906-1.342-1.612-.46-.717-.903-1.444-1.339-2.182-.442-.749-.836-1.44-1.085-1.831l-.805-1.247c-.288-.436-.625-.924-1.047-1.469-.425-.545-.875-1.019-1.286-1.412-.408-.394-.752-.707-.998-.935-.977-.899-1.374-1.174-1.588-1.213-.429-.091-.544.138-.443.531.025.098.116.26.467.73.187.235.467.572.893 1.033.429.46.97 1.061 1.536 1.81.292.368.58.86.847 1.355.26.489.509 1.002.755 1.525l.657 1.374c.208.421.411.829.615 1.216.397.762.741 1.401 1.054 1.949.316.545.611 1.026.917 1.497.306.46.801 1.033 1.482 1.451.678.4 1.493.622 2.375.703.885.066 1.693-.015 2.42-.155.713-.133 1.367-.299 1.985-.442 1.233-.274 2.256-.439 3.078-.51.812-.073 1.5-.077 2.105-.028 1.184.103 1.873.457 2.249.886.292.468.555.903.78 1.304.436.787.685 1.444.78 2.01.165 1.113.018 1.946-.341 2.61-.355.626-.893 1.146-1.514 1.655-2.238 1.816-5.492 3.464-7.319 5.53-1.184 1.349-2.797 2.505-4.726 2.744-1.307.161-2.596.432-3.886.643-2.175.362-4.269-.369-6.398-.629-2.182-.271-4.732-.07-6.535-.306-2.586-.337-5.087-.917-7.67-1.265-5.815-.791-11.654-.077-17.171 2.199-1.82.759-3.917.411-5.2-.752-.945-.854-1.809-1.542-2.245-1.865-1.591-1.212-3.32-2.225-5.031-3.3-2.221-1.391-3.183-3.316-4.726-5.091-1.859 1.307-3.689 2.6-5.485 3.865.235.189.464.383.678.583 2.372 2.27 5.801 3.51 8.696 5.273 1.613.984 2.688 2.26 3.7 3.577 1.033 1.328.826 3.155-.569 4.406-3.422 3.07-6.461 6.507-9.933 9.638-2.589 2.336-5.505 4.093-8.418 6.025-1.869 1.244-3.875 2.319-5.913 3.349l-.559.284c-.703.358-1.448.622-2.203.84 2.073.741 4.49 1.444 7.276 2.102 1.184-.415 2.358-.829 3.451-1.398 5.231-2.702 11.465-9.6 13.531-11.458 2.618-2.357 4.782-4.975 7.322-7.375.105-.112.221-.218.337-.316 1.574-1.451 3.475-2.694 5.685-3.281 1.774-.478 3.211-.594 4.75-2.337.457-.517.133-.256.552-.474.344-.127.541-.173.632-.193.168-.015.014-.028.481.014.429.053 1.279.154 2.396.116 4.687-.154 8.489.218 12.87 1.409 1.033.28 2.112.678 3.226.909 1.687.352 3.197 1.325 3.24 2.794.049 1.588.362 3.127 1.135 4.624 1.223 2.354 3.545 4.022 4.648 6.447 1.1 2.421 1.455 5.077 3.021 7.322 1.718 2.445 4.81 4.013 4.248 7.298-.137.772-.369 1.524-.661 2.255-.661 1.684-2.825 2.699-4.75 2.158l-.808-.243c-.292-.095-.604-.196-.952-.319-.344-.123-.724-.26-1.138-.422-.422-.165-.907-.361-1.409-.565l-.829-.323c-.292-.109-.601-.225-.97-.352-.369-.123-.762-.246-1.191-.38l-1.409-.428c-.499-.151-1.037-.323-1.666-.524-2.066-.632-3.879-1.795-4.624-3.517-.081-.183-.166-.39-.256-.625-.081-.243-.169-.51-.264-.833l-.144-.545-.179-.66c-.081-.235-.243-.439-.506-.587-.267-.141-.65-.222-1.062-.268-.263-.01-.523-.01-.78-.007l-.397.015c-2.192.126-4.673.273-5.987-1.1-.133-.138-.274-.288-.407-.457-.141-.176-.278-.365-.418-.58-.144-.218-.288-.484-.446-.78-.154-.256-.312-.52-.506-.821l-.312-.496-.387-.569c-.151-.207-.337-.411-.594-.59-.26-.18-.622-.319-1.114-.397-.253-.031-.509-.06-.78-.073-.299-.004-.622-.004-1.005.024l-.583.028c-.112.007-.119.147-.007.141l.559-.025.959-.003c.594.024 1.04.099 1.367.222.33.122.565.284.776.474.218.292.411.594.573.861.151.267.288.513.411.755l.33.637.285.559.281.478c1.194 1.848 3.836 2.544 6.447 2.417 1.268-.063 2.129.854 2.186 1.904.007.253.024.475.039.672l.039.688.007.295c.056 1.771-1.486 3.296-3.116 4.561l1.015.119.302-.207c.394-.246.763-.46 1.125-.664.341-.183.65-.334.949-.457.298-.126.583-.229.85-.312.527-.154.949-.207 1.314-.179.355.021.675.102.98.189.551.172 1.071.344 1.521.499.439.147.829.291 1.208.439.376.14.692.267.984.386l.854.33c.541.204 1.001.391 1.384.56.383.168.72.333 1.026.495l.643.344c5.13.517 10.179.97 15.154 1.363-.014-.186-.014-.376.007-.565.095-.741.186-1.479.383-2.199.2-.745.516-1.486.815-2.225.147-.368.298-.737.436-1.106.099-.187.267-.365.513-.545.253-.179.597-.351 1.138-.516.278-.081.604-.169.977-.246.376-.081.839-.158 1.43-.226l.949-.105c.344-.038.728-.066 1.188-.091.464-.021.963-.031 1.515-.031.551-.004 1.167-.011 1.732-.07.285-.035.58-.099.893-.18.309-.088.629-.204.973-.369.344-.168.696-.368 1.054-.611.362-.238.749-.544 1.124-.893.38-.348.759-.744 1.202-1.215l.695-.752c.257-.268.541-.556.875-.872.337-.319.688-.632 1.061-.97.397-.341.85-.702 1.349-1.113.25-.204.481-.426.689-.646.21-.222.394-.443.555-.686.327-.51.52-.931.594-1.139.133-.421.235-.885.295-1.437.024-.211.035-.433.049-.664.014-.268-.594-.499-.611-.229-.028.376-.063.721-.105 1.026-.063.4-.155.762-.267 1.11-.133.291-.281.562-.443.804-.154.243-.323.464-.492.657-.341.365-.688.644-1.043.907-.316.231-.615.449-.885.656-.264.197-.517.401-.752.591-.457.372-.854.695-1.227 1.008-.418.397-.84.815-1.229 1.191-.352.33-.692.633-1.03.91-.323.281-.622.478-.906.643-.281.162-.566.31-.854.439-.471.154-.903.232-1.279.235-.373.007-.717-.024-1.054-.063-.565-.084-1.159-.176-1.676-.245l-1.402-.197c-.422-.057-.773-.112-1.1-.169l-.903-.147c-.551-.095-1.005-.196-1.384-.284-.379-.095-.706-.18-.998-.264-.58-.172-1.026-.33-1.37-.475-.688-.284-1.173-.544-1.521-.801-.327-.242-.632-.492-.935-.738-.601-.495-1.216-.987-1.746-1.535-1.922-1.988-1.623-4.209-2.4-6.595-1.075-3.353-6.061-5.488-5.766-9.237l.045-.387c.257-1.704 1.979-3 3.9-3.721.622-.239 1.311-.46 2.175-.572.544-.078.97-.018 1.363.084.52.137.998.348 1.648.446 2.14.31 3.816-.119 5.263-1.57 1.353-1.356 1.722-3.166 2.934-4.575 2.48-2.895 6.233-4.473 8.51-7.547 2.073-2.79 3.836-2.755 7.357-3.703 3.654-.987 6.029-3.907 9.701-4.881.397-.102.864-.183 1.371-.26.509-.081 1.05-.158 1.591-.253s1.114-.193 1.743-.337c.331-.063.682-.127 1.093-.187.408-.057.903-.102 1.476-.147l1.061-.046c.375-.018.812-.035 1.338-.046.541 0 1.163-.007 1.894.011.365.011.752.028 1.17.06.421.032.899.085 1.405.147l1.813.261c.352.053.728.095 1.142.123.418.021.896.027 1.402.031.517-.004 1.075.011 1.609.302.267.147.502.394.667.752.165.362.253.879.256 1.469 0 .303-.014.629-.042.991-.035.358-.091.78-.169 1.275l-.13.78-.137.878s-.113.653-.176.97l-.144.948-.158.974c-.06.337-.137.706-.235 1.159-.099.45-.183.928-.271 1.451-.078.534-.007 1.093.2 1.528.109.222.239.45.39.672.151.221.337.442.541.678.207.231.439.471.667.695.235.232.492.464.791.703.306.242.59.464.878.675.285.207.594.414.878.611.362.229.657.407.935.562l.755.446c.408.239.826.479 1.3.749l1.317.755c.738.422 1.093.615 1.251.671.274.105.147-.08-.513-.643-.081-.07-.309-.222-.745-.495-.211-.145-.471-.303-.752-.479l-.899-.559c-.31-.179-.58-.341-.836-.502-.264-.151-.52-.306-.755-.453-.464-.288-.864-.559-1.248-.829-.365-.264-.696-.517-.97-.749-.271-.229-.516-.446-.734-.657-.446-.432-.776-.812-1.061-1.173-.285-.352-.457-.682-.552-.984-.081-.288-.126-.572-.116-.84.039-.52.116-.962.197-1.384l.179-.809.176-.882c.063-.295.105-.569.154-.843l.148-.836c.119-.545.207-1.055.288-1.525.077-.464.154-.886.239-1.297.07-.414.144-.801.197-1.166.056-.358.098-.703.133-1.026.025-.33.025-.604.011-.871-.018-.267-.046-.527-.084-.772-.081-.475-.271-.984-.594-1.354-.312-.365-.727-.594-1.188-.713-.45-.112-.875-.151-1.24-.183-.362-.035-.713-.084-1.029-.127-.625-.08-1.167-.214-1.659-.354l-1.16-.369-.962-.288-.826-.253c-.657-.165-1.205-.302-1.645-.404-.429-.098-.787-.193-1.1-.273l-1.321-.387c-.39-.147-.709-.288-.991-.418-.271-.13-.513-.25-.717-.373-.394-.228-.692-.436-.927-.629-.468-.386-.752-.706-.949-.983-.19-.274-.383-.527-.59-.773-.646-.73-1.44-1.391-2.129-2.023-3.036-2.769-6.198-6.124-8.612-9.321-1.679-2.263-2.076-3.327-2.625-4.712-.534-1.395-1.23-3.109-3.127-5.625-1.226-1.651-2.86-2.86-4.708-4.002-.196-.116-1.764-1.342-2.769-2.326-.264-.264-.32-.636-.323-.99-.007-.193.151-.373.376-.419 4.501-.913 5.685-3.556 8.362-6.377 5.495-5.766 13.26-1.823 19.578-.825 4.525.709 9.553-1.216 12.146 2.648.618.925 1.996 3.557 3.591 4.751.429.319.794.695 1.026 1.139.235.453.003 1.008-.555 1.265-.218.099-.517.2-.899.291l-1.026.19c-.394.07-.847.172-1.325.341-.235.115-.464.235-.685.376-.229.154-.457.341-.685.552-.257.245-.496.502-.749.797-.253.303-.52.657-.77 1.037-.137.231-.267.464-.376.709-.126.253-.25.541-.365.857-.063.193-.162.387-.299.559-.141.173-.337.331-.611.468-.362.123-.763.225-1.254.323-.235.049-.506.099-.797.137-.443.067-.418.646.021.587l.573-.084c.418-.057.822-.13 1.191-.204.32-.07.632-.158.931-.267.292-.105.52-.239.696-.401.165-.161.285-.361.365-.568.088-.246.183-.464.292-.661.102-.193.208-.369.306-.526l.288-.437c1.223-1.661 3.858-1.784 6.11-1.644l.601.035c.369.018.682.042.98.073.295.035.559.084.787.141.225.053.446.108.625.165.369.127.65.253.885.387.229.134.418.26.601.379l.51.355c.312.221.625.425.941.636 3.781 2.46 7.825 4.448 10.66 7.997.397.499.826 1.096 1.297 1.718 1.159 1.539 1.535 3.415 1.683 5.277.264 3.219 2.2 5.815.362 9.459-2.403 4.761-1.016 9.124-1.518 13.966-.432 4.199.014 6.693 1.624 10.492.087.203.144.414.186.625.277 1.581-1.694 2.72-3.552 3.307-1.23.379-2.414.92-4.03 1.219-2.343.433-4.304-1.595-6.704-.488-2.01.921-2.758 2.99-4.431 4.312l-.706.534c-2.632 1.887-3.352 4.016-4.747 6.433-1.781 3.096-8.31 4.958-8.647 8.264-.168 1.669-.432 3.331-1.001 4.962-.478 1.355-1.156 2.814-2.699 3.436-1.911.767-3.717 1.761-5.309 2.892-1.567 1.114-2.881 2.499-4.311 3.742 2.386.05 4.764.077 7.122.081 1.022-.84 2.098-1.609 3.31-2.188 1.968-.945 5.333-1.813 7.544-1.743 2.994.088 4.444 2.529 6.95 3.569 4.314-.189 8.58-.46 12.796-.801.07-.161.155-.334.264-.527l.418-.724c.158-.26.351-.555.608-.902.256-.362.576-.77.987-1.244.2-.246.429-.503.664-.77l.797-.851.97-1.025c.187-.19.397-.4.622-.615.218-.218.467-.46.749-.724.281-.271.576-.559.885-.882.32-.323.734-.668 1.356-.959.316-.151.654-.285 1.026-.394.369-.112.812-.183 1.275-.243.429-.035.85-.053 1.254-.062.534-.004.242-.833-.292-.844-.302-.007-.597-.003-.868.011-.365.021-.713.053-1.058.092-.355.034-.727.034-1.149.003-.253-.042-.52-.095-.836-.172-.319-.081-.709-.197-1.163-.345-1.926-.685-3.689-2.045-3.173-3.812.07-.236.168-.521.288-.826l.211-.66c.07-.232.14-.496.204-.802.06-.323.099-.667.102-1.054 0-.204-.014-.411-.039-.618-.025-.208-.057-.415-.102-.619l-.141-.664c-.056-.231-.123-.495-.208-.797-.084-.312-.172-.602-.253-.847l-.172-.556-.158-.523c-.042-.134-.12-.292-.292-.281-.165.018-.193.193-.187.334.011.145.042.365.109.738.028.179.123.533.239.99l.154.646.113.594c.066.369.116.686.137.956.021.264.018.51.007.741-.018.235-.056.475-.116.703-.06.221-.133.446-.218.656-.162.419-.327.773-.488 1.118-.134.295-.243.576-.323.814-.084.246-.141.471-.197.699-.091.299-.172.594-.232.861-.053.264-.091.513-.109.755-.018.239 0 .453.049.646.049.187.13.358.256.514.246.291.538.498.791.678l.168.134c1.476 1.17.9 3.218-.791 4.392l-.854.576-1.398.91c-.404.264-.738.464-1.04.636-.299.172-.587.327-.857.468-.453.189-.84.299-1.173.354-.334.046-.629.066-.889.046-.502-.042-.962-.109-1.469-.145-3.573-.231-4.645.176-7.501-1.746-1.159-.78-2.428-1.317-3.77-1.637-1.493-.362-2.27-1.684-1.739-2.97.826-1.984-.636-3.914 1.624-5.432 1.549-1.029 3.12-1.592 4.406-3.001 1.792-1.964 2.102-4.567 4.104-6.415.583-.538 1.957-1.318 3.341-2.21 1.683-1.097 3.784-1.554 5.85-1.596.292-.007.544-.024.755-.066 1.743-.334 3.04-1.634 4.747-1.771 1.311-.104 2.607.626 3.875.815 1.641.239 3.31-.066 4.929.088 3.577.341 5.13 3.307 8.798 3.742 2.386.288 4.821-.242 6.641 1.191 2.021 1.584 2.695 4.058 4.866 5.66 2.115 1.623 3.844 2.309 5.119 2.779 1.251.481 2.053.752 3.841 2.076 1.761 1.356 2.157 1.985 2.856 2.979.165.246.355.51.573.801.432.569.804 1.17 1.131 1.796 2.818-.763 5.625-1.561 8.422-2.417.629-1.23 1.29-2.453 1.992-3.693 2.305-4.051 3.658-8.591 6.388-12.47 2.66-3.776 7.652-5.636 11.634-8.285 2.881-1.907 7.252-7.037 11.061-5.144 2.062 1.022 3.51 3.18 5.218 4.558 1.599 1.285 3.58 2.993 2.168 4.609-.074.092-.173.189-.281.284-.222.201-.534.429-.906.675l-.679.415c-.238.137-.523.299-.854.471-.348.187-.738.379-1.205.598-.232.115-.492.228-.78.344l-.229.092c-2.888 1.138-5.867 2.863-6.173 5.449-.035.341.569-.523.611-.864.189-1.455 1.658-2.607 3.387-2.951.471-.092.868-.19 1.255-.306l1.124-.32c.299-.088.576-.176.851-.267.442-.145.857-.277 1.236-.415l.906-.361.773-.316 1.209-.51.471-.207c1.964-.871 4.079-2.294 5.99-1.574l3.753 1.374c2.272-.879 4.525-1.75 6.763-2.61-2.877-1.519-5.916-2.709-8.471-3.511-4.574-1.451-7.529-3.303-10.368-6.408-1.17-1.279-1.413-3.12-.123-4.483.316-.345.678-.668 1.1-.945 1.374-.921 3.229-.966 4.81-1.595.313-.123.619-.274.907-.454.502-.33.909-.671 1.531-1.008.31-.165.77-.299 1.438-.354.341-.032.724-.046 1.17-.053.464-.008 1.04.027 1.743.087.354.035.733.067 1.166.123.429.053.941.123 1.546.184.306.034.618.034.948.018.327-.025.664-.074 1.048-.162.383-.099.762-.211 1.128-.334.372-.13.752-.284 1.085-.422l1.075-.453 1.328-.583c.514-.225 1.086-.464 1.739-.724.341-.134.699-.26 1.047-.38.355-.123.725-.238 1.079-.344.372-.105.752-.215 1.159-.338.408-.123.829-.326 1.223-.66.397-.345.71-.783.932-1.335.108-.288.189-.58.249-.879.05-.295.07-.601.077-.878l-.021-.889-.042-.984-.035-1.139-.053-1.24c-.018-.432-.021-.871.007-1.346.038-.474.235-.959.772-1.366.271-.207.552-.391.826-.548.274-.158.552-.299.851-.426l1.282-.552c.457-.211.948-.436 1.539-.688l.938-.411c.331-.158.686-.334 1.058-.576.373-.249.776-.517 1.255-.78.246-.141.53-.271.836-.39.306-.116.64-.225 1.04-.31.4-.073.818-.119 1.271-.112.461.011.987.07 1.581.183l.938.169c.316.057.646.109 1.016.095.379-.024.745-.088 1.075-.203.253-.088.492-.219.71-.369.095-.067.189-.176.091-.229-.077-.042-.183-.018-.26.038-.323.229-.66.391-1.009.499-.394.116-.92.103-1.426.025-.503-.085-.987-.176-1.466-.268-.467-.084-.878-.123-1.243-.134-.362-.007-.71.015-1.048.061-.656.102-1.184.271-1.616.471-.428.193-.801.407-1.148.636-.292.204-.734.495-1.198.734-1.676.896-3.675 1.001-5.572.899-1.799-.099-3.45-.949-3.773-2.407-.088-.386-.165-.86-.261-1.37-.049-.26-.108-.534-.183-.812-.07-.281-.186-.58-.396-.896-.208-.306-.475-.594-.802-.861-.33-.267-.709-.534-1.071-.79-.376-.253-.763-.524-1.191-.833-.432-.323-.899-.703-1.293-1.029l-.896-.752c-.274-.225-.569-.446-.935-.556-.362-.112-.664.264-.492.538l.204.288c.091.105.231.271.453.488.215.218.495.499.854.84.355.337.728.667 1.058.948.327.281.629.521.91.749.284.221.534.436.763.636.221.203.429.411.583.604.299.383.425.748.46 1.096.028.345.035.633.035.903l-.007.783.035.868c.018.273.039.537.067.78.06.48.14.902.249 1.289l.084.274c.369 1.058 1.497 1.739 2.562 2.371.527.306 1.002.696 1.191 1.216.091.239.119.453.126.66l.011 1.065-.003.882c0 .565.014 1.058.007 1.469l-.018.586c-.109 1.87-2.414 3.012-4.578 3.654l-.411.127c-.53.169-1.005.337-1.458.495-.461.158-.886.312-1.258.45-.369.133-.714.256-1.044.365-.66.221-1.216.396-1.718.526-.503.131-.91.18-1.258.184-.345.003-.657-.025-.928-.085-.523-.137-.952-.299-1.335-.449-.391-.147-.738-.281-1.055-.408-.312-.13-.611-.253-.885-.376-.542-.228-.984-.432-1.363-.636-.362-.189-.65-.369-.907-.527-.249-.161-.471-.312-.653-.453-.365-.28-.59-.534-.741-.77-.147-.235-.242-.464-.306-.691l-.302-1.332c-.292-1.321-.521-2.625-.292-3.837.534-2.733 1.922-7.769 1.823-11.999-.035-1.735.844-3.426 1.729-5.06 2.315-4.258.98-8.545 8.619-8.555 2.979-.008 5.766.896 8.721.902 3.439.004 6.757-1.654 10.172-1.349 2.762.253 5.01 1.696 7.648 2.255 4.115.879 8.423-.192 12.564.984 3.897 1.093 6.068 3.602 7.948 6.479.899 1.374 1.68 2.713 2.99 3.848.787.675 4.645 2.084 4.834 2.649.419 1.275-4.325 4.859-5.154 6.271-1.605 2.705-2.403 5.685-4.416 8.25-.162.204-.341.418-.531.64l-.586.688c-.211.229-.541.383-1.163.365-.2-.031-.411-.077-.657-.137-.239-.057-.523-.138-.847-.242-.373-.134-.787-.296-1.262-.485-.291-.109-.597-.222-.938-.334-.404-.084-.861-.133-1.354-.13-.337.049-.671.109-1.054.189-.387.081-.847.193-1.342.327l-.89.225c-.309.081-.66.165-1.019.239-.362.073-.668.134-.917.176l-.618.116c-.274.049-.45.102-.58.147-.189.07-.281.267-.147.372.204.162.495.222.783.211l.376-.021c.285-.024.657-.053 1.114-.108.453-.06.917-.138 1.346-.211.369-.06.724-.116 1.068-.165.298-.035.576-.063.818-.07.249-.015.467-.018.657-.007.368.031.653.105.896.211.354.214.643.418.875.597.222.169.411.323.594.475.295.249.552.481.766.678.204.197.366.358.51.514l.4.407c.453.478.945.938 1.444 1.388 2.934-1.557 5.713-3.158 8.313-4.807l.203-.334c1.009-1.454 1.764-3.011 2.28-4.645.763-2.414 1.423-4.121 3.729-5.941.4-.306.752-.633 1.061-.97.312-.334.587-.686.833-1.04.267-.365.632-.766 1.282-1.229.327-.229.809-.499 1.479-.802.344-.147.77-.302 1.282-.453.26-.077.562-.15.886-.225.323-.081.674-.158 1.078-.225.404-.074.854-.138 1.385-.18l.889-.077s.671-.06 1.054-.105l.358-.038c1.634-2.474 2.931-5.07 3.845-7.832l-.074-.193c-.218-.429-.446-.847-.721-1.293-.271-.45-.59-.948-.973-1.539l-.604-.97c-.207-.348-.422-.717-.653-1.146-.229-.432-.415-.935-.461-1.56-.021-.327 0-.699.061-1.1.053-.404.14-.851.267-1.328.099-.303.196-.604.319-.91.316-.809-1.971-.053-2.27.755l-.091.264c-.226.682-.429 1.402-.527 2.052-.095.636-.06 1.227.063 1.768.133.545.295.991.449 1.388l.45 1.121c.26.692.495 1.282.643 1.781.109.369.193.71.25 1.019.284 1.431-.584 2.896-1.849 4.006-1.243 1.093-2.916 1.887-4.645 1.781-.429-.028-.787-.056-1.11-.084-.32-.035-.604-.063-.847-.103-.475-.077-.819-.179-1.104-.291-.281-.112-.517-.232-.71-.355-.358-.253-.717-.495-1.121-.706-.403-.218-.847-.4-1.353-.559-4.135-1.282-3.549-4.638-5.899-7.221-.309-.344-.643-.678-.99-.986-1.402-1.272-2.207-2.935-2.348-4.709-.108-1.373-.273-2.758.338-4.262 1.627-4.006 2.674-7.677 3.004-11.844.197-2.537.235-5.099.822-7.628.601-2.562 2.368-4.571 3.271-7.027 1.047-2.867 3.183-4.508 5.214-6.437-1.191-1.448-2.425-2.854-3.718-4.188-1.198 1.7-2.494 3.345-3.98 5.108-5.274 6.216-5.116 12.414-7.003 19.356-.847 3.096-.857 6.212-1.641 9.297-.414 1.638-1.251 3.246-1.855 4.866-.53 1.412-2.104 2.547-3.784 2.276-2.312-.365-4.708-.481-7.111-.341-3.724.219-6.124-2.477-9.816-2.564-4.519-.099-8.932 1.581-13.457 1.455-3.219-.085-6.346-.809-9.567-.819-1.897 0-3.619-.86-4.171-2.34-.71-1.908-1.665-3.738-2.206-5.706-1.388-5.066 3.633-7.551 7.294-10.843.73-.664 1.356-1.377 1.858-2.129.257-.376.485-.759.688-1.156.134-.193.316-.4.552-.608.246-.21.58-.436 1.1-.678.271-.123.584-.246.938-.379.358-.138.791-.285 1.342-.443l.925-.249 1.12-.285 1.42-.351c.517-.134 1.082-.299 1.616-.468l.868-.267c.312-.096.649-.19 1.04-.299.394-.109.832-.207 1.338-.288.507-.077 1.118-.134 1.739-.187l1.02-.077 1.229-.092s.994-.07 1.546.007c.277.053.556.18.805.338.253.165.488.394.688.671.215.288.429.598.657.952.229.358.495.787.77 1.247l.464.837c.147.291.299.614.464 1.005.154.396.323.787.506 1.181.187.403.387.797.576 1.085l.598.949c.218.348.474.745.783 1.212.165.232.345.46.527.688.186.232.4.479.678.738.284.271.58.517.896.728.316.214.664.403.963.537.303.141.615.264.942.383.33.119.702.246 1.109.38.822.264 1.416.467 1.739.587l.401.147c.225.088.847.105.674-.039-.28-.246-.632-.429-1.008-.559l-.268-.099c-.394-.137-.91-.309-1.518-.509-.604-.2-1.152-.391-1.647-.598-.387-.193-.763-.4-1.121-.629-.268-.211-.51-.429-.717-.64-.207-.218-.4-.432-.562-.636-.319-.4-.562-.766-.783-1.11l-.548-.903-.45-.744c-.271-.457-.471-.847-.66-1.23-.158-.376-.316-.772-.468-1.163-.147-.379-.309-.744-.491-1.124-.18-.369-.355-.699-.521-1.001-.161-.306-.327-.594-.499-.893l-.471-.812c-.158-.246-.31-.488-.468-.714-.312-.429-.664-.752-1.089-.977-.429-.218-.928-.316-1.412-.326-.479-.011-.924-.004-1.353.003-.433.015-.787.011-1.121.015l-.945-.008c-.598.004-1.223.011-1.788.046-.556.028-1.062.092-1.543.165-.467.081-.867.138-1.216.189-.354.053-.685.099-1.001.138-.607.081-1.167.123-1.641.144-.461.018-.872.021-1.247.015-.728-.015-1.311-.057-1.8-.112-.484-.053-.854-.113-1.17-.184-.309-.069-.579-.154-.787-.235-.414-.172-.678-.354-.825-.551-.299-.397-.443-.791-.618-1.178-.169-.39-.369-.766-.604-1.138-1.465-2.358-4.252-3.654-5.787-5.857-.657-.991-1.265-1.669-1.616-2.087-.365-.436-.352-.485-.354-.514-.668-3.369 3.686-6.549 6.623-8.565 2.551-1.746 5.506-3.025 7.958-4.888.495-.376 1.521-1.412 2.564-2.681 1.269-1.546 3.17-2.643 5.109-3.566 1.04-.492 2.104-1.104 3.074-1.753-2.436-.767-4.926-1.466-7.463-2.102-1.17.556-2.28 1.17-3.116 2.052-.734.777-1.343 1.677-1.831 2.306-1.722 2.237-3.538 3.97-6.04 5.653-3.032 2.037-6.988 4.546-9.504 7.466-.675.783-1.81 1.205-2.892 1.064-.65-.081-1.398-.158-2.069-.196-1.026-.057-2.045-.292-2.74-.882-.446-.38-.903-.759-1.136-1.258-.808-1.701-2.087-3.353-2.677-4.41-2.031-3.703-.334-7.435-6.645-7.884-4.473-.32-7.094-3.317-11.1-3.918-1.366-.211-2.343-1.307-1.661-2.379.632-.99.896-1.978.994-2.973-2.06.011-4.125.039-6.201.099-.099.468-.215.941-.387 1.427-.173.481-.404.98-.633 1.489-.165.38-.414.932-.678 1.561l-.257.66-.291.686-.303.664-.425.702c-.158.246-.348.503-.562.787-.134.211-.369.499-.702.875-.208.215-.437.461-.696.752-.123.189-.229.394-.327.629-.095.232-.154.521-.175.836.018.232.056.461.123.703.066.25.186.513.368.822l.323.484c.112.169.235.349.384.545.144.207.291.433.425.65.137.214.26.442.352.664.095.229.186.46.256.724.074.267.151.555.243.825.183.538.309.879.386 1.062l.095.231c.081.184.257.408.439.268.268-.193.253-.503.183-.773l-.168-.579c-.074-.243-.162-.548-.226-.875-.06-.33-.133-.633-.238-.914-.099-.277-.208-.53-.31-.751-.108-.229-.222-.433-.33-.63-.222-.386-.394-.706-.548-1.008-.092-.26-.141-.495-.151-.699-.011-.197.003-.372.06-.51.095-.271.253-.46.446-.597.387-.257.755-.443 1.079-.602l.839-.369c.485-.214.89-.354 1.244-.46.58-.105.998-.084 1.353-.007.31.07.629.134.967.187 2.315.376 5.08.403 6.735 1.7 2.474 1.936 5.997 1.405 8.303 3.229 2.041 1.62 2.483 4.315 3.145 6.585.517 1.739.523 3.745-1.02 5.137-.847.759-1.605.875-3.38 1.374-2.14.601-3.809 1.768-5.084 3.313-1.961 2.378-3.116 2.037-6.219 1.862-3.837-.215-7.568 1.142-11.395 1.043l-.952-.038-.573-.035c-2.087-.088-3.921-.935-5.491-1.996l-.193-.127c-2.604-1.644-5.833-2.494-8.728-3.741-2.214-.963-3.658-3.082-5.376-4.54-.348-.309-.706-.594-1.058-1.061-.176-.235-.327-.538-.446-.978-.06-.218-.112-.478-.158-.779-.046-.299-.084-.633-.116-1.055-.038-.418-.073-.91-.133-1.507l-.112-.974c-.042-.354-.077-.766-.116-1.229-.018-.229-.039-.485-.046-.745-.018-.271-.021-.555-.021-.878.003-.33.021-.692.049-1.086.039-.404.102-.857.172-1.342.039-.246.085-.503.138-.773.062-.271.154-.559.319-.899.165-.352.383-.713.682-1.106.306-.391.728-.826 1.191-1.244.249-.211.506-.422.783-.643.277-.215.59-.454.98-.725.4-.273.805-.555 1.258-.85.464-.303.998-.626 1.524-.907.274-.154.562-.302.851-.453l.98-.502c.365-.187.737-.383 1.117-.591.383-.221.776-.481 1.093-.79.306-.316.53-.668.653-1.062l.014-.056-.506.049c-.102.242-.2.485-.372.688-.229.278-.485.471-.756.644-.256.165-.526.319-.79.449-.517.268-1.026.514-1.465.728-.446.214-.848.411-1.223.604-.38.179-.686.352-.967.513-.277.162-.545.32-.798.481-.481.303-.938.594-1.317.847-.383.257-.724.488-1.033.717-.309.218-.576.425-.822.626-.238.192-.463.386-.667.579-.211.193-.506.51-.794.879-.274.354-.517.744-.731 1.159-.21.415-.341.783-.436 1.117-.095.338-.176.66-.246.984-.08.312-.147.601-.207.871l-.158.755c-.084.468-.147.879-.196 1.272l-.138 1.029-.115.851c-.077.517-.158.952-.257 1.335-.108.387-.222.724-.326 1.016-.113.291-.219.559-.331.801-.225.478-.438.871-.653 1.174-.211.306-.422.555-.625.766-.208.215-.415.387-.615.537-.341.257-.607.461-.854.661-.759.481-1.462.991-2.445 1.191-1.965.39-3.557-.008-5.387.228-1.676.215-3.439-.242-3.974-1.531-.618-1.49-1.501-2.863-2.565-4.14-1.278-1.528-2.976-2.947-3.113-4.855-.021-.264-.021-.565-.007-.924l.024-.801c.014-.296.025-.619.06-.974.031-.354.088-.745.165-1.212l.154-.756c.057-.271.116-.548.208-.875.095-.326.179-.66.327-1.008.155-.352.481-.717 1.072-1.068.32-.18.661-.341 1.047-.495.386-.151.843-.31 1.391-.499.549-.183 1.075-.391 1.589-.615l.376-.169.024-.031c-1.799.302-3.718.636-5.728 1.001-.225.116-.429.243-.604.373-.318.265-.592.535-.809.813zm82.337 88.64c-.802 2.383-.481 4.578.081 6.876.436 1.764 1.071 2.825-.619 4.234-1.634 1.37-4.125 2.171-5.867 3.569-.724.573-1.402 1.1-2.102 1.605-1.827 1.314-4.392 1.497-6.338 2.682-2.432 1.472-3.05 4.561-5.847 5.969-1.55.784-3.366.938-4.961 1.694-4.171 1.992-6.363 4.992-9.308 7.976-2.442 2.47-4.655 5.007-5.559 8.147-.66 2.312-.721 4.013-2.041 5.899-.938 1.339-3.106 1.216-4.393.246-3.053-2.305-6.549-4.248-7.937-4.862-5.053-2.231-6.037-7.695-11.311-9.501-2.344-.794-4.897.187-7.122-.534-2.586-.836-3.672-2.888-6.739-3.303l-.496-.063c-1.781-.218-2.723-1.665-2.871-3.169-.2-2.021-1.69-3.668-2.322-5.836-.805-2.769.815-6.219.724-9.139-.098-3.353-.162-6.7 1.24-9.993.875-2.048 1.504-4.23 1.318-6.355-.099-1.16-.938-2.354-1.356-3.556-.481-1.405 1.771-2.203 3.436-1.726.629.187 1.29.32 2.01.362 3.226.176 6.577-1.455 9.884-1.592 3.453-.145 7.013.513 9.605 2.305 2.709 1.869 4.16 4.765 7.228 6.047.387.158.794.292 1.229.404.446.112.959.214 1.613.337.326.077.678.193 1.064.369l.306.161c1.746 1.033 2.179 3.005 1.434 4.793l-.095.231-.109.246c-.79 1.816-2.153 3.588-4.328 4.245-.232.073-.481.144-.752.214-.545.13-1.17.235-1.933.267-.391.015-.826.004-1.311-.014-.479-.035-1.005-.07-1.603-.147-.618-.077-1.275-.154-2.027-.253-.752-.092-1.641-.18-2.597-.046-.481.081-.941.242-1.381.453-.438.222-.867.514-1.313.903-.45.396-.899.794-1.388 1.212-.496.426-1.058.882-1.624 1.339-.576.442-1.198.896-1.975 1.412-.4.253-.843.531-1.32.805-.485.277-1.048.591-1.539 1.037-.492.46-.819 1.061-.991 1.837-.077.397-.13.826-.161 1.272-.032.442-.025.935 0 1.461.062 1.044.098 1.831.105 2.361.003.527-.021.805-.063.914l-.18.559c-.095.316.358.52.594.253.32-.369.468-.809.503-1.247.021-.32.031-.738.028-1.272-.004-.534-.021-1.184-.015-1.806.011-.468.046-.903.109-1.304.267-1.729 2.153-2.938 3.879-4.013.238-.147.46-.291.671-.432.411-.278.808-.552 1.17-.819.703-.517 1.3-.962 1.838-1.391.53-.415 1.093-.857 1.619-1.174.521-.319 1.051-.538 1.567-.622 1.033-.144 1.894.011 2.667.172.766.158 1.398.292 1.957.401.562.102 1.089.196 1.62.284.896.088 1.795.137 2.593.099.783-.042 1.493-.134 2.178-.239.675-.108 1.251-.231 1.765-.372.509-.145.987-.31 1.447-.492.889-.376 1.627-.798 2.21-1.227.572-.418 1.047-.818 1.479-1.181.425-.358.857-.699 1.271-.987.415-.28.833-.548 1.202-.752.733-.383 1.373-.618 1.731-.594.365.018.696.067 1.135.028.415-.018.868-.038 1.36-.084.502-.039 1.005-.092 1.563-.151.569-.056 1.219-.095 1.848-.116.401.015.777.05 1.132.134.358.095.713.257 1.078.527.366.288.703.594 1.044.955.345.362.692.795 1.022 1.233l.527.584.594.667.706.791c.264.284.572.607.924.948.352.334.71.657 1.022.924l.745.629c.358.303.52.426.604.475.288.154.271.035-.007-.31l-.411-.396-.611-.559c-.274-.253-.591-.559-.938-.899-.341-.345-.682-.724-.98-1.075-.284-.341-.552-.657-.801-.974l-.65-.812-.545-.706c-.179-.222-.383-.478-.597-.713-.215-.235-.446-.475-.688-.707-.229-.218-.461-.411-.692-.572-.235-.169-.478-.306-.724-.415-.496-.221-.963-.315-1.405-.344-.429-.028-.83-.039-1.224-.039-.383.004-.783.018-1.159.042l-1.104.061c-.695.027-1.285.021-1.806-.008-.513-.031-.92-.088-1.262-.168-.34-.074-.653-.162-.927-.25-.556-.189-.995-.471-1.272-.79-.267-.32-.449-.646-.607-.952-.154-.306-.274-.576-.376-.822l-.274-.696c-.119-.319-.207-.59-.267-.832-.453-1.781 1.518-3.324 3.235-4.61.893-.667 1.677-1.423 2.315-2.238 2.552-3.25 9.554-4.037 13.637-4.799 2.571-.481 5.147-.415 7.733-.598 5.225-.369 13.464-2.709 17.156 1.511 2.457 2.804-.544 7.529-1.534 10.487zm-74.302-64.86c1.093-.906 1.515-1.208 1.638-1.254 2.772-1.079 5.601-.007 8.4-.78 1.624-.442 3.714-2.357 5.147-1.816 2.045.766 2.502 3.545 4.347 4.677 2.586 1.588 5.92 1.788 8.141 3.837 1.448 1.342 2.653 3 2.333 4.869-.07.394-.183.851-.344 1.413l-.274.902c-.105.338-.235.734-.394 1.163-.154.436-.33.903-.548 1.465-.12.289-.257.602-.4.918-.148.315-.32.682-.517 1.078-.197.391-.408.798-.664 1.275l-.204.365c-.772 1.42-2.087 2.748-3.903 2.952-3.232.368-5.868 2.463-7.182 5.003l-.134.231c-.207.327-.457.611-.798.875-.348.261-.805.492-1.3.696-.495.168-1.019.341-1.655.526l-1.043.299c-.365.103-.794.215-1.265.338-.481.126-1.009.26-1.616.403l-.978.239c-.344.088-.72.172-1.146.271l-1.328.306c-.478.109-1.012.229-1.608.372-.611.145-1.202.278-1.774.45-.584.179-1.04.397-1.258.537-.453.299-.921.644-1.459 1.093-.273.226-.572.479-.902.767-.33.298-.717.657-1.11 1.036l-.633.64c-.214.214-.439.446-.692.728-.264.281-.527.576-.791.867l-.692.767c-.58.629-.875.935-1.047 1.1l-.394.326c-.049.057.018.123.109.113.221-.039.418-.145.583-.281.193-.176.523-.492 1.11-1.1l.73-.787.755-.802c.243-.253.467-.478.685-.691l.608-.584c.39-.361.752-.685 1.067-.959.32-.267.615-.506.907-.738.506-.383.97-.706 1.405-.973.242-.141.836-.4 1.687-.633l1.156-.26 1.124-.239 1.043-.218.942-.2c.587-.123 1.1-.235 1.602-.348l1.363-.302 1.149-.274.998-.246.902-.242c.668-.162 1.297-.327 1.82-.492.253-.077.488-.165.706-.257 1.711-.681 2.513-2.27 3.159-3.741.291-.657.766-1.381 1.584-1.42.116-.007.235.004.345.024.425.103.787.193 1.11.278l.935.249c.664.154 1.282.292 1.806.407 2.199.464 4.241 1.262 6.392 1.849.358.102.713.196 1.078.281.387.091.812.172 1.286.267.492.092.952.165 1.388.232.45.062.844.119 1.093.161.517.077 1.051.134 1.666.193.315.031.667.057 1.025.084.358.025.759.07 1.178.222.4.169.759.45 1.047.893.13.235.235.51.323.808.088.303.147.657.158 1.068-.008.422-.039.868-.116 1.367-.042.267-.092.544-.151.825-.066.281-.134.569-.242.907-.042.14.095.263.144.123.092-.31.173-.595.236-.865.066-.271.122-.52.168-.766.088-.488.151-.935.172-1.321.025-.368.011-.713-.035-1.019-.08-.611-.238-1.093-.453-1.508-.108-.207-.383-.495-.829-.717-.442-.218-.99-.306-1.609-.351-.604-.043-1.135-.085-1.623-.127-.481-.049-.931-.105-1.384-.165-.453-.066-.844-.127-1.195-.189-.351-.06-.682-.13-.997-.197-.637-.141-1.167-.267-1.645-.404-.464-.144-.886-.284-1.255-.41-.354-.123-.674-.257-.973-.394-.598-.268-1.079-.517-1.462-.763-.39-.242-.64-.51-.77-.77-.137-.268-.204-.534-.161-.776.091-.481.326-.879.533-1.24.215-.369.397-.682.573-.967l.527-.808c.186-.288.368-.562.541-.812l.488-.717.805-1.195.636-.966c.187-.277.361-.552.534-.826.312-.498.583-.92.812-1.271l.66-.998.576-.829.506-.682.83-1.054.368-.514c.488-.533.91-.917 1.265-1.173.334-.218.622-.362.879-.453.506-.176.893-.169 1.236-.147.692.049 1.283.066 1.655.062 4.097-.003 7.902-2.228 11.897-2.017 3.404.18 5.889.565 8.86-1.472 2.221-1.521 3.781-3.355 6.3-4.582.861-.411 1.747-.756 2.555-1.174 1.711-.893 3.672-1.823 5.467-1.286.738.229 1.554.461 2.379.657 1.95.464 3.261 1.838 4.244 3.289 1.49 2.196 4.027 3.725 5.598 5.871 3.025 4.167.439 7.273-3.773 10.157-1.29.886-2.354 1.985-3.18 3.194-.84 1.227-2.333 2.206-3.942 2.014-3.229-.404-6.708-.38-9.606 1.131l-.675.365c-.467.268-.973.594-1.472.928l-.453.316c-1.719 1.216-4.136 1.313-5.844.306l-.337-.207c-.246-.155-.91.088-.675.253.288.196.618.425.956.632.449.274.893.51 1.349.71.457.197.857.316 1.227.362.369.045.73.035 1.086-.011.685-.099 1.247-.358 1.7-.629.446-.268.837-.506 1.216-.745.348-.207.748-.45 1.139-.657.379-.211.759-.404 1.139-.594l.906-.383c2.021-.851 4.318-.517 6.138.39l.608.32c.354.196.64.372.885.526.25.166.464.313.654.457.354.274.607.51.805.717.192.204.351.394.46.559.225.32.365.594.471.837.108.238.187.46.239.653.102.396.211.77.344 1.128.646 1.823 1.754 3.422 2.33 5.53.271.987.102 1.978-.025 2.973-.228 1.834-.46 3.703-1.423 5.41l-1.324 2.238c-.646 1.11-2.066 1.75-3.5 1.911-1.434.158-2.8-.267-3.886-.97-.766-.498-1.687-.797-2.797-.73-3.896.07-7.08 2.698-10.966 2.34-3.281-.302-5.864-.291-9.22.488-3.334.78-7.389 1.781-10.305 3.458-2.902 1.672-4.42 5.172-8.019 5.944-4.95 1.068-6.061-2.428-8.587-4.768-3.928-3.65-13.211-5.344-19.106-3.654-1.62.468-2.941 1.339-4.694 1.174-.963-.092-1.823-.352-2.67-.604-1.985-.594-3.746-1.585-5.06-2.927-2.769-2.814-7.364-4.793-10.382-6.841-2.435-1.655-4.293-3.689-6.208-5.706-.98-1.026-.383-2.53.608-3.679 1.128-1.3 1.901-3.008 3.025-4.125 2.119-2.108 4.617-3.865 6.605-6.089 3.756-4.195 5.773-9.174 9.255-13.496 2.455-3.041 5.382-5.497 8.463-8.058zM420.056 226.511l-2.031.576c.601-3.682.963-7.287 1.086-10.622l3.471-1.574-3.436.295c.024-1.293.007-2.541-.035-3.731l2.902-.531-2.927-.119c-.184-3.387-.672-6.261-1.448-8.338-.13-.337-.256-.667-.39-.987l.917-.464-1.036.197c-1.013-2.315-2.242-4.185-3.57-5.646l1.515-3.331-1.996 2.829c-.854-.854-1.739-1.55-2.635-2.091l.664-.871-.857.755c-.362-.208-.714-.387-1.075-.545l.035-.172c-.695-.309-1.388-.523-2.062-.654l-1.149-3.215.19 3.082c-1.079-.084-2.095.06-3.008.408l-.66-1.711.414 1.803c-.78.348-1.472.85-2.023 1.514-1.16 1.392-2.144 2.737-2.973 4.044l-3.738-1.328 3.313 2.006c-.749 1.248-1.332 2.453-1.768 3.626l-.439-.228.411.295c-1.106 2.994-1.229 5.759-.369 8.345.64 1.918 1.237 5.126 1.645 8.991l-2.14-.587 2.186 1.026c.938 9.452.678 22.585-3.064 30.547-1.106 2.351-3.042 4.227-5.755 5.583l.066.162-.056.028c-.281.137-.565.271-.857.394l-.172.077c-.323.134-.653.26-.984.38l-.238.084c-.334.12-.675.232-1.022.334l-.039.011c-.344.102-.692.193-1.047.284l-.246.06c-.348.085-.703.162-1.054.235l-.211.039c-.316.063-.633.119-.949.172l-.21.035c-.355.06-.71.109-1.065.155l-.271.035-1.054.112-.095.007c-.341.035-.688.063-1.029.084l-.281.021-1.022.053-.235.01-.875.021-.232.004-.977.007-.277-.004-.903-.011h-.06l-.196-.007c.203-1.626.394-3.281.576-4.943l4.448-1.17-4.343.235c.368-3.436.691-6.946.962-10.53l6.438-.822-6.363-.14c.246-3.373.45-6.81.601-10.302l4.202-1.131h-4.156c.063-1.722.123-3.454.165-5.197l4.452-1.029-4.424-.155c.028-1.539.049-3.092.06-4.652l2.748-.728-2.744-.123c.018-2.955-.015-5.945-.085-8.97l4.905.337-4.93-1.479c-.07-2.73-.179-5.488-.319-8.278l3.64-1.304-3.689.394c-.098-1.718-.2-3.443-.323-5.179l3.317-3.053-3.415 1.781c-.193-2.621-.422-5.267-.689-7.923l3.644-.541-3.773-.812c-.183-1.792-.394-3.602-.607-5.411l3.229-.924h-3.348c-.035-.309-.07-.615-.113-.92-.231-1.852-.467-3.654-.706-5.439l4.399-1.015-4.519.179c-.151-1.146-.312-2.287-.468-3.408h2.682l-2.766-.552-.147-1.064c2.962-.949 6.616-2.354 10.049-4.314l1.416 1.223-.928-1.507c1.135-.667 2.238-1.398 3.281-2.196l2.801 4.399-2.224-4.855c1.113-.899 2.136-1.88 3.024-2.941l3.384.903-2.751-1.69c1.233-1.641 2.15-3.471 2.61-5.499l3.686 1.732-3.549-2.428c.219-1.265.257-2.607.092-4.026-.141-1.142-.312-2.207-.52-3.208l3.741-.72-3.952-.26c-.847-3.594-2.091-6.212-3.437-7.979l2.273-2.467-2.618 2.038c-.755-.91-1.528-1.563-2.266-1.982l-.018-.007-.373-.186.349-.067-.562-.218c-.471-.183-.928-.271-1.356-.274l-.513-2.2.024 2.242c-.436.067-.829.235-1.156.517-.847.706-1.155 2.006-.878 3.573l-1.493-1.248 1.605 2.182.06-.032c.98 4.88 2.484 12.821-1.437 18.956l.137.112c-1.792 2.808-4.732 5.222-9.347 6.778-.183-1.167-.361-2.326-.551-3.461l2.927-1.718-3.064.871c-.256-1.581-.52-3.134-.779-4.655l4.3-.83-4.497-.295c-.352-1.999-.713-3.932-1.071-5.818l3.264-1.49-3.496.306c-.291-1.528-.597-3.015-.906-4.469l3.714-.675-3.886-.158c-.562-2.639-1.135-5.165-1.719-7.571l3.067-3.334-3.264 2.537c-.791-3.204-1.605-6.219-2.435-9.016l4.082-.664h-4.279c-.629-2.083-1.265-4.044-1.918-5.906l3.896-2.165-4.199 1.314c-1.275-3.573-2.6-6.739-3.967-9.521l8.397-3.313-8.991 2.077.014.095c-1.124-2.192-2.283-4.128-3.471-5.833l4.609-3.025-5.183 2.242c-2.287-3.11-4.69-5.373-7.199-6.912l.857-2.705-1.212 2.487c-1.774-1.033-3.612-1.697-5.499-2.055l-.432-3.893-.407 3.752c-2.667-.365-5.439-.12-8.331.629l-2.329-3.689 1.229 3.998-.271.088-.095-.263-.728.235.092-.084c-1.385.464-2.797 1.04-4.228 1.701-1.967.889-4.044 1.985-6.261 3.303l-2.979-4.16 2.357 4.529c-3.345 2.042-6.032 4.48-8.088 7.319l-5.717-4.908 4.954 6.019c-3.288 5.133-4.659 11.51-4.128 19.272.112 1.683.323 3.404.594 5.151l-1.536.667 1.578-.404c.899 5.653 2.526 11.553 4.455 17.508l-2.568 1.244 2.765-.65c1.371 4.202 2.885 8.422 4.382 12.596 1.799 5.031 3.496 9.806 4.933 14.43l-2.006 1.398 2.15-.935c.102.316.211.646.302.962 1.378 4.6 2.829 10.457 4.263 17.182l-1.02.731 1.114-.299c.323 1.525.643 3.085.97 4.694l-3.401.903 3.5-.387c1.223 6.128 2.41 12.821 3.53 19.834l-.755.292.78-.141c.123.762.245 1.521.365 2.291l.341-.021c.011-.337.018-.685.018-1.04.383 2.456.755 4.933 1.117 7.432l-2.27.302 2.357.285c.432 3.011.854 6.04 1.247 9.079-6.588-.01-19.672-2.15-31.004-16.936-.594-.773-1.155-1.553-1.7-2.333l.105-.01-.119-.014c-.864-1.248-1.666-2.495-2.4-3.742l1.198-.646-1.363.354c-.316-.538-.625-1.075-.917-1.613l1.525-1.883-1.817 1.321c-1.391-2.621-2.525-5.221-3.439-7.751l.127-.376-.176.239c-.222-.611-.433-1.216-.629-1.82l.797.243-.854-.415c-.334-1.04-.64-2.07-.91-3.078l.812-.966-.885.682c-.271-1.022-.51-2.034-.721-3.015l.433.211-.468-.397c-.352-1.69-.622-3.313-.822-4.842l.784.667-.848-1.184c-.168-1.363-.284-2.646-.357-3.84l1.725-.372-1.757-.169c-.042-.787-.066-1.535-.073-2.234l.702-.035-.706-.172c-.042-3.145.172-5.306.271-6.061l2.607-.172-2.565-.246c.007-.285.021-1.142-.091-2.336l2.017-.878-2.062.429c-.134-1.205-.387-2.691-.864-4.234l3.485-1.005-3.658.481c-.302-.882-.682-1.771-1.155-2.639l1.806-.952-1.979.643c-.72-1.261-1.654-2.456-2.846-3.464l.31-.724-.404.654-.337-.267.08-.014c-.537-.45-1.142-.851-1.788-1.219h.411l-.607-.323-.197-.102-.007-.457-.092.415c-.843-.425-1.753-.766-2.701-1.005-2.555-.636-4.674-.277-6.311 1.061-.404.334-.776.731-1.117 1.17l-.935-1.609.748 1.855c-.748 1.037-1.335 2.33-1.792 3.809l-1.627-1.701 1.483 2.21c-1.311 4.687-1.416 11.124-1.209 17.589l-1.687.625 1.7-.232c.046 1.258.099 2.509.155 3.749.179 3.661 1.577 8.707 3.861 14.283l-.703.035.773.13c.302.734.614 1.476.944 2.224l-1.493 1.413 1.666-1.043c.137.316.284.629.429.945l-.155.341.183-.274c.475 1.03.974 2.066 1.504 3.113l-.214.133.246-.067c.396.784.801 1.571 1.226 2.365l-1.489 1.434 1.827-.794c.316.58.636 1.156.963 1.732l-3.005 1.297 3.247-.854c.365.64.741 1.279 1.121 1.915l-1.202.755 1.578-.46c4.058 6.757 8.917 13.285 14.012 18.299 4.107 4.097 8.384 7.241 12.54 8.738 12.272 4.413 22.792 2.909 27.873 1.662.099.836.189 1.666.284 2.498l-1.408-.354 1.447.678c.436 3.911.829 7.786 1.17 11.584l-2.931 2.319 2.983-1.735c.913 10.214 1.454 19.869 1.486 28.115.014 4.582-.145 8.725-.478 12.273l-.099 1.004-.776-.062.759.312c-1.139 12.101-1.648 20.639-1.648 26.907-.014 5.744.397 9.63 1.156 12.635l.039-.015.062.422c.215.808.457 1.55.725 2.249.172.372.386.759.639 1.145.602 1.136 1.528 2.024 2.639 2.72l.088-.144c.475.277.998.537 1.596.741 5.302 1.827 9.845.063 11.679-1.392.618-.492 1.269-1.542 1.855-2.716.165-.372.825-1.862 1.823-4.374l.235-.672.011.057c2.896-7.368 8.264-22.417 12.877-43.038l2.115 2.446-1.848-3.647c.611-2.79 1.212-5.685 1.788-8.672l3.236-.196-3.05-.773c.334-1.771.66-3.576.983-5.41l.299.031-.284-.119c.221-1.29.442-2.604.653-3.922l3.411-2.23-3.285 1.437c.12-.741.232-1.486.348-2.241 5.994.818 20.559 1.557 31.809-8.089 6.269-5.372 10.601-14.735 13.169-24.538l.686.52-.626-.749c.636-2.435 1.152-4.891 1.57-7.319l2.143-1.266z"/><polygon points="286.769,176.73 289.214,174.538 286.424,176.309"/><polygon points="287.679,179.446 289.836,179.264 287.439,178.934"/><polygon points="287.717,182.075 289.927,181.316 287.696,181.291"/><polygon points="288.29,189.264 290.658,188.431 287.815,188.659"/><polygon points="289.291,191.509 290.746,190.332 288.858,191.189"/><polygon points="290.092,195.605 292.063,195.31 289.649,195.191"/><polygon points="290.841,197.408 293.194,196.484 290.861,196.926"/><polygon points="291.659,200.352 293.546,199.499 291.107,199.857"/><polygon points="291.972,203.082 294.445,202.33 291.74,202.158"/></g></svg>