<svg xmlns="http://www.w3.org/2000/svg" width="512" height="512"><path fill-rule="evenodd" clip-rule="evenodd" fill="#fff" d="M419.253 331.026l11.747-32.134c-1.408-2.28-2.844-4.555-4.252-6.821-1.29 1.076-2.783 1.825-4.594 1.519-17.285-2.88-34.606-5.753-51.921-8.64-2.01-.335-3.649-1.71-4.309-3.606-1.664-4.697-3.332-9.388-4.969-14.085-3.157-4.419-6.29-8.846-9.419-13.265-.517-.392-1.408-.849-1.896-1.119-2.353-1.383-4.765-3.151-4.765-6.18v-2.452c-2.93-5.21-5.888-10.414-8.817-15.625l-.688-1.19.285-1.333 1.493-7.142c-.63-2.367-1.29-4.719-1.952-7.092-3.618-2.338-7.264-4.676-10.91-7.021l-1.122-.713-.375-1.269c-.545-1.746-1.09-3.485-1.606-5.239-2.556-2.253-5.083-4.505-7.609-6.779l-.488-.428-.317-.563c-1.636-3.072-3.271-6.159-4.911-9.231-1.376.071-2.783.042-3.703.028l-5.542-.057s-3.561-.934-4.598-2.487c-1.433-2.124-2.841-4.263-4.276-6.401l-12.032-3.692c-1.493-.114-3.275-.071-4.769-.085-3.13-.029-6.287-.043-9.42-.071-3.332-.029-6.661-.057-9.994-.128-1.465-.029-4.997.028-6.319-.549-6.604-2.88-13.208-5.752-19.845-8.639-1.778-.777-3.043-2.431-3.271-4.384-.403-3.243-.834-6.501-1.233-9.758-3.133-.506-6.893-1.212-8.329-3.521-1.18-1.881-2.327-3.749-3.503-5.631-5.172-1.996-10.339-4.006-15.511-6.016l-.399-.143-.346-.257c-6.519-4.512-13.037-9.031-19.527-13.557-7.064-2.096-14.128-4.206-21.167-6.301-1.721 2.48-3.902 5.453-6.347 5.916-7.378 1.404-14.787 2.802-22.197 4.191 3.821 4.177 7.638 8.354 11.458 12.538 1.005 1.119 1.579 2.509 1.465 4.049-.289 3.187-3.332 4.911-5.831 6.287-.545.299-1.811.948-2.47 1.425-.228.713-.46 1.775-.631 2.424-.749 2.702-1.981 5.574-5.054 6.187-3.621.72-7.239 1.454-10.856 2.167-3.044 4.049-6.059 8.097-9.103 12.139-1.119 1.49-2.93 2.353-4.797 2.182-3.271-.292-6.533-.549-9.794-.834-2.224-.186-4.448-.385-6.675-.635-.745 4.498-1.493 8.989-2.242 13.486 1.597.157 3.19.313 4.783.485l1.782.171.934 1.525c10.35 16.644 20.689 33.281 31.028 49.925l.228.363.114.399c2.071 6.215 4.138 12.431 6.205 18.654 1.208.128 2.384.271 3.56.414l1.062.114.834.677c3.475 2.873 6.979 5.731 10.482 8.604l.66.541.346.806 11.344 25.847.371.862-.086.934c-.285 2.815-.545 5.624-.802 8.439 1.55 6.765 3.129 13.544 4.68 20.308 5.342 3.443 10.656 6.894 15.967 10.336l.289.199.289.257c3.443 3.394 6.889 6.793 10.336 10.187l.72.684.257.948c1.147 4.27 2.299 8.532 3.446 12.795l8.04 12.752c3.19 2.324 6.376 4.654 9.562 6.964l.948.691.346 1.105c1.782 5.268 3.532 10.521 5.285 15.795l10.136-8.96.834-.221c5.742-1.489 11.487-2.986 17.2-4.477l1.091-.271 1.065.371c10.425 3.777 20.878 7.556 31.303 11.326l2.409.862v12.132l37.337-41.264 1.091-.271c17.891-4.326 36.011-7.727 53.674-12.979 16.653-4.97 32.766-11.606 49.103-17.494z"/></svg>