<svg xmlns="http://www.w3.org/2000/svg" width="512" height="512"><g fill="#fff"><path d="M207.338 281.17c.03-3.832.168-7.618.452-11.36 3.428-44.484 26.753-87.429 60.361-112.517l1.098 5.46c-15.578 12.787-51.443 49.555-48.62 113.63 4.784-1.375 9.684-2.428 14.695-3.122-1.658-49.675 22.243-79.894 37.256-93.786l.881 4.369c-13.398 19.434-25.429 48.659-21.519 88.438 5.124.104 10.174.567 15.111 1.382-3.592-29.144 2.174-51.834 10.644-68.639l2.502 12.473c19.038-5.079 32.496-21.256 34.85-40.048 28.553-2.808 77.525-10.232 107.214-14.542v-50.243l-111.554 38.308c-8.761-18.231-28.448-29.315-49.13-26.529l3.347 16.738c-40.05 26.925-68.188 76.316-72.117 127.462-.519 6.737-.627 13.563-.381 20.502 4.741-3.032 9.723-5.706 14.91-7.976zM360.659 313.831c-10.583 0-20.994 2.031-30.487 5.915-18.53-16.648-45.94-26.439-74.679-26.439-25.282 0-48.891 7.185-67.107 20.322-10.105-3.98-21.252-6.072-32.553-6.072-40.455 0-73.321 25.962-74.833 59.108l17.279.792c1.064-23.497 26.888-42.603 57.554-42.603 10.625 0 21.032 2.263 30.077 6.535l4.925 2.338 4.231-3.436c15.404-12.518 37.437-19.695 60.426-19.695 26.527 0 51.443 9.516 66.665 25.438l4.451 4.661 5.735-2.936c8.492-4.339 18.291-6.64 28.314-6.64 26.268 0 49.212 16.162 53.364 37.583l16.979-3.284c-5.803-29.898-35.379-51.587-70.341-51.587zM227.59 331.793c-12.749 0-12.749 19.77 0 19.77 12.742-.001 12.742-19.77 0-19.77zM384.888 379.563c-12.749 0-12.749 19.77 0 19.77 12.742 0 12.742-19.77 0-19.77zM128.763 373.798c-15.935 0-15.935 24.706 0 24.706 15.927 0 15.927-24.706 0-24.706zM140.291 356.918c-7.969 0-7.969 12.346 0 12.346s7.969-12.346 0-12.346zM368.412 371.744c-7.97 0-7.97 12.353 0 12.353 7.969 0 7.969-12.353 0-12.353zM227.59 358.15c-7.969 0-7.969 12.361 0 12.361 7.966.001 7.966-12.361 0-12.361zM247.349 321.091c-6.371 0-6.371 9.881 0 9.881 6.374 0 6.374-9.881 0-9.881zM304.173 361.444c-9.553 0-9.553 14.825 0 14.825 9.56.001 9.56-14.825 0-14.825z"/></g></svg>