<?xml version="1.0" encoding="utf-8"?>
<!-- Generator: Adobe Illustrator 16.0.0, SVG Export Plug-In . SVG Version: 6.00 Build 0)  -->
<!DOCTYPE svg PUBLIC "-//W3C//DTD SVG 1.1//EN" "http://www.w3.org/Graphics/SVG/1.1/DTD/svg11.dtd">
<svg version="1.1" id="Layer_1" xmlns="http://www.w3.org/2000/svg" xmlns:xlink="http://www.w3.org/1999/xlink" x="0px" y="0px"
	 width="512px" height="512px" viewBox="0 0 512 512" enable-background="new 0 0 512 512" xml:space="preserve">
<g>
	<path fill="#FFFFFF" d="M173.645,430.386v-66.085h-23.606V350.84h63.213v13.461h-23.549v66.085H173.645z"/>
	<path fill="#FFFFFF" d="M224.049,430.386v-78.895h16.062v65.491h39.936v13.403H224.049z"/>
	<path fill="#FFFFFF" d="M342.393,401.14l15.574,4.94c-2.389,8.676-6.365,15.126-11.91,19.341c-5.557,4.214-12.605,6.32-21.139,6.32
		c-10.562,0-19.244-3.61-26.045-10.82c-6.803-7.22-10.199-17.086-10.199-29.604c0-13.236,3.416-23.52,10.256-30.846
		c6.834-7.324,15.824-10.986,26.969-10.986c9.727,0,17.631,2.878,23.705,8.628c3.621,3.401,6.336,8.281,8.145,14.65l-15.902,3.8
		c-0.936-4.129-2.9-7.382-5.883-9.77c-2.986-2.388-6.611-3.582-10.883-3.582c-5.896,0-10.682,2.117-14.35,6.351
		c-3.672,4.233-5.508,11.087-5.508,20.566c0,10.056,1.807,17.218,5.426,21.483c3.615,4.269,8.32,6.404,14.109,6.404
		c4.266,0,7.938-1.356,11.016-4.067C338.846,411.231,341.053,406.965,342.393,401.14z"/>
</g>
<rect x="27.495" y="321.936" fill-rule="evenodd" clip-rule="evenodd" fill="#FFFFFF" width="453.011" height="16.471"/>
<g>
	<g>
		<path fill="#FFFFFF" d="M379.721,173.04l3.973-19.99H184.48l-4.185-21.104h207.598l3.977-19.996H176.313l-4.195-21.1h245.46
			l-1.855,9.304l-16.984,85.496c-0.98,4.943-5.314,8.495-10.352,8.495H192.647l-4.196-21.104H379.721z"/>
		<path fill="#FFFFFF" d="M100.977,71.206h58.58c5.037,0,9.37,3.553,10.351,8.504l27.819,139.977h193.41
			c5.832,0,10.555,4.713,10.555,10.545c0,5.841-4.723,10.554-10.555,10.554H189.065c-5.042,0-9.375-3.553-10.354-8.495
			l-27.82-139.977h-49.914c-5.817,0-10.554-4.728-10.554-10.544C90.422,75.938,95.16,71.206,100.977,71.206z"/>
	</g>
	<path fill="#FFFFFF" d="M198.079,274.161c0,12.059,9.784,21.843,21.846,21.843c12.067,0,21.851-9.784,21.851-21.843
		c0-12.071-9.784-21.855-21.851-21.855C207.863,252.306,198.079,262.09,198.079,274.161z"/>
	<path fill="#FFFFFF" d="M339.307,274.161c0,12.059,9.789,21.843,21.852,21.843c12.066,0,21.85-9.784,21.85-21.843
		c0-12.071-9.783-21.855-21.85-21.855C349.096,252.306,339.307,262.09,339.307,274.161z"/>
</g>
<g>
</g>
<g>
</g>
<g>
</g>
<g>
</g>
<g>
</g>
<g>
</g>
<g>
</g>
<g>
</g>
<g>
</g>
<g>
</g>
<g>
</g>
<g>
</g>
<g>
</g>
<g>
</g>
<g>
</g>
</svg>
