<?xml version="1.0" encoding="utf-8"?>
<!-- Generator: Adobe Illustrator 18.0.0, SVG Export Plug-In . SVG Version: 6.00 Build 0)  -->
<!DOCTYPE svg PUBLIC "-//W3C//DTD SVG 1.1//EN" "http://www.w3.org/Graphics/SVG/1.1/DTD/svg11.dtd">
<svg version="1.1" id="Capa_1" xmlns="http://www.w3.org/2000/svg" xmlns:xlink="http://www.w3.org/1999/xlink" x="0px" y="0px"
	 viewBox="0 0 512 512" enable-background="new 0 0 512 512" xml:space="preserve">
<g>
	<path fill="#FFFFFF" d="M256,51.6C143.1,51.6,51.6,143.1,51.6,256c0,112.9,91.5,204.4,204.4,204.4c112.9,0,204.4-91.5,204.4-204.4
		C460.4,143.1,368.9,51.6,256,51.6z M247.9,443.4c-13.4-2.8-26.7-12.5-38.6-27.9c14.8-3.1,28-10.2,38.6-20.1V443.4z M156.8,381.4
		l-2.7-1.5l6.7-26.1l4.6,2.5c4.3,2.3,13,6.3,23.6,6.3c5.4,0,10.9-1.7,10.9-5.5c0-2.6-1.7-5.5-13.7-9.6c-14.2-4.8-30.4-12.7-30.4-32
		c0-14.9,9.9-26.3,26-30.5v-15.5h23.1v13.9c9.6,0.8,16.1,3.2,20.2,5.1l3,1.5l-5.5,20.6l-1.4,4.7l-4.4-2.1
		c-3.8-1.9-10.2-4.9-20.2-4.9c-3.4,0-9.2,0.6-9.2,4.7c0,3.1,8.4,6.6,15.7,9.3c19.9,7,28.4,16.7,28.4,32.7
		c0,15.6-10.4,27.4-27.4,31.5v16.7h-23.1V388C172.1,387.2,163,384.8,156.8,381.4z M160.9,223.6c4.7-4.8,7.8-11.3,8.2-18.6l78.5-36.5
		c0.2,0.1,0.3,0.2,0.5,0.4l-35.9,89c-6.2-1.5-12.7-2.4-19.4-2.4c-7.2,0-14.2,1-20.9,2.8L160.9,223.6z M225.2,262.3l35.6-88.3
		c1.4,0.2,2.7,0.3,4.2,0.3c4.5,0,8.7-1.1,12.5-2.9l64.1,46.8c-0.2,1.3-0.3,2.6-0.3,4c0,3.4,0.6,6.7,1.7,9.7l-85.3,56.2
		C249.3,277,238.1,268,225.2,262.3z M350.5,243.5c0.4,0.3,0.7,0.7,1.1,1l-13.4,63.6c-8,2.3-14.6,8-18.1,15.5l-47.2,2.5
		c-1.2-9.3-4-18.2-8-26.2L350.5,243.5z M304.7,437.8c14.4-14.3,27-34.7,36.6-59.5c-5.5-0.6-10.7-2.3-15.4-4.9
		c-2.7,6.9-5.7,13.5-8.9,19.7c-14.9,28.5-33.8,46.3-52.9,50.3v-68.9c5.6-10.4,8.9-22.2,9.4-34.7l43.9-2.3
		c0.8,15.3,13.4,27.5,28.9,27.5c16,0,29-13,29-29c0-14-9.9-25.6-23-28.4l12-56.9c1.9,0.4,3.9,0.6,6,0.6c16,0,29-13,29-29
		c0-16-13-29-29-29c-9.6,0-18.1,4.7-23.4,11.9l-58.5-42.8c3.5-4.8,5.6-10.7,5.6-17.1c0-16-13-29-29-29c-16,0-29,13-29,29
		c0,4.4,1,8.5,2.7,12.2l-72.2,33.6c-4.6-9.9-14.6-16.8-26.3-16.8c-16,0-29,13-29,29c0,16,13,29,29,29c3,0,6-0.5,8.7-1.3l10.1,31.9
		c-27.8,12.8-47.1,40.8-47.1,73.4c0,43.9,35.1,79.6,78.7,80.8c5.2,7.8,10.8,14.8,16.7,20.7C129.2,416.9,71.1,346.9,68,263h76.7
		l-5.1-16.2H68C72,163.9,129.9,95,207.3,74.2c-20.3,20.1-36.8,52.3-46.9,91.6c3.9,2.1,7.5,4.9,10.6,8.1l4.6-2.1
		c4.8-19.4,11.4-37.3,19.5-52.8c14.8-28.5,33.8-46.3,52.9-50.3v37.6c5-2.2,10.4-3.4,16.2-3.5V68.6c19.1,4,38,21.8,52.9,50.3
		c9.6,18.4,16.9,39.9,21.9,63.5l6.8,5c2.9-2.1,6.2-3.8,9.6-5.1c-9.4-46.8-27.5-85.3-50.6-108.1C382.1,95,440,163.9,444,246.9h-38.9
		c-5.3,7.6-13,13.3-22.1,16.2h61C440.9,346.9,382.8,416.9,304.7,437.8z"/>
</g>
</svg>
