<?xml version="1.0" encoding="utf-8"?>
<!-- Generator: Adobe Illustrator 18.0.0, SVG Export Plug-In . SVG Version: 6.00 Build 0)  -->
<!DOCTYPE svg PUBLIC "-//W3C//DTD SVG 1.1//EN" "http://www.w3.org/Graphics/SVG/1.1/DTD/svg11.dtd">
<svg version="1.1" id="Capa_1" xmlns="http://www.w3.org/2000/svg" xmlns:xlink="http://www.w3.org/1999/xlink" x="0px" y="0px"
	 viewBox="0 0 512 512" enable-background="new 0 0 512 512" xml:space="preserve">
<g>
	<path fill="#FFFFFF" d="M342.3,172.4c0.1,0.1,0.2,0.2,0.3,0.3c-1.2-1.1-2.4-2.1-3.7-3c0,0,0,0,0.1,0.1
		C340.2,170.5,341.3,171.4,342.3,172.4z"/>
	<path fill="#FFFFFF" d="M346.4,189.1c0.7,0.6,1.5,1.2,2.2,1.8c1.8,1.4,3.6,2.8,5.4,4.7l0.1,0.1l0-0.1c-1.1-7.8-4.3-15.1-9-20.5
		c-0.7-0.8-1.6-1.5-2.3-2.3c-0.1-0.1-0.3-0.3-0.5-0.4c-1.1-1-2.2-1.9-3.3-2.7c-0.1-0.1-0.3-0.2-0.4-0.3c-3.9-2.7-8.4-4.4-13.2-5
		l-0.1,0l0.1,0.1c3.3,3.4,6.2,7.2,9,10.9C337.9,180.2,341.6,185.1,346.4,189.1z"/>
	<path fill="#FFFFFF" d="M344.1,174c-0.5-0.5-1-0.9-1.5-1.4c0.1,0,0.1,0.1,0.1,0.1C343.2,173.2,343.7,173.5,344.1,174z"/>
	<path fill="#FFFFFF" d="M336.6,168.1c0.7,0.4,1.3,0.9,2,1.3c0,0,0.1,0,0.1,0.1C338,169,337.4,168.5,336.6,168.1z"/>
	<path fill="#FFFFFF" d="M338.7,169.4c0.1,0,0.1,0.1,0.2,0.1C338.9,169.5,338.8,169.5,338.7,169.4z"/>
	<path fill="#FFFFFF" d="M365.1,220.5l0.1,0.1L365.1,220.5c0.1-1.8,0.2-3.5,0.3-5.4c0.4-7.9,0.8-16.9-1.4-24.3
		c-2.6-8.5-8.2-13.9-17.3-16.3l-0.4-0.1l0.3,0.2c7.7,4.1,9.2,12.1,10.6,19.8c0.7,3.6,1.3,7.1,2.6,10l-0.3,0.1
		c-1.8-4.4-6.1-7.1-10.6-10c-4.8-3-9.7-6.2-11.9-11.5l-0.1-0.2l0,0.2c0.1,5.3,1.6,9.7,4.7,13.8c2.8,3.7,6.4,6.6,10.2,9.7
		C356.8,210.5,361.9,214.6,365.1,220.5z"/>
	<path fill="#FFFFFF" d="M151.8,249.5l0,0.3L151.8,249.5c1.4-8,5.8-14.1,10.4-20.6c4.9-6.9,9.9-14,11.2-23.5l0-0.3l-0.1,0.3
		c-1.4,3.1-4.1,5.4-7.4,8c-5.2,4.2-11,8.9-13.2,18.9c0,0-0.1,0-0.1,0c-0.1,0-0.2-0.1-0.2-0.2c0,0,0-0.1-0.1-0.1
		c1-8,0.3-14.6-0.3-20.4c-0.8-7.8-1.4-14,2.1-20.4l0.1-0.3l-0.2,0.2c-17.4,16.8-9.6,37.6-4.9,50
		C150.6,244.8,151.7,247.6,151.8,249.5z"/>
	<path fill="#FFFFFF" d="M368.8,249.5l0.1,0.3L368.8,249.5c0.3-1.9,1.3-4.7,2.7-8.3c4.7-12.4,12.5-33.3-4.9-50l-0.2-0.2l0.1,0.3
		c3.5,6.4,2.9,12.5,2.1,20.4c-0.6,5.8-1.2,12.4-0.3,20.4c0,0,0,0.1-0.1,0.1c-0.1,0.1-0.1,0.2-0.2,0.2c0,0-0.1,0-0.1,0
		c-2.2-9.9-8-14.7-13.2-18.9c-3.2-2.6-6-4.9-7.4-8l-0.1-0.3l0,0.3c1.3,9.6,6.3,16.7,11.2,23.5C363.1,235.4,367.4,241.5,368.8,249.5z
		"/>
	<path fill="#FFFFFF" d="M157.7,280.7l0.1,0.1L157.7,280.7c-0.7-9.9,1.4-16.5,3.4-22.9c0.5-1.5,1-3.1,1.4-4.7
		c0.2-0.9,0.5-1.8,0.7-2.6c3-10.5,5.4-18.8,2.4-22.7l-0.1-0.1l0,0.1c-0.9,3.2-1.8,5.8-3.2,8.2c-3.2,4.6-5.7,8.4-7.3,12.8
		c-1.7,4.5-2.2,9.2-1.8,15.2c0,0.1-0.1,0.2-0.3,0.2c0,0,0,0-0.1,0c-1.2-6.9-3.8-13.2-6.3-19.4c-3.3-8.1-6.5-15.8-5.1-22.6l0.1-0.4
		l-0.2,0.3c-4.6,9.7-5,20.4-0.9,33C141.1,259,147.3,268.1,157.7,280.7z"/>
	<path fill="#FFFFFF" d="M374.2,244.8c-2.5,6.1-5.2,12.5-6.3,19.4c-0.2,0-0.3-0.1-0.3-0.2c0.4-6-0.1-10.7-1.8-15.2
		c-1.6-4.3-4.2-8.2-7.3-12.7c-1.5-2.4-2.4-5-3.3-8.2l0-0.1l-0.1,0.1c-2.9,4-0.6,12.2,2.4,22.7c0.2,0.9,0.5,1.7,0.7,2.6
		c0.4,1.6,0.9,3.1,1.4,4.7c2,6.4,4.1,12.9,3.3,22.9l0,0.1l0.1-0.1c10.4-12.6,16.5-21.7,17.3-25.6c4-12.5,3.7-23.3-0.9-33l-0.2-0.3
		l0.1,0.4C380.7,229,377.5,236.7,374.2,244.8z"/>
	<path fill="#FFFFFF" d="M175.9,309.2l0.1,0.1L175.9,309.2c-5-10.8-5.5-19.7-6-28.3c-0.5-8.2-1-15.9-5.1-25l-0.1-0.2l0,0.2
		c0.1,4.3-0.8,8.3-1.8,12.6c-1.7,7.7-3.5,15.7,1,25.2c0,0.1-0.1,0.2-0.2,0.2c-2.8-4.8-7.1-9.3-11.2-13.7
		c-6.5-6.9-13.2-13.9-14.1-22.1l0-0.3l-0.1,0.3c-1.8,10.9,0.9,20.5,8.3,29.4C152.7,295,162,301.9,175.9,309.2z"/>
	<path fill="#FFFFFF" d="M382.4,257.9l0,0.3c-0.9,8.2-7.6,15.2-14.1,22.1c-4.1,4.4-8.4,8.9-11.2,13.7c0,0,0,0-0.1,0
		c-0.1,0-0.1-0.1-0.2-0.2c4.6-9.5,2.8-17.5,1-25.2c-1-4.3-1.9-8.3-1.8-12.6l0-0.2l-0.1,0.2c-4.1,9-4.6,16.8-5.1,25
		c-0.5,8.6-1.1,17.5-6.1,28.2l-0.1,0.1l0.1-0.1c13.9-7.3,23.2-14.2,29.4-21.7c7.3-8.9,10-18.5,8.3-29.4L382.4,257.9z"/>
	<path fill="#FFFFFF" d="M189.3,326.6c4.1,0.8,7.7,1.4,10.2,2.4l0.3,0.1l-0.2-0.2c-6.9-5.8-9.3-13.3-11.6-20.6
		c-0.5-1.6-1.1-3.3-1.6-5c-2.9-8.2-6.6-16.8-13.6-23.5l-0.1-0.1l0,0.1c1.9,11.4,3.1,18.8,4.9,24.8c1.8,5.8,4,10.1,7.6,14.5
		c-5.2-4.8-10.4-7.2-16-9.7c-3-1.3-6-2.7-9-4.5c-7.2-4.2-12.2-9.1-14.2-13.8l-0.2-0.4l0.1,0.4c2.4,12.7,10.8,23.7,22.6,29.5
		C175.2,324.1,183,325.5,189.3,326.6z"/>
	<path fill="#FFFFFF" d="M197.4,341.1c8.5,0,16-2.2,22.7-4.1c4.2-1.2,8.1-2.3,11.7-2.8l0.3,0l-0.3-0.1
		c-13.9-2.3-21.9-10.6-28.9-17.9c-4.5-4.7-8.7-9.1-13.8-11l-0.1,0l0.1,0.1c0.9,1.7,1.8,3.5,2.6,5.3c2,4.2,4.1,8.6,7,12.4
		c3.1,4.2,6.9,7.2,11.4,9.4c-3.6-0.8-8-1-12.7-1.2c-11.5-0.5-24.6-1.1-33.6-10.5l-0.2-0.2l0.1,0.3c4.8,9.8,11.7,15.8,21.5,18.9
		C189.3,340.6,193.3,341.1,197.4,341.1z"/>
	<polygon fill="#FFFFFF" points="299.2,178.6 299.5,178.9 299.8,179.3 300.2,179.5 300.5,179.7 300.5,180.3 300.9,180.4 
		301.3,180.4 301.6,180.6 301.9,180.9 302.2,181.2 302.6,181.3 303.1,181.4 303.5,181.3 303.7,181 304,180.6 303.9,180.2 
		304.1,179.7 303.9,179.5 303.6,179.2 303.7,178.8 303.9,178.4 303.8,178.2 303.5,177.9 303.3,177.9 303,177.5 302.8,177.3 
		302.7,176.9 302.3,177 301.3,177 300.9,176.9 300.5,176.9 300.1,176.9 299.6,177 299.2,176.9 299.1,177.7 299.2,178.1 	"/>
	<path fill="#FFFFFF" d="M264.9,170.5l0.9,0.5l1.2,0.5h1.1l0.9,0h1.2l0.7-0.5h1.1l1.5,0.1l1.2-0.2l0.8,0.2l0.9-0.1l0.9-0.3l0.7-0.6
		l1-0.6l0.1-0.9l-0.5-0.7l-0.7-0.7l-0.5-0.3c0,0-0.6-0.4-0.8-0.5c-0.2-0.1-0.8-0.4-0.8-0.4l-0.7,0l-1.2,0.2l-1,0.2l-1.9,0l-0.5,0.5
		l-0.6,0.5l-1.3,0.3l-1.1,0.4l-1.3,0.2l-0.8,0.1h-0.8l-0.9,1.1l0.6,0.5L264.9,170.5z"/>
	<path fill="#FFFFFF" d="M256,73.5C155.4,73.5,73.5,155.4,73.5,256c0,100.6,81.9,182.5,182.5,182.5c100.6,0,182.5-81.9,182.5-182.5
		C438.5,155.4,356.6,73.5,256,73.5z M351.3,375.8c-26.2,20.9-59.3,33.5-95.3,33.5c-84.5,0-153.3-68.8-153.3-153.3
		c0-34.3,11.4-66.1,30.5-91.7c2.4-3.2,6.8-3.5,9.7-0.6l18.8,18.2c-2.2,2.5-3.9,5.3-5,8.9c-2.2,7.5-1.8,16.4-1.4,24.3
		c0.1,1.9,0.2,3.6,0.2,5.4l0,0.2l0.1-0.1c3.2-5.8,8.3-10,13.2-13.9c3.5-2.8,6.7-5.5,9.3-8.7l5.4,5.2c-5.9,11.6-9.4,24.7-9.4,38.5
		c0,46.8,38,84.8,84.8,84.8c14.8,0,28.8-3.9,40.9-10.6l9.1,8.8c-5.2,4.3-11.5,8.1-20.1,9.5l-0.3,0.1l0.3,0c3.6,0.5,7.6,1.6,11.7,2.8
		c6.7,1.9,14.2,4.1,22.7,4.1h0c0.9,0,1.7-0.1,2.5-0.2l3.7,3.6c-3.2,1-6.4,1.5-9.7,1.5c-6.2,0-12.6-1.6-21-5.3
		c-9.1-5-17.5-7.4-25.6-7.4c-4.3,0-8.6,0.7-12.8,2.1c-4.3-1.4-8.5-2.1-12.8-2.1c-10,0-18.6,3.9-26.9,7.6c-1.1,0.5-2.2,1-3.3,1.5
		c-4.9,2-11.2,3.1-17.2,3.1c-4.7,0-11.2-0.7-16-4l-0.2-0.1l0.1,0.2c3.3,4.6,8.3,8.2,15.5,11c2.8,1.1,6,1.7,9.5,1.7
		c4,0,8.3-0.8,12.6-2.3c3.9-1.4,7.7-3.3,11-5.6c1.3-0.9,2.6-1.8,3.8-2.8c4.4-3.3,8.5-6.4,14.2-6.4c1.2,0,2.5,0.2,3.8,0.4
		c-11,5.2-19,10.8-26.6,18.6l0,0l5.6,4.9l0,0l0,0c5.6-7.1,18.9-18.3,27-21.6c9,4.5,17.8,11.5,26.9,21.6l0,0l0,0
		c1.8-1.5,3.9-3.2,5.3-4.8l0,0l0,0c-8.7-8.5-16.8-14.3-26.3-18.8c0.7-0.2,1.5-0.3,2.3-0.3c5.6,0,12.4,4.5,16.4,7.2
		c0.3,0.2,0.5,0.4,0.8,0.5c7.7,6,16.7,9.2,25.2,9.2c4,0,7.9-0.7,11.6-2.1c3.6-1.3,6.4-3,9.1-5.5l19.9,19.3
		C354.6,368.8,354.5,373.3,351.3,375.8z M314.5,330l1.5,1.5c-2,0.2-3.9,0.4-5.5,0.8C311.9,331.6,313.2,330.8,314.5,330z
		 M248.1,279.9l-0.5,0.3l-0.4,0.4l-0.6,0.5l-0.1,0.7v0.7l0.2,0.5l0.7,0.7l0.4,0.3l0,0.8l0.4,0.4l0.5,0.7l0.5,0.6l0.2,0.5l0.5,0.5
		l0.5,0.1l0.5,0.5l0.9,0.2l1.1,0.5l0.9,0.5l0.7,0.2l0.4,0.5l0.5,0.4l0.7,0.3l0.4,0.7l0.3,0.2c-12.7-0.5-24.2-5.9-32.8-14.2
		l11.9-11.9c4.4,4.3,10,7.3,16.2,8.6l-0.1,0.1v0.7l-0.3,0.5l-0.6,0.4l-0.7,0.2l-0.4,0.5l-0.5,0.3l-0.5,0.3l-0.4,0.5v0.6l-0.5,0.5
		l-0.3,0.6L248.1,279.9z M222.7,270.3l-0.4-0.4l-0.5-1.3l-0.3-0.6l-0.5-0.5l-0.4-0.2l0.2-3.3l-0.4-0.2l0.3-2.7l-0.5-0.3l-0.1-1.1
		l-0.4-0.3l0.1-2.4l-0.6-0.6v-1l-3-3.6L216,249l-0.4-0.3l0.1-0.7l0.5-0.5l0.6-0.4l0.9-0.3l1.3-1.2l0.1-1.6h2.1l0.8-0.6l0.2-1l0-0.1
		h1.8l1.8,1.7l0.1,0.2c0,0.3,0,0.5,0.1,0.8l-0.2,0.2l-0.7,0.8h-1.4l-0.4-0.5l-0.6-0.1l-0.2-0.4l-1.2,0.2l0,1.4l0.3,0.5l0.1,1.6
		l-0.7,0.2l-0.6,0.5l-0.7,0.3l0.2,0.8l0.7,0.7l0.5,0.7l0.6,0.3l0.5-0.1l0.1-0.4l0.4-0.2l0-0.6l0.1-1.6l0.4-0.3l0.2-0.4l0.4,0.1
		l0.1-0.5l1.4,0.1l0,0.4l1.2,0c1.3,6.2,4.4,11.8,8.6,16.2l-11.9,11.9c-0.5-0.5-1-1.1-1.5-1.6l0-0.6l0.7-0.6l0.3-0.9l0.1-0.7v-1
		L222.7,270.3z M214.2,246c0,0,0,0.6-0.2,0.8c-0.2,0.2-0.1,0.7-0.1,0.7l-0.2,0.3l-0.1,0.4l0,0.4l0,0.4l0.2,0.2l0.2,0.4l0,0.4
		c0,0-0.1,0.5-0.1,0.6s0.1,0.6,0.1,0.6l-0.3,0.3l-0.5,0.2l-0.3,0.3l-0.3,0l-0.5-0.2l-0.3-0.4l-0.3-0.3c0,0-0.4-0.2-0.5-0.2
		c-0.1,0-0.3-0.1-0.3-0.1l-0.5-0.4l-0.4-0.3l-0.2-0.4h-0.2c-0.4-2.5-0.6-5-0.7-7.6h8.3l-0.3,0.3l-0.7,0.6l-0.5,0.5l-0.5,0.3
		l-0.6,0.5l-0.6,0.7L214.2,246z M199.4,254.3l-0.3,0.2l-0.1,0.3c0,0,0,0.2,0.1,0.2c0,0.1,0.1,0.2,0.1,0.2l0.1,0.7l0,0.8v1.2l-0.1,1
		l-0.2,0.4l-0.4,0.5l-0.3,0.3l0,0.4l-0.8,0.1l-1.2,0l-0.3-0.4c0,0-0.4-0.2-0.5-0.1c-0.2,0-0.8,0-0.8,0l-0.2,0
		c-1.6-5.7-2.5-11.7-2.6-17.9h15.8c0,2.4,0.2,4.7,0.6,7l-0.2-0.2l-0.9-0.4l-0.4-0.4l-0.9-0.3l-0.4,0.2l-0.7,0.2l-0.5,0.5l-0.5,0.5
		l-0.5,0.3l-0.4,0.6l-0.6,0.4l-0.6,0.4c0,0-0.7,0.4-0.7,0.6c0,0.1-0.5,0.7-0.5,0.7l-0.4,0.4l-0.4,0.4l-0.1,0.5l-0.2,0.3
		c0,0-0.2,0.1-0.2,0.2C199.3,254,199.4,254.3,199.4,254.3z M207.7,241h-15.8c0.1-8.8,1.9-17.2,5.1-24.9l12.5,12.1
		C208.4,232.3,207.7,236.6,207.7,241z M216.6,235.4l0,1.5l0.1,0.9l0.5,0.7l0.1,0.9l0.5,0.5l-0.1,0.9l0,0.2h-8.7
		c0-4.1,0.6-8,1.6-11.8l6,5.9C216.6,235.2,216.6,235.4,216.6,235.4z M220.8,239.2l0.2,0.2L220.8,239.2L220.8,239.2z M222.6,241h-0.9
		l-0.3-0.7l-0.2-0.6L222.6,241z M235.9,263.7c-4-4.2-6.9-9.4-8.2-15.2h0.2l0.6,0l0.7,0.1l0.2,0.3l1.6,0.1l0.1,0.1l0.2,0.3l0.1,0
		l9.6,9.3L235.9,263.7z M254.7,220.1l-0.3-0.4l-0.1-0.4l-0.3-0.2v-0.4l-0.2-0.3l-0.3,0l-0.4,0.2l-0.2,0.3l-0.2,0.3l-0.4,0.4
		l-0.3,0.6l0.1,0.3L252,221l0,0.4l0,0.6l-0.1,0.4l-0.4,0.3l-0.6,0.4l-0.3,0.5l-1.8,0l-0.6-0.5l-0.6,0.3h-0.7l-0.4,0l-0.5-0.4l0,0
		l0,0l-6.7-6.5c5.3-4.1,11.8-6.7,18.9-6.9v9.9l-1.7,0.1l-0.4,0l-0.5,0.3l-0.2,0.3H254.7z M238.5,215.6l-12.2-11.9
		c8.6-7.5,19.8-12.1,32.1-12.2v16.9C250.8,208.5,244,211.3,238.5,215.6z M225.4,202.9l-11.3-11c11.8-10.6,27.2-17.2,44.3-17.4v15.8
		C245.7,190.5,234.2,195.2,225.4,202.9z M196,215.1c-3.4,8-5.2,16.7-5.3,25.8h-15.3c0.1-13.3,3.4-25.9,9.1-37L196,215.1z
		 M190.7,242.2c0.1,6.2,0.9,12.2,2.5,17.8l-0.3,0l-0.2-0.5h-0.6l0.1-0.4l-0.1-0.5l-0.4-0.3l-0.1-0.4h-0.8l-0.8-0.1l-0.7,0.1
		l-0.4,0.3l-0.3,0.4l0,0.4l-0.4,0.2l-0.2,0.1h-1l-0.2-0.4l-0.6-0.1l-0.9,0l-0.7,0.1l-0.5,0.5l-0.3,0.5l-0.3,0.4v0.6l-0.3,0.5
		l-0.3,0.5l-0.3,0.4v0.8l-0.2,0.7l0,0.8v0.7l0,0.6l0.3,0.5l0,0.7l0.2,0.7l0.3,0.5l0.2,0.7l0.4,0.5l0.5,0.7l0.1,0.7l1.1,0.2l0.7,0.2
		l0.7,0.7l0.3,0.5l0.5,0.5l0.4,0.4l0.7,0.2h0.7l-0.1-0.5l0.4-0.2l0.8,0.5l0.5,0.6l0.7,0.4l0.4,0.5l0.4,0.4l0.8,0.5l0.4,0.1l0.9,0.4
		l0.5,0.4l0.4,0.5l0,0.5l0.4,0.7l0.4,0.5l0.7,1.2l0.5,0.3l2.4,0.2l1.2,2.2l2.6,1.8l3.8,3.8l1.2,0.1c0.2,0.3,0.5,0.5,0.8,0.8
		l-10.8,10.8c-14.7-15-23.9-35.4-24.1-58H190.7z M211.1,290.3c12.2,12,28.8,19.4,47.2,19.6v15.3c-22.6-0.2-43-9.3-58-24.1
		L211.1,290.3z M212,289.4l0.4-0.4l3.8,0.1l0.8,0.5l0.4,0.3l0.6,0.2l0.7,0h0.6l1.1-0.2l0.7-0.3l0.5-0.4l0.5-0.5l0.9-0.1l1.6-0.1
		l0.5-0.5l1.3,0l1.8,0l1-1l0-1.5l-1.5-2.3l-1.4-1.9c8.7,7.2,19.8,11.6,32,11.7v15.8C240.3,308.5,224,301.2,212,289.4z M253.6,271.5
		l-0.1,0.3l0,0.4l-0.3,0.4L253,273c-6.2-1.2-11.8-4.2-16.2-8.4l5-5l12,11.7L253.6,271.5z M267.8,236.8l-0.1,1l-0.4,0.3l-0.4,0.3
		l-0.3,0.4l-0.3,0.4l-0.1,0.6l0.1,0.6l0.4,0.3l0.2,0.3h-2.3l-2.1-2.1l4.5-4.5l0.2,0.8v0.9v0.6L267.8,236.8z M301.1,202.7l0.4,0.6
		l0.4,0.5l0.5,0.5l0.7,0.4l2,0.3l0.3,0.3l0.4,0.6l0.2,0.7l0.5,0.5l0.7,0.6l0.4,0.6l1.6,0.3l0.6,0.7l0.4,0.6l1.6,0.4l0.5,0.2l0.8,0.6
		l0.8,0.7l1.1,1.1l0.7,0.7l0.1,0.4l0.2,0.4l0.2,0.3l0.1,0.4l0,0.5l0.3,0.2l0.3,0.3l0.3,0.3h0.5l0.5,0.1l0.1-0.2l0.5-0.1h0.6l0.4,0
		l0.9,0l0,0c3.2,7.7,5,16.2,5.1,25.1h-12.8l0.1-4.1l-0.3-0.4l0-0.6l-0.1-0.8l0-0.7v-0.8l-0.4-0.4l0-3l0.4-0.4l0-1l-0.5-0.5l-0.1-0.5
		l-1,0v0.6c-0.4,0.1-0.4,0.7-0.4,0.7l-0.3,0.4l-0.2,0.5l-0.2,0.8l0,0.5l-0.8,0v0.9c-0.1-0.3-0.1-0.7-0.2-1l0.1-0.1l0-0.3l0-0.2
		l0.1-0.5l0-0.8l0.3-0.1l0.1-0.5l0.3-0.2l0.1-0.4l0-0.9l-0.1-0.7l0-0.5l-0.3-0.3l-0.1-0.7l0.1-1.3l0-0.7l0.4-0.2l0.2-0.6l-0.1-0.9
		l0-0.6l0-0.5l-0.4-0.3l-0.1-0.7l0-0.8l-0.4-0.2l-0.3-0.4l-0.4-0.1l-0.3-0.2l-0.2-0.2l-0.3,0l-0.2-0.5l0-0.4l0.4-0.1l0.3-0.3
		l-0.1-0.3l0.1-0.4V215l-0.2-0.5l-0.3,0l-0.4-0.2l-0.3-0.3l0.1-0.4l0-0.5V212l-0.4-0.2l-0.1-0.4l-0.5,0l-0.3,0.1l-0.6,0l-0.5,0.1
		l-0.3,0.1l-0.3,0.2l-0.5,0l-0.3-0.1l-0.2-0.4l0-0.6l0-0.5l-0.4-0.1l0-0.5l-0.2-0.4l-0.4-0.1l-0.4-0.6l-0.4-0.2l-1-1l-0.8-0.8
		l-0.6-1.4l-0.5-0.8l-0.4-0.6l-0.3-0.5l3.1-3.1l0.1,0l0,1.6L301.1,202.7z M293.3,268.1l0.2-0.9l0.1-0.6l0.3-0.3l0-0.6l0.2-0.5
		l0.1-1.1l0.2-0.5l-0.1-0.9l-0.1-0.9l-0.4-0.6l-0.4-0.7c-0.4,0-0.7,0-0.7,0v-0.4l0.2-0.4l0.5-0.2l0.1-0.3l0.3-0.3l0.1-0.4l0.3-0.3
		l0.2-0.3l0.2-0.3l0.3-0.3l0.4-0.3l0.1-0.3h0.4l0.1,0.4l0.3,0.2l0.1,0.3l0.3,0.1l0.3-0.1l0.3,0h0.3l0.2-0.3l0.1-0.3l0.1-0.3l0-0.3
		l0-0.3l0.8,0l0.4,0l0.4,0.3h0.5l0.4-0.2l0.5,0.1h0.6l0.5-0.1l0.7,0.1l0.7-0.1l0.7,0l0.5-0.4c0-0.5,0.5-0.6,0.5-0.6l0.6,0.1l0.2,0.4
		l0.5,0.2l0.5,0l0.2,0c-1.9,6.3-5,12.1-9,17.1l-0.1-0.2l-0.2-0.5l-0.5-0.1h-0.3l-0.6-0.6l0-0.2l-0.2-0.5l-0.3-0.3l-0.2-0.5l-0.1-0.3
		l-0.4-0.2l-0.4,0.1l-0.4-0.1l0,0l-0.8-0.8l0.1-0.3L293.3,268.1z M308.3,237.9l0.4,0.4l-0.1,2.5c0,0,0,0.1,0,0.2h-2.8l0.1-0.3
		l0.1-0.3l0-0.3l0.2-0.2l0-0.9l-0.6-0.2l-0.5,0l-0.3,0l-0.1-0.4l-0.3-0.2l0-0.4l-0.3-0.1v-0.4l0-0.5l0.1-0.4l0.3-0.1l0.1-0.4
		l0.1-0.3l0.3,0l0.1-0.4h0.4l0.3-0.2l0.4,0.2l0.3-0.3l0.1-0.3l0.3-0.1l0.1-0.5l0.3-0.4l0.4-0.7l0.1-0.2c0.1,0.5,0.2,1.1,0.3,1.6
		l-0.2,0.5l0,1.5L308.3,237.9z M304.9,243.9l0.4-0.3l0.1-0.4l0.3-0.4l0.3-0.4l0-0.2h2.9c0.1,0.3,0.2,0.8,0.2,0.8l-0.4,1.2l-0.2,3.3
		l-0.5,0.3l-0.4,0.7l0.1,0.9l0,0.7l-0.4,0.1l0.1,1.3l-0.3,0.3l-0.3-0.1l-0.1-0.3l0-0.3l-0.1-0.3l-0.1-0.7l-0.3-0.4l-0.4-0.5
		c0,0-0.2-0.3-0.4-0.4c-0.1-0.1-0.5-0.4-0.5-0.4l-0.4-0.3l-0.4-0.6c0,0-0.3-0.2-0.4-0.3s-0.4-0.4-0.4-0.4v-0.6l-0.2-0.8l-0.5-0.5
		l-0.2-0.6l-0.4-0.4l0.4-0.2l0.2,0l0.3,0l0.4,0l0.4-0.2l0.3,0.2L304.9,243.9z M307.2,282.2l0-0.9v-0.7l-0.4-0.4v-0.7l-0.4-0.4
		l-0.5-0.4l-0.4-0.4l-0.5-0.2l-0.4-0.4H304l-0.8,0l0,0.5l0,0l-4.5-4.4c4.3-5.2,7.5-11.3,9.5-17.9l0.4,0h0.3l0.3,0.1l0.4,0l0.2-0.2
		l0,0.3l0.3,0.2l0.2,0l0.3,0.1l0.4-0.1l0.2-0.3l-0.1-0.3c0,0,0-0.2,0.1-0.3c0.1-0.1,0.1-0.3,0.1-0.3l0.2-0.3l0.3-0.3
		c0,0,0.2,0.1,0.3,0.1c0.1,0,0.2-0.1,0.3-0.1s0.3,0.2,0.3,0.2l0.4-0.1l0.1-0.2l0.3-0.1l0.2-0.2V254l0.2-0.4l-0.2-0.2l0.1-0.4
		l-0.2-0.3l-0.3-0.4l-0.5-0.5l0.1-0.4l-0.5-0.3l-0.3-0.3l0.3-0.8l0.1-0.6l0.2-0.4c0.4-0.2,0.4-0.7,0.4-0.7l-0.2-0.7l0.1-0.4l0.3-0.5
		l-0.3-0.5l0.1-3.7H326c-0.1,16.3-6.2,31.2-16,42.7L307.2,282.2z M298.2,212.2c0,0,0.4,0.7,0.5,0.9c0.1,0.2,0.6,0.8,0.6,0.8
		s0.4,0.1,0.6,0.3c0.2,0.2,0.5,0.6,0.5,0.6l0.5,0.8l0.2,0.7l0,0.6l0,0.4l0,0.4l-0.2,0.5l-0.2,0.3c0,0-0.2,0.4-0.2,0.4
		s-0.3,0.3-0.3,0.3s-0.2,0.6-0.1,0.7c0,0.1,0.1,0.2,0.1,0.3c0,0.1,0.1,0.2,0.2,0.3c0.1,0.1,0.3,0.2,0.3,0.2l0.4,0.3l0.5,0.3l0.5,0.3
		l0.5,0.4l0.7,0.4l0.6,0.4l0.6,0.7l0.7,0.7l0.5,0.7l0.3,1l0.5,1.2l0.1,0.8l0.2,0.8l0.2,0.2v0.3l0,0.4l-0.1,0.4l-0.1,0.4l-0.1,0.5
		l-0.3,0.4l0,0.4l-0.3,0.3l-0.3,0.3l-0.3,0.3l-0.4,0.3l-0.3,0.3l-0.3,0.2l-1,0l0-0.6l-0.2-0.2l0.2-0.3l0.3-0.4l0.1-0.3l0.3-0.2
		l0.1-0.2l0.2-0.4l0.2-0.3l0.2-0.3v-0.5l0.1-0.3l0.2-0.3l0-0.3l-0.2-0.4l-0.2-0.2c0,0-0.3-0.1-0.2-0.3c0-0.1,0.1-0.2,0-0.3
		c-0.1-0.1-0.2-0.1-0.2-0.1s-0.1-0.1-0.2-0.2c-0.1-0.1-0.3-0.4-0.3-0.4s0-0.2-0.3-0.3c-0.3-0.1-0.4-0.2-0.4-0.2l-0.2-0.3l-0.4-0.3
		l-0.4-0.2l-0.3-0.3l-0.3-0.2c0,0-0.3,0-0.4,0c-0.1,0-0.4,0.1-0.4,0.1l-0.3,0l-0.4,0.3l-0.3,0.3l-0.1,0.3l-0.3,0.1h-1.1l-0.3-0.2
		c0,0-0.1-0.3-0.1-0.4s0-0.5,0-0.5l0.2-0.2l0.2-0.2l0.1-0.2l-0.1-0.2l-0.1-0.2V224l-0.3-0.1l-0.2-0.2l-0.6-0.6l-0.4-0.5L297,222
		l-0.5-0.5l-0.3-0.5l-0.5-0.5c0,0-0.3-0.5-0.5-0.5c-0.3,0-0.6,0-0.6,0l-0.7-0.5l-0.5,0.1l-0.4,0.1c0,0-0.6-0.2-0.8-0.2
		c-0.1,0-0.6,0-0.8,0s-0.1,0-0.5,0c-0.4,0-0.8,0-0.8,0s0-0.2-0.3-0.2s-0.6,0-0.8,0c-0.2,0.1-0.3,0.1-0.4,0.1c-0.1,0-0.4-0.2-0.4-0.2
		h-0.4c0,0-0.2,0-0.3,0c-0.1,0-0.3,0-0.3-0.1s-0.2-0.2-0.2-0.2s-0.2-0.2-0.3-0.1c-0.2,0-0.6,0.2-0.6,0.2l-0.3,0.5l-0.4,0.4l-0.3,0.3
		l-0.2,0.4c-0.6-0.8-1.3-1.5-2-2.2l11.4-11.4l0.2,0.5l0.5,0.4l0.2,0.5l0.4,0.5l0,0.6l0.5,0.2l0.5,0.5l0.5,0.6l0.5,0.6L298.2,212.2z
		 M283,220.8v-0.2c0.5,0.6,0.9,1.1,1.4,1.7l0,0.1l0,0.4l-0.1,0.3l-0.4-0.1l-0.4,0l-0.1-0.3l-0.3-0.3l-0.1-0.3l-0.1-0.3l0.1-0.4
		L283,220.8z M287.4,262.7l0.2,0.2l0.4,0.2h0.5v-0.2l0.3-0.2l0.1-0.3c0,0,0-0.3,0-0.4s0.2-0.2,0.2-0.2l0.3-0.1l0.3,0
		c0,0,0.1-0.3,0.1-0.4c0-0.1,0.1-0.2,0.1-0.2l0.5,0l0.1,0.4l-0.2,0.3l0,0.3l-0.3,0.3l-0.1,0.2l-0.2,0.2l-0.3,0.3l-0.1,0.2l0,0.3
		l-0.2,0.2l-0.3,0.1l-0.4,0l-0.3-0.2h-0.1l-0.7-0.7L287.4,262.7z M268.7,244.7l0,0.3l-2.8-2.8h2.4l0,0.1l0.4,0.5l-0.2,0.8v0.5
		L268.7,244.7z M266.6,300.1l0.2,0.4l-0.1,0.5l0.5,0.7l0.4,0.1l0.4,0.6l0.5,0.7l0.8,0.2l0.6,0.4l0.7,0.3l0.6,0.6l0.7,0.4l0.4,0.7
		l0.5,0.7l0.7,0.5l0.1,0.1c-4.6,1-9.3,1.6-14.1,1.6v-15.1l0,0l0.5,0.5l0.7,0.4l0.5,0.4l0.4,0.4l0.5,0.4l0.8,0.2l4.5,0.3l0.2,0.6
		l0.2,0.7l-0.4,0.2l-0.4,0.5l-0.4,0.7l-0.2,0.8L266.6,300.1z M259.6,309.9c5.1,0,10.2-0.7,15-1.8l0.1,0.2l0.5,0.3l0.4,0.5l0.5,0.4
		l0.7,0.4l0.5,0.4l0.7,0.2l0.5,0.4l0.5,0.3l0.5,0.4l0.4,0.6l0.9,0.4l0.5,0.3l0.7,0.4l0.5-0.1l0.6,0l0.7-0.4l0.3-0.3l0.5-0.5l1-0.6
		l0.7-0.4l0.9-0.5l0.7-0.7l0.7-0.5l0.8-0.7l0.7-0.7l0.8-0.7l0.1-0.1l8.1,7.8c-11.7,6.4-25.1,10.1-39.4,10.2V309.9z M310.9,285.8
		c10-11.8,16.2-27,16.3-43.6h15.3c-0.2,20.7-8,39.7-20.7,54.2L310.9,285.8z M327.2,241c-0.1-9.1-1.9-17.7-5.3-25.7l0.5-0.2l0.4-0.4
		l0.3-0.4l0.3-0.4l0.2-0.9l0.1-0.5l0-0.5l-0.1-0.7l-0.3-0.6l-0.1-0.6l-0.1-0.5l-0.2-0.4l-0.4-0.3l-0.7-0.9l-0.3-0.8l-0.7-0.5
		l-0.7-0.7l-0.4-0.5l-0.2-0.7l-0.3-0.6l-0.4-0.4l-0.5-0.5l-0.4-0.6l-0.7-0.5l-0.5-0.5l-0.6-0.5l-0.4-0.6l-0.2-0.6l-0.2-0.5l-0.4-0.6
		l-0.3-0.5l-0.7-0.5l-0.5-0.4l-0.5-0.2l-0.5-0.2l-0.7-0.9l-0.6-0.5l-0.4-0.5l-0.7-0.3l-0.3-1.6l0-0.5l-0.1-0.7l0-0.4l8.6-8.6
		c14.7,15,23.9,35.4,24.1,58H327.2z M309.2,190.5l-1.3-1.5l-0.4-0.5l-0.5-0.7l-0.3-0.8l-0.2-0.9l-0.5-0.7l-0.2-0.6l-0.6-0.3
		l-0.5-0.6l-0.3-0.4l-0.4-0.4l-0.3-0.2l-0.5-0.3l-0.3-0.4l-0.3-0.1l-0.3-0.1l-0.4-0.3l-0.3-0.2l-0.2,0l-0.1-0.3l-0.2-0.3l-0.4-0.1
		l-0.1-0.4l-0.3-0.1H300l-0.4,0l-0.4-0.1l-0.2-0.3l-0.3-0.1l-0.4-0.1l-0.6,0l-0.3-0.3l-0.5-0.1l-0.5,0h-0.7l-0.6,0.1l-0.7,0
		l-0.4-0.1l-0.3,0.4l-0.4,0.1H293l-0.4,0.2l-0.4,0.4l-0.2,0.5l-0.3,0.4l0,0.2c-9.5-5.2-20.5-8.2-32.1-8.3V158
		c22.6,0.2,43,9.3,58,24.1L309.2,190.5z M291.4,183L291.4,183l-0.3,0.3l-0.1,0.6v0.7l-0.4,0.1l-0.1,0.4v0.9l0,0.6l0.3,0.4l0.3,0.8
		l0.3,0.4l0.5,0.9l0.3,0.6l0.3,0.6l0.3,0.3l0.4,0.4l0.4,0.2l0,0.3l-0.2,0.4l-0.4,0.1l0,1.8l0.4,0.2l0.3,0.4l0.3,0.3l0,0.8l0,0.5
		l0.3,0l0.2,0.7l0.2,0.2l0.4,0.1l0.3,0.3l0.3-0.2v-0.4l0.4-0.3l0.5-0.1l0.7-0.1l0.5-0.2l0.8,0.3l0.5,0.3l0.3,0.4l0.4,0.2l0,0.7
		l0.4,0.3l0.2,0.7v0.2l-3.6,3.6l0,0l-0.5-0.6l-0.3-1.1l-0.2-0.6l0-0.9l-0.2-0.3l-0.1-0.5l-0.2-0.5l-0.4-0.3l-0.1-0.4l-0.3-0.2
		l-0.3-0.1l-0.1-0.2l-0.2,0l-0.2,0l-0.3,0h-0.3l-0.1-0.2l-0.2-0.3l-0.4,0l-0.3-0.1l-0.1-0.2l-0.1-0.1l-0.3-0.3l-0.4-0.3l-0.2-0.3
		l-0.2-0.2l-0.5-0.4l-0.3-0.3l-0.4-0.4l-0.4-0.3l-0.2-0.2l-0.1-0.3h-0.7l-0.4,0l0,0.3l0.2,0.3l-0.2,0.3l0.3,0.3l0,0.3l0.3,0.3
		l0.3,0.5l0.1,0.4l-0.2,0.6l0.2,0.4l0.1,0.5l0,0.4l0.4,0.4l0.2,0.3l0.3,0.3l0.4,0.6l0.1,0.3l0.1,0.5l0.3,0.3l0.3,0.5l0,0.5l0.3,0.2
		c0,0,0.1,0.2,0.1,0.3s0.2,0.4,0.2,0.4l0.1,0.4c-8.8-7.4-20-11.9-32.4-12v-15.8C271.1,174.6,282,177.7,291.4,183z M293.5,205.4
		l0.1,0.3l0.1,0.2L282,217.7c-0.2-0.2-0.4-0.4-0.6-0.5v-0.1l0-0.3l-0.2-0.3l-0.1-0.3l-0.4,0.1l-0.1,0.1c-5.7-4.9-13-7.9-21-8v-16.9
		C272.7,191.7,284.7,197,293.5,205.4z M279.6,217.2l-0.3,0.3l-0.3,0.3l-0.3,0.3l-0.5,0.1l-0.4,0.3l0,0.5l-0.2,0.1l0,0.4l0.2,0.2
		l0.2,0.2l0.3,0.1h0.3l0.2,0c0.1,0.2,0.1,0.5,0.1,0.5l-0.1,0.3l-0.2,0.2l-0.1,0h-0.3l-0.1,0.2l-0.2,0.3l-0.4,0.4l-0.4,0.1l-0.4,0.1
		l-0.2,0.4l-0.4,0.2l-0.4,0.1l-0.4,0.4l-0.3,0.3l-0.4,0.2l-0.3,0.3l-0.3,0.3l-0.4,0.1l-0.3,0.4l-0.2,0.3l-0.4,0.3l-0.1,0.4l-0.3,0.3
		l-0.3,0.3l-0.4,0.1h-0.5l-0.5,0l-0.4-0.3l-0.2-0.3l-0.3-0.3l-0.3-0.3l-0.2-0.2l-0.5-0.2l-0.2-0.3h-0.4l-0.2,0.2l-0.3,0.1l-0.4,0
		l-0.2,0.3l-0.3,0l-0.2,0.3h-0.4l-0.2-0.3l0-0.4l0.1-0.3l0.2,0l0.2,0l0.2-0.3l0.2,0.2l0.3-0.1l0.1-0.2c0,0,0-0.2,0.1-0.2
		c0.1,0,0.4,0,0.4,0l0.3-0.2l0.2-0.1l0.2-0.2l0.3,0l0.3-0.3l0.4-0.2l0.3-0.3c0,0,0.1-0.3,0.1-0.4c0-0.1,0.3-0.3,0.3-0.3l0.3-0.3
		l0.2-0.2l0.1-0.6l0.2-0.2l0.3-0.3l0.1-0.4l0.1-0.5l-0.2-0.3l0.1-0.5v-0.6l-0.3-0.4l-0.3-0.3l-0.1-0.4l-0.3-0.1l-0.4,0.2l-0.4,0.1
		v0.2l-0.4,0.3l-0.1,0.3l-0.3,0.2l-0.3,0.3l-0.1,0.2l-0.3,0.3l-0.4,0.3l-0.3,0.1l-0.4,0.3l-0.3,0.3l-0.4,0.2l-0.3,0.2l-0.7,0.1
		l-0.2-0.3l-0.4-0.3l-0.4-0.4l-0.4-0.3l-0.4,0.1l-0.3-0.3l-0.4-0.2l-0.4,0.1l-0.4-0.2l-0.5,0l-0.2,0.3c0,0-0.2,0-0.4,0s-0.9,0-0.9,0
		l-0.6,0.1v-9.6C267.2,209.8,274.2,212.6,279.6,217.2z M260.2,230.6l0.7,0.2l0.5,0.5l1.1,0l0.8,0.2l0.8,0.4l0.7,0.7l0.7,0.7l0.5,0.4
		l-4.3,4.3l-2-2v-5.8L260.2,230.6z M255.6,232.3L255.6,232.3l0.8-0.6l0.4-0.4l0.7-0.5l0.2-0.4l0-0.5v-0.5l0-0.4l-0.4-0.2l0-1.9
		l0.4,0l0.1-0.2c0.2,0,0.4,0,0.6,0v0.6L258,227l-0.3,0.4l0,0.5v0.5l0.3,0.4l0.3,0.2v5.9L255.6,232.3z M258.3,173.3
		c-17.4,0.2-33.2,6.9-45.2,17.8l-11-10.6c14.8-13.7,34.5-22.2,56.2-22.4V173.3z M166.6,195.6c1.6-1.6,3.3-3,4.8-4.2l2,2
		c-0.6,0.4-1.1,0.8-1.7,1.1c-4.5,2.9-8.8,5.6-10.6,10l-0.3-0.1c1.3-2.9,1.9-6.4,2.6-10c0.5-3,1.1-6,2-8.8l2.8,2.7
		C167.5,190.7,166.9,193.1,166.6,195.6L166.6,195.6L166.6,195.6z M381.3,344c-2.3,3.3-6.7,3.6-9.6,0.8l-18.5-18
		c1.4-1.9,2.6-3.9,3.7-6.2l0.1-0.3l-0.2,0.2c-1.7,1.8-3.6,3.2-5.6,4.4l-2.7-2.7c1.2-0.5,2.5-0.9,3.7-1.5
		c11.8-5.8,20.2-16.8,22.6-29.5l0.1-0.4l-0.2,0.4c-2,4.7-7.1,9.6-14.2,13.8c-3,1.8-6.1,3.2-9,4.5c-3.6,1.6-7,3.3-10.4,5.5l-1.6-1.6
		c1.5-2.6,2.7-5.4,3.7-8.7c1.8-6,3.1-13.3,4.9-24.8l0-0.1L348,280c-6.9,6.7-10.6,15.2-13.6,23.5c-0.5,1.3-0.9,2.6-1.3,3.9l-1.8-1.7
		c0.1-0.1,0.1-0.3,0.2-0.4l0.1-0.1l-0.1,0c-0.1,0.1-0.3,0.2-0.4,0.2l-8.4-8.1c13-14.9,21-34.4,21-55.7c0-46.8-38-84.8-84.8-84.8
		c-22.3,0-42.5,8.7-57.7,22.8l-10.4-10.1c1.4-1.7,2.9-3.4,4.4-5l0.1-0.1l-0.1,0c-2.7,0.3-5.2,1.1-7.6,2L163.6,143
		c-2.9-2.8-2.7-7.2,0.5-9.6c25.6-19.3,57.5-30.7,91.9-30.7c84.5,0,153.3,68.8,153.3,153.3C409.3,288.8,398.9,319.1,381.3,344z"/>
</g>
</svg>
