<?xml version="1.0" encoding="utf-8"?>
<!-- Generator: Adobe Illustrator 16.0.0, SVG Export Plug-In . SVG Version: 6.00 Build 0)  -->
<!DOCTYPE svg PUBLIC "-//W3C//DTD SVG 1.1//EN" "http://www.w3.org/Graphics/SVG/1.1/DTD/svg11.dtd">
<svg version="1.1" xmlns="http://www.w3.org/2000/svg" xmlns:xlink="http://www.w3.org/1999/xlink" x="0px" y="0px" width="512px"
	 height="512px" viewBox="0 0 512 512" enable-background="new 0 0 512 512" xml:space="preserve">
<g id="Layer_1">
	<g>
		<path fill="#CFCBCB" d="M245.965,125.17c20.939,0,39.961,9.293,57.061,27.88c11.896,14.994,17.844,31.351,17.844,49.069
			c0,22.057-9.852,41.634-29.553,58.733c-23.047,12.64-34.571,31.226-34.571,55.76c-0.993,6.444-3.903,9.665-8.736,9.665
			c-6.197-1.361-9.293-3.778-9.293-7.248v-5.576c0-27.509,14.93-50.432,44.793-68.771c12.761-12.761,19.145-27.63,19.145-44.607
			c0-21.808-11.463-39.154-34.385-52.042c-10.162-3.096-18.279-4.647-24.349-4.647c-22.554,0-40.211,12.021-52.972,36.058
			l-4.833,23.605c-2.602,3.346-4.958,5.019-7.063,5.019c-6.691-1.362-10.037-4.275-10.037-8.736
			c0-23.791,11.771-44.544,35.314-62.265C218.579,129.138,232.458,125.17,245.965,125.17z M245.779,354.715h2.416
			c5.948,0,10.223,3.842,12.824,11.523v3.717c-1.736,8.922-6.569,13.383-14.497,13.383c-9.418-1.98-14.125-6.506-14.125-13.568
			C232.397,361.471,236.857,356.451,245.779,354.715z"/>
	</g>
</g>
<g id="Layer_2" display="none">
	<g display="inline">
		
			<line fill="none" stroke="#D8D8D7" stroke-width="14" stroke-linecap="round" stroke-miterlimit="10" x1="246.827" y1="270.082" x2="246.827" y2="373.287"/>
		
			<line fill="none" stroke="#D8D8D7" stroke-width="14" stroke-linecap="round" stroke-miterlimit="10" x1="246.827" y1="131.869" x2="346.656" y2="277.521"/>
		
			<line fill="none" stroke="#D8D8D7" stroke-width="14" stroke-linecap="round" stroke-miterlimit="10" x1="246.827" y1="131.869" x2="147.012" y2="277.521"/>
	</g>
</g>
</svg>
