<?xml version="1.0" encoding="utf-8"?>
<!-- Generator: Adobe Illustrator 16.0.0, SVG Export Plug-In . SVG Version: 6.00 Build 0)  -->
<!DOCTYPE svg PUBLIC "-//W3C//DTD SVG 1.1//EN" "http://www.w3.org/Graphics/SVG/1.1/DTD/svg11.dtd">
<svg version="1.1" xmlns="http://www.w3.org/2000/svg" xmlns:xlink="http://www.w3.org/1999/xlink" x="0px" y="0px" width="512px"
	 height="512px" viewBox="0 0 512 512" enable-background="new 0 0 512 512" xml:space="preserve">
<g id="Layer_1" display="none">
	<g display="inline">
		<path fill="#CFCBCB" d="M248.007,62.472c28.507,0,54.404,12.652,77.685,37.957c16.194,20.414,24.292,42.681,24.292,66.803
			c0,30.029-13.411,56.681-40.233,79.961c-31.378,17.207-47.066,42.51-47.066,75.913c-1.353,8.773-5.313,13.158-11.893,13.158
			c-8.438-1.854-12.652-5.145-12.652-9.869v-7.591c0-37.45,20.326-68.658,60.983-93.625c17.373-17.373,26.063-37.617,26.063-60.73
			c0-29.689-15.606-53.305-46.813-70.852c-13.834-4.215-24.885-6.326-33.148-6.326c-30.705,0-54.744,16.365-72.117,49.09
			l-6.579,32.136c-3.543,4.555-6.75,6.832-9.616,6.832c-9.109-1.854-13.665-5.82-13.665-11.893
			c0-32.389,16.025-60.643,48.078-84.769C210.723,67.873,229.618,62.472,248.007,62.472z M247.754,374.979h3.29
			c8.098,0,13.917,5.23,17.46,15.689v5.061c-2.364,12.146-8.943,18.219-19.737,18.219c-12.822-2.695-19.231-8.855-19.231-18.473
			C229.535,384.176,235.608,377.344,247.754,374.979z"/>
	</g>
</g>
<g id="Layer_2">
	<g>
		
			<line fill="none" stroke="#D8D8D7" stroke-width="14" stroke-linecap="round" stroke-miterlimit="10" x1="246.827" y1="270.082" x2="246.827" y2="373.287"/>
		
			<line fill="none" stroke="#D8D8D7" stroke-width="14" stroke-linecap="round" stroke-miterlimit="10" x1="246.827" y1="131.869" x2="346.656" y2="277.521"/>
		
			<line fill="none" stroke="#D8D8D7" stroke-width="14" stroke-linecap="round" stroke-miterlimit="10" x1="246.827" y1="131.869" x2="147.012" y2="277.521"/>
	</g>
</g>
</svg>
